<svg width="122" height="52" xmlns="http://www.w3.org/2000/svg" xmlns:xlink="http://www.w3.org/1999/xlink" overflow="hidden"><defs><clipPath id="clip0"><rect x="249" y="292" width="122" height="52"/></clipPath><clipPath id="clip1"><rect x="250" y="293" width="120" height="50"/></clipPath><clipPath id="clip2"><rect x="250" y="293" width="120" height="50"/></clipPath><clipPath id="clip3"><rect x="250" y="293" width="120" height="50"/></clipPath></defs><g clip-path="url(#clip0)" transform="translate(-249 -292)"><g clip-path="url(#clip1)"><g clip-path="url(#clip2)"><g clip-path="url(#clip3)"><path d="M82.8188 63.06C82.1651 63.06 81.5188 62.7655 81.0929 62.2046 80.3691 61.2524 80.5541 59.8935 81.5066 59.1694 83.2523 57.8424 87.6597 55.1004 91.5487 52.6809 93.5675 51.4248 95.3109 50.3401 96.1247 49.7961 103.375 44.9472 108.185 43.9928 114.359 52.2275 115.678 53.9874 116.909 56.0162 117.92 58.0944 118.443 59.1705 117.995 60.4667 116.919 60.9896 115.844 61.5133 114.547 61.0649 114.024 59.9891 113.131 58.1542 112.049 56.3688 110.892 54.8256 106.821 49.3949 104.857 49.1676 98.5328 53.397 97.6598 53.9807 95.8883 55.0826 93.8372 56.359 90.4087 58.4923 85.7131 61.4136 84.1283 62.618 83.7366 62.9164 83.2759 63.06 82.8188 63.06Z" fill="#82A7AC" transform="matrix(1.01171 0 0 1 250.169 259.931)"/><path d="M3.53666 52.1458C2.8829 52.1458 2.23663 51.851 1.81042 51.2903 1.08692 50.3379 1.27196 48.979 2.22413 48.2552 3.96982 46.9282 8.37724 44.1862 12.2665 41.7667 14.2853 40.5106 16.0288 39.4259 16.8426 38.8819 24.0926 34.033 28.9029 33.0786 35.0765 41.3133 36.3955 43.0731 37.6269 45.1022 38.6374 47.1805 39.1608 48.2566 38.7127 49.5527 37.6369 50.0756 36.5611 50.5994 35.2646 50.1509 34.7415 49.0751 33.849 47.24 32.7663 45.4545 31.6099 43.9117 27.5387 38.481 25.5752 38.254 19.2506 42.483 18.3776 43.0668 16.6058 44.1687 14.5551 45.4451 11.1262 47.5781 6.43095 50.4993 4.84613 51.7038 4.45438 52.0019 3.99371 52.1458 3.53666 52.1458Z" fill="#82A7AC" transform="matrix(1.01171 0 0 1 250.169 259.931)"/><path d="M87.5755 66.5962C87.4244 68.0532 87.1668 69.4927 86.8114 70.9099 86.6825 71.4165 86.5447 71.9185 86.3936 72.4158 86.3361 72.607 86.2783 72.7982 86.216 72.9935 85.6206 74.8728 84.8607 76.8144 83.7099 78.4314 83.4434 78.809 83.1547 79.1733 82.8391 79.5111 82.2126 80.1866 81.493 80.7731 80.6533 81.2307 78.996 82.1281 76.7658 82.7499 74.8153 82.9011 74.6153 82.9189 74.4155 82.9278 74.2243 82.9322 73.9404 82.9411 73.6422 82.9455 73.3358 82.95 69.364 83.0211 63.7394 82.8388 59.1366 81.4482 58.5723 81.2796 58.0258 81.0929 57.5015 80.8839 55.2579 79.9998 53.3872 78.7604 52.2545 77.023 49.3354 72.5312 47.0699 60.3225 39.779 61.9084 39.3659 61.9973 38.9394 62.1304 38.4951 62.3126 38.0331 62.5038 37.553 62.7436 37.0556 63.0367 33.4123 65.1958 32.9861 68.0926 31.6885 70.7807 31.4576 71.2559 31.1998 71.7224 30.8975 72.1802 29.8359 73.7531 28.1877 75.1834 25.0153 76.2542 24.7355 76.3476 24.4554 76.4365 24.1712 76.5163 23.7358 76.6452 23.3005 76.7607 22.8562 76.8583 20.5726 77.3781 18.1912 77.5423 15.8851 77.3606 15.3522 77.3203 14.8235 77.2625 14.2992 77.1825 7.11055 76.125 1.06386 71.6646 1.6151 64.2095 1.99713 59.0866 1.23279 51.7827 2.25469 50.6274 2.29054 50.5832 2.33471 50.5477 2.37917 50.521 2.71675 50.3254 3.06794 50.1434 3.41886 49.9789 5.5024 48.997 7.62623 48.4152 9.77646 48.1396 10.243 48.0729 10.7139 48.0288 11.1848 47.9974 13.8149 47.8065 16.4761 48.024 19.142 48.4641 19.7285 48.5575 20.3192 48.6639 20.906 48.7795 24.98 49.5791 29.0629 50.7919 33.0572 51.7293 33.6434 51.8716 34.2255 52.0005 34.8076 52.1247 36.0384 52.3867 37.2557 52.6134 38.464 52.7868 40.3745 53.058 42.2893 53.2311 44.2131 53.3422 44.7283 53.3733 45.2484 53.4 45.7682 53.422 49.7578 53.5909 53.7651 53.542 57.7594 53.6131 58.2792 53.622 58.7946 53.6309 59.31 53.6442 62.9353 53.742 66.5514 53.9685 70.1373 54.5861 70.6657 54.675 71.1947 54.7725 71.7232 54.8837 71.8121 54.897 71.9055 54.9193 71.9944 54.937 74.3046 55.4213 76.566 56.0834 78.8232 56.7452 79.3739 56.9097 79.9204 57.0742 80.4713 57.234 80.5025 57.2429 80.5291 57.2517 80.5603 57.2606 82.6571 57.8647 85.0788 58.2292 86.5536 60.0018 86.8156 60.3172 87.0245 60.6461 87.189 60.9926 88.002 62.6997 87.7622 64.7479 87.5755 66.5962Z" fill="#B8DFF8" transform="matrix(1.01171 0 0 1 250.169 259.931)"/><path d="M15.8854 77.3612C15.3525 77.3209 14.8237 77.2631 14.2995 77.1831 12.2782 73.1713 10.5497 69.1151 9.01683 65.5206 6.98219 60.7534 4.76084 55.8575 2.25469 50.628 2.29054 50.5838 2.33471 50.5482 2.37917 50.5216 2.71675 50.326 3.06794 50.144 3.41886 49.9795 5.95084 55.2532 8.19025 60.1894 10.243 65.0008 11.8647 68.8042 13.7129 73.136 15.8854 77.3612Z" fill="#C7E7F9" transform="matrix(1.01171 0 0 1 250.169 259.931)"/><path d="M24.1715 76.5168C23.7361 76.6457 23.3007 76.7613 22.8565 76.8588 21.7634 74.5441 20.7196 72.2116 19.6888 69.8969 18.7647 67.822 17.8094 65.6762 16.8542 63.6413 15.8101 61.4199 14.7882 59.123 13.8021 56.9061 12.5093 54.0049 11.1943 51.0461 9.77701 48.1404 10.2435 48.0738 10.7145 48.0296 11.1854 47.9982 12.5315 50.7797 13.7888 53.5962 15.0196 56.364 16.0057 58.5765 17.0232 60.8645 18.0628 63.0773 19.0225 65.1211 19.9822 67.2713 20.9063 69.3551 21.9679 71.7362 23.0385 74.1401 24.1715 76.5168Z" fill="#C7E7F9" transform="matrix(1.01171 0 0 1 250.169 259.931)"/><path d="M31.6888 70.7813C31.4579 71.2564 31.2001 71.7229 30.8978 72.1808 29.3563 69.1065 27.9257 65.9874 26.5129 62.9042 25.2512 60.1585 23.9492 57.3151 22.6075 54.6006 21.5945 52.5434 20.3995 50.491 19.142 48.465 19.7285 48.5583 20.3192 48.6647 20.906 48.7803 21.9454 50.5041 22.9365 52.2545 23.8028 54.0096 25.1534 56.7419 26.4598 59.5942 27.7215 62.349 29.0054 65.1522 30.3071 67.9868 31.6888 70.7813Z" fill="#C7E7F9" transform="matrix(1.01171 0 0 1 250.169 259.931)"/><path d="M39.7793 61.9087C39.3662 61.9976 38.9397 62.1307 38.4954 62.3129 36.8292 58.7232 35.0432 55.2399 33.0575 51.7299 33.6437 51.8721 34.2258 52.0011 34.8079 52.1253 36.6027 55.3602 38.2376 58.5901 39.7793 61.9087Z" fill="#C7E7F9" transform="matrix(1.01171 0 0 1 250.169 259.931)"/><path d="M59.1369 81.4485C58.5726 81.2799 58.0261 81.0932 57.5018 80.8842 56.7288 78.814 55.9425 76.828 55.0629 74.922 51.6596 67.578 48.0387 60.3672 44.2134 53.3431 44.7285 53.3742 45.2486 53.4008 45.7685 53.4228 49.4694 60.2516 52.9746 67.2402 56.2715 74.3666 57.3109 76.6102 58.2439 79.036 59.1369 81.4485Z" fill="#C7E7F9" transform="matrix(1.01171 0 0 1 250.169 259.931)"/><path d="M74.8156 82.9014C74.6155 82.9191 74.4158 82.928 74.2246 82.9325 73.9407 82.9414 73.6425 82.9458 73.3361 82.9503 72.1144 80.6044 70.8972 78.2411 69.7108 75.9395 65.8899 68.5197 61.9979 60.9715 57.7594 53.6139 58.2792 53.6228 58.7946 53.6317 59.31 53.6451 63.4107 60.8026 67.1827 68.1287 70.8924 75.3307 72.1766 77.8188 73.4917 80.3733 74.8156 82.9014Z" fill="#C7E7F9" transform="matrix(1.01171 0 0 1 250.169 259.931)"/><path d="M83.7102 78.4317C83.4437 78.8093 83.155 79.1735 82.8394 79.5114 82.4574 78.9782 82.0928 78.4406 81.7597 77.903 77.2147 70.5235 73.607 62.4463 70.1373 54.5869 70.6657 54.6759 71.1947 54.7734 71.7232 54.8845 75.0601 62.4374 78.5564 70.1589 82.8972 77.2009 83.1461 77.6098 83.4215 78.023 83.7102 78.4317Z" fill="#C7E7F9" transform="matrix(1.01171 0 0 1 250.169 259.931)"/><path d="M86.8114 70.9099C86.6825 71.4165 86.5447 71.9185 86.3936 72.4158 86.3361 72.607 86.2783 72.7982 86.216 72.9935 84.0255 67.4711 81.4933 62.1573 78.8232 56.7458 79.3739 56.9103 79.9204 57.0748 80.4713 57.2345 80.5025 57.2434 80.5291 57.2523 80.5603 57.2612 82.7908 61.7975 84.9143 66.2891 86.8114 70.9099Z" fill="#C7E7F9" transform="matrix(1.01171 0 0 1 250.169 259.931)"/><path d="M77.3795 81.6413C77.0681 81.6413 76.7735 81.4555 76.6505 81.1487 76.489 80.7464 76.6841 80.2891 77.0864 80.1274 78.2322 79.6673 79.1705 77.6312 79.8756 74.0762 80.7056 69.8897 80.2644 65.7096 79.7481 62.9403 79.6684 62.5141 79.9496 62.104 80.3761 62.0245 80.8025 61.9445 81.2126 62.2262 81.2918 62.6525 81.8336 65.5573 82.2946 69.95 81.416 74.3816 80.8889 77.0397 79.9273 80.6786 77.6715 81.5844 77.576 81.6233 77.477 81.6413 77.3795 81.6413Z" fill="#16213D" transform="matrix(1.01171 0 0 1 250.169 259.931)"/><path d="M28.0038 51.2445C27.9293 51.2445 27.8535 51.2337 27.7782 51.2114 20.4426 49.0159 13.8199 48.3472 7.53176 49.1632 7.10333 49.2193 6.70796 48.9162 6.65211 48.4858 6.59627 48.056 6.89939 47.662 7.32949 47.6061 13.8405 46.7596 20.6771 47.4469 28.2288 49.7069 28.6442 49.8314 28.8804 50.269 28.7559 50.6844 28.6539 51.0247 28.3416 51.2445 28.0038 51.2445Z" fill="#16213D" transform="matrix(1.01171 0 0 1 250.169 259.931)"/><path d="M57.1612 81.3799C57.1117 81.3799 57.0617 81.3752 57.0114 81.3654 52.514 80.4958 50.8775 75.6836 49.5622 71.8165 49.1498 70.6035 48.76 69.4577 48.3222 68.518 46.9893 65.6573 44.92 63.8697 41.8098 62.8914 41.3961 62.7614 41.1663 62.3204 41.2961 61.9067 41.4264 61.493 41.8662 61.2641 42.2807 61.3933 45.7927 62.4977 48.2344 64.6115 49.7458 67.8548 50.2195 68.8717 50.6224 70.0564 51.0489 71.3109 52.2947 74.9745 53.707 79.1271 57.309 79.8234 57.7349 79.9059 58.0133 80.3177 57.9311 80.7436 57.8588 81.119 57.5301 81.3799 57.1612 81.3799Z" fill="#16213D" transform="matrix(1.01171 0 0 1 250.169 259.931)"/><path d="M10.0493 75.8836C10.0282 75.8836 10.0068 75.8828 9.98512 75.8811 4.39297 75.4268 0.400372 71.1342 0.0505674 65.1992-0.155036 61.7142 0.31174 58.3053 0.763234 55.0084 0.922716 53.8451 1.08748 52.6423 1.22029 51.4551 1.26835 51.0242 1.659 50.7155 2.08743 50.7616 2.51865 50.8097 2.82872 51.1981 2.78065 51.629 2.64618 52.836 2.48003 54.0485 2.31943 55.2215 1.85766 58.5915 1.42172 61.775 1.61816 65.1064 1.86933 69.3674 4.59358 73.8673 10.1124 74.3155 10.5444 74.3505 10.8664 74.7297 10.8314 75.1618 10.7975 75.5724 10.4541 75.8836 10.0493 75.8836Z" fill="#16213D" transform="matrix(1.01171 0 0 1 250.169 259.931)"/></g></g></g></g></svg>