<svg width="133" height="94" xmlns="http://www.w3.org/2000/svg" xmlns:xlink="http://www.w3.org/1999/xlink" overflow="hidden"><defs><clipPath id="clip0"><rect x="959" y="577" width="133" height="94"/></clipPath><clipPath id="clip1"><rect x="960" y="578" width="131" height="92"/></clipPath><clipPath id="clip2"><rect x="960" y="578" width="131" height="92"/></clipPath><clipPath id="clip3"><rect x="960" y="578" width="131" height="92"/></clipPath></defs><g clip-path="url(#clip0)" transform="translate(-959 -577)"><g clip-path="url(#clip1)"><g clip-path="url(#clip2)"><g clip-path="url(#clip3)"><path d="M4.28875 51.5819C4.80608 64.8778 4.46815 78.2823 4.48484 91.5949 4.49318 99.651 2.23199 113.506 13.976 113.66 16.5626 113.702 19.0991 113.251 21.6899 113.335 24.9941 113.448 28.2941 113.694 31.5941 113.794 38.6447 113.998 45.7203 113.806 52.7625 113.785 66.9346 113.752 81.1067 113.627 95.2663 113.548 101.987 113.514 108.7 113.448 115.417 113.506 120.156 113.548 125.133 113.794 129.001 110.657 132.568 107.774 131.433 102.968 131.433 98.9626 131.433 92.0789 131.512 85.2244 131.883 78.3532 132.584 65.3284 131.85 52.3161 132.355 39.3289 132.526 34.8274 132.693 30.4802 129.835 26.7296 127.707 23.9469 123.94 23.1918 120.673 22.8581 115.621 22.3491 110.198 22.8163 105.116 22.8789 97.7778 22.9624 90.5061 23.7342 83.1635 23.3295 77.0057 22.9874 70.7811 23.1251 64.6108 23.0458 58.0734 22.9707 51.5652 22.3741 45.0319 22.3741 38.4236 22.3741 31.8236 22.3741 25.2235 22.3741 20.2881 22.3741 13.9343 22.0696 9.37435 24.3474 9.14489 24.4684 9.01973 24.6353 8.9655 24.8356 6.12024 27.0801 4.80608 29.6416 4.43477 33.338 4.15942 36.1123 4.31379 38.9367 4.5349 41.7069 4.79773 45.0194 4.15942 48.2652 4.28875 51.5819" transform="matrix(1.00374 0 0 1 957.749 555.914)"/><path d="M130.619 42.5329C130.569 39.9296 130.957 37.2763 130.769 34.673 130.244 27.3179 125.388 24.41 118.471 24.3808 106.693 24.3474 94.9283 24.8731 83.1635 24.8731 71.4361 24.8731 59.6796 24.0763 47.9648 24.0763 41.4524 24.0763 34.9275 24.0763 28.4026 24.0763 25.2653 24.0763 22.1613 24.6019 19.0115 24.5769 16.0369 24.5602 12.9747 24.6144 10.2254 25.9828 5.99091 29.1118 5.76979 33.9179 6.04097 38.7907 6.22871 42.2117 5.90747 45.4616 5.9325 48.8451 5.99091 56.8135 6.04931 64.7861 6.08269 72.7628 6.12024 80.727 6.18699 88.6871 6.18699 96.6472 6.18699 100.577 5.15652 106.572 8.24375 109.643 11.4937 112.868 14.9481 111.662 18.9364 111.599 25.8535 111.491 32.7998 112.113 39.7336 112.113 46.3419 112.104 52.9503 112.096 59.567 112.058 73.739 111.992 87.9028 111.866 102.075 111.812 106.034 111.804 110.01 111.754 113.973 111.787 117.177 111.825 120.761 112.225 123.89 111.337 128.875 109.935 129.914 106.693 129.777 101.829 129.693 98.9 129.735 95.9671 129.735 93.0343 129.735 86.0087 130.269 79.0249 130.448 72.0077 130.603 66.0001 129.906 59.6546 130.628 53.7179 131.078 49.9924 130.678 46.2668 130.619 42.5329ZM129.835 26.7296C132.693 30.4802 132.526 34.8274 132.355 39.3289 131.85 52.3161 132.584 65.3284 131.883 78.3532 131.512 85.2244 131.433 92.0789 131.433 98.9626 131.433 102.968 132.568 107.774 129.001 110.657 125.133 113.794 120.156 113.548 115.417 113.506 108.7 113.448 101.987 113.514 95.2663 113.548 81.1067 113.627 66.9346 113.752 52.7625 113.785 45.7203 113.806 38.6447 113.998 31.5941 113.794 28.2941 113.694 24.9941 113.448 21.6899 113.335 19.0991 113.251 16.5626 113.702 13.976 113.66 2.23199 113.506 4.49318 99.651 4.48484 91.5949 4.46815 78.2823 4.80608 64.8778 4.28875 51.5819 4.15942 48.2652 4.79773 45.0194 4.5349 41.7069 4.31379 38.9367 4.15942 36.1123 4.43477 33.338 4.80608 29.6416 6.12024 27.0801 8.9655 24.8356 9.01973 24.6353 9.14489 24.4684 9.37435 24.3474 13.9343 22.0696 20.2881 22.3741 25.2235 22.3741 31.8236 22.3741 38.4236 22.3741 45.0319 22.3741 51.5652 22.3741 58.0734 22.9707 64.6108 23.0458 70.7811 23.1251 77.0057 22.9874 83.1635 23.3295 90.5061 23.7342 97.7778 22.9624 105.116 22.8789 110.198 22.8163 115.621 22.3491 120.673 22.8581 123.94 23.1918 127.707 23.9469 129.835 26.7296" transform="matrix(1.00374 0 0 1 957.749 555.914)"/><path d="M128.312 81.1401C128.884 69.9634 129.197 58.645 129.088 47.4683 129.034 42.4745 129.547 37.0885 128.746 32.1657 128.149 28.5653 125.25 27.0425 121.992 26.4418 117.273 25.5656 112.05 26.2957 107.269 26.254 100.907 26.2123 94.5445 26.8131 88.1823 26.934 82.0996 27.0509 75.9835 26.6295 69.905 26.6295 58.3613 26.6295 46.8884 26.0997 35.3447 26.0997 31.0643 26.0997 26.763 26.3041 22.4993 26.3041 22.1196 26.3041 21.7191 26.3041 21.3103 26.2957 21.1976 26.2373 21.0808 26.204 20.9265 26.204 20.4926 26.204 20.0837 26.2206 19.7124 26.2624 14.4891 26.1581 8.56917 26.3208 7.94755 32.4285 7.41771 37.61 8.33136 42.729 7.67637 47.8772 7.28421 51.0061 7.78484 54.4063 7.78484 57.5811 7.78484 64.7235 7.7765 71.8617 7.81821 78.9999 7.87662 86.5928 7.88914 94.1815 7.88914 101.779 7.88914 104.841 8.04767 107.006 10.2755 109.263 11.1891 110.173 12.3698 110.189 13.5588 110.264 16.6544 110.46 19.8209 109.851 22.9582 109.985 26.2916 110.131 29.6208 110.573 32.9542 110.615 32.9625 110.615 32.9708 110.836 32.9792 110.836 33.0668 110.836 33.1419 110.836 33.2253 110.836 33.2337 110.836 33.242 110.836 33.2504 110.836 48.6031 110.352 63.8057 110.248 78.9623 110.248 90.5978 110.248 102.2 110.31 113.844 110.31 117.766 110.298 121.908 110.632 125.592 109.034 128.976 107.561 128.058 103.385 127.999 100.502 127.862 94.0731 127.983 87.5648 128.312 81.1401ZM130.769 34.673C130.957 37.2763 130.569 39.9296 130.619 42.5329 130.678 46.2668 131.078 49.9924 130.628 53.7179 129.906 59.6546 130.603 66.0001 130.448 72.0077 130.269 79.0249 129.735 86.0087 129.735 93.0343 129.735 95.9671 129.693 98.9 129.777 101.829 129.914 106.693 128.875 109.935 123.89 111.337 120.761 112.225 117.177 111.825 113.973 111.787 110.01 111.754 106.034 111.804 102.075 111.812 87.9028 111.866 73.739 111.992 59.567 112.058 52.9503 112.096 46.3419 112.104 39.7336 112.113 32.7998 112.113 25.8535 111.491 18.9364 111.599 14.9481 111.662 11.4937 112.868 8.24375 109.643 5.15652 106.572 6.18699 100.577 6.18699 96.6472 6.18699 88.6871 6.12024 80.727 6.08269 72.7628 6.04931 64.7861 5.99091 56.8135 5.9325 48.8451 5.90747 45.4616 6.22871 42.2117 6.04097 38.7907 5.76979 33.9179 5.99091 29.1118 10.2254 25.9828 12.9747 24.6144 16.0369 24.5602 19.0115 24.5769 22.1613 24.6019 25.2653 24.0763 28.4026 24.0763 34.9275 24.0763 41.4524 24.0763 47.9648 24.0763 59.6796 24.0763 71.4361 24.8731 83.1635 24.8731 94.9283 24.8731 106.693 24.3474 118.471 24.3808 125.388 24.41 130.244 27.3179 130.769 34.673" fill="#4D4D4D" transform="matrix(1.00374 0 0 1 957.749 555.914)"/><path d="M15.2443 108.412C14.2931 106.994 14.5058 105.041 14.2513 103.155 13.7048 99.1336 13.8049 95.1161 13.8342 91.0693 13.8926 81.0983 13.8425 71.1316 13.8425 61.1606 13.8425 53.551 14.4015 46.0207 14.4015 38.4236 14.4015 34.5979 13.9677 30.234 16.1037 27.8936 14.6727 28.0313 13.3043 28.2774 12.1904 28.7697 7.97258 30.6346 9.4703 38.3735 9.63301 42.2117 9.80823 46.3961 9.37435 50.6724 9.37435 54.886 9.37435 60.3179 9.25753 65.7539 9.27422 71.1816 9.29925 80.3349 9.16158 89.4798 9.16158 98.6205 9.16158 99.8637 9.16158 101.107 9.16158 102.354 9.16158 106.422 11.5771 108.387 15.2443 108.412ZM75.654 98.6455C75.654 95.575 76.4174 92.5545 76.0795 89.4255 75.4162 83.4972 74.3356 77.1016 75.0824 71.1399 76.0378 63.5345 75.2284 55.3533 75.2284 47.6811 75.2284 44.5939 75.2618 41.4774 75.3661 38.3902 75.4579 35.8078 76.6803 30.1423 73.9435 28.4985 73.7974 28.4067 73.7057 28.2941 73.6473 28.1773 64.64 27.9645 55.6328 27.4806 46.6465 27.4806 40.643 27.4806 34.6313 27.4806 28.6153 27.4806 27.0675 27.4806 25.4864 27.8519 23.9636 27.8519 23.1376 27.8519 22.2281 27.8268 21.2852 27.8018 21.1643 27.8602 21.0391 27.9061 20.8764 27.9061 14.7603 27.8519 15.9994 34.3184 15.9994 38.4236 15.9994 41.0644 16.1037 43.7845 15.8075 46.4045 15.1441 52.2577 15.1191 58.1527 15.1191 64.0268 15.1191 71.5404 15.1191 79.0499 15.1191 86.5594 15.1191 90.0805 15.1692 93.6183 15.2776 97.1436 15.3653 99.5633 15.1441 106.752 17.9143 108.291 23.0208 108.037 28.1314 108.658 33.2253 108.708 46.8592 108.708 60.4347 108.633 73.9852 108.558 75.9835 107.202 75.654 100.723 75.654 98.6455ZM127.344 37.6518C127.436 34.9984 127.787 30.6429 124.954 29.1452 122.743 27.9895 120.214 27.7935 117.757 27.8185 113.31 27.8686 108.833 27.7851 104.386 27.9228 96.6221 28.1481 88.9207 28.2774 81.1651 28.2774 79.5172 28.2774 77.8651 28.2524 76.213 28.2273 77.2602 29.5123 77.4312 31.1435 77.3102 33.0501 77.1016 36.4961 77.0808 39.9463 76.964 43.3923 76.6385 52.9711 76.6385 62.7168 76.6385 72.2789 76.6385 80.0554 78.6995 88.174 77.7816 95.9504 77.3811 99.3089 77.2018 102.663 77.0641 106.013 77.0307 106.973 76.843 107.824 76.4258 108.55 83.9645 108.504 91.4906 108.462 99.021 108.429 104.319 108.404 109.76 108.316 115.054 108.395 118.838 108.454 126.706 109.551 126.46 103.948 126.272 99.4298 126.331 94.9116 126.331 90.3893 126.331 81.115 127.148 71.845 127.173 62.5666 127.198 54.2644 127.073 45.9456 127.344 37.6518ZM129.088 47.4683C129.197 58.645 128.884 69.9634 128.312 81.1401 127.983 87.5648 127.862 94.0731 127.999 100.502 128.058 103.385 128.976 107.561 125.592 109.034 121.908 110.632 117.766 110.298 113.844 110.31 102.2 110.31 90.5978 110.248 78.9623 110.248 63.8057 110.248 48.6031 110.352 33.2504 110.836 33.242 110.836 33.2337 110.836 33.2253 110.836 33.1419 110.836 33.0668 110.836 32.9792 110.836 32.9708 110.836 32.9625 110.615 32.9542 110.615 29.6208 110.573 26.2916 110.131 22.9582 109.985 19.8209 109.851 16.6544 110.46 13.5588 110.264 12.3698 110.189 11.1891 110.173 10.2755 109.263 8.04767 107.006 7.88914 104.841 7.88914 101.779 7.88914 94.1815 7.87662 86.5928 7.81821 78.9999 7.7765 71.8617 7.78484 64.7235 7.78484 57.5811 7.78484 54.4063 7.28421 51.0061 7.67637 47.8772 8.33136 42.729 7.41771 37.61 7.94755 32.4285 8.56917 26.3208 14.4891 26.1581 19.7124 26.2624 20.0837 26.2206 20.4926 26.204 20.9265 26.204 21.0808 26.204 21.1976 26.2373 21.3103 26.2957 21.7191 26.3041 22.1196 26.3041 22.4993 26.3041 26.763 26.3041 31.0643 26.0997 35.3447 26.0997 46.8884 26.0997 58.3613 26.6295 69.905 26.6295 75.9835 26.6295 82.0996 27.0509 88.1823 26.934 94.5445 26.8131 100.907 26.2123 107.269 26.254 112.05 26.2957 117.273 25.5656 121.992 26.4418 125.25 27.0425 128.149 28.5653 128.746 32.1657 129.547 37.0885 129.034 42.4745 129.088 47.4683" transform="matrix(1.00374 0 0 1 957.749 555.914)"/><path d="M123.143 76.2088C123.243 64.0268 123.252 51.8822 122.947 39.7085 122.922 37.4306 124.103 32.9208 122.267 31.0518 120.369 29.1201 117.002 29.6625 114.516 29.554 109.693 29.3329 104.862 29.6041 100.039 29.6041 96.6889 29.6041 91.3488 28.3275 88.3867 30.2257 86.3008 31.5607 87.5857 35.6367 87.6983 37.3973 88.0363 43.0419 87.7901 48.8284 87.8611 54.4939 88.0196 66.8679 88.1239 79.246 88.2073 91.62 88.2324 95.0159 86.9474 100.878 88.7539 103.956 89.9679 106.03 93.9229 105.254 95.7961 105.316 101.382 105.504 107.014 105.179 112.584 105.654 114.866 105.85 120.369 107.035 122.104 104.703 124.011 102.142 122.914 97.1228 122.93 94.2066 122.972 88.2115 123.089 82.2039 123.143 76.2088ZM124.954 29.1452C127.787 30.6429 127.436 34.9984 127.344 37.6518 127.073 45.9456 127.198 54.2644 127.173 62.5666 127.148 71.845 126.331 81.115 126.331 90.3893 126.331 94.9116 126.272 99.4298 126.46 103.948 126.706 109.551 118.838 108.454 115.054 108.395 109.76 108.316 104.319 108.404 99.021 108.429 91.4906 108.462 83.9645 108.504 76.4258 108.55 76.843 107.824 77.0307 106.973 77.0641 106.013 77.2018 102.663 77.3811 99.3089 77.7816 95.9504 78.6995 88.174 76.6385 80.0554 76.6385 72.2789 76.6385 62.7168 76.6385 52.9711 76.964 43.3923 77.0808 39.9463 77.1016 36.4961 77.3102 33.0501 77.4312 31.1435 77.2602 29.5123 76.213 28.2273 77.8651 28.2524 79.5172 28.2774 81.1651 28.2774 88.9207 28.2774 96.6221 28.1481 104.386 27.9228 108.833 27.7851 113.31 27.8686 117.757 27.8185 120.214 27.7935 122.743 27.9895 124.954 29.1452" fill="#808080" transform="matrix(1.00374 0 0 1 957.749 555.914)"/><path d="M121.228 94.2066C121.399 76.0294 121.704 57.8773 121.245 39.7085 121.203 35.6951 122.129 31.0768 116.814 31.2645 113.08 31.398 109.338 31.0684 105.592 31.2311 102.396 31.3646 99.1712 31.3646 95.9755 31.2562 94.5695 31.2061 88.8289 30.5136 88.9416 33.2462 89 34.648 89.4005 35.983 89.4005 37.3973 89.3463 55.4618 89.7802 73.5471 89.9095 91.62 89.9262 94.0814 89.8928 96.5387 89.8511 98.996 89.8094 101.624 89.6466 103.452 92.8006 103.531 96.8224 103.631 100.84 103.877 104.87 103.769 109.084 103.648 113.26 104.286 117.469 104.178 120.223 104.107 121.245 103.41 121.228 100.723 121.212 98.5454 121.212 96.376 121.228 94.2066ZM122.947 39.7085C123.252 51.8822 123.243 64.0268 123.143 76.2088 123.089 82.2039 122.972 88.2115 122.93 94.2066 122.914 97.1228 124.011 102.142 122.104 104.703 120.369 107.035 114.866 105.85 112.584 105.654 107.014 105.179 101.382 105.504 95.7961 105.316 93.9229 105.254 89.9679 106.03 88.7539 103.956 86.9474 100.878 88.2324 95.0159 88.2073 91.62 88.1239 79.246 88.0196 66.8679 87.8611 54.4939 87.7901 48.8284 88.0363 43.0419 87.6983 37.3973 87.5857 35.6367 86.3008 31.5607 88.3867 30.2257 91.3488 28.3275 96.6889 29.6041 100.039 29.6041 104.862 29.6041 109.693 29.3329 114.516 29.554 117.002 29.6625 120.369 29.1201 122.267 31.0518 124.103 32.9208 122.922 37.4306 122.947 39.7085" transform="matrix(1.00374 0 0 1 957.749 555.914)"/><path d="M110.381 41.8362C111.478 41.8362 111.478 40.1341 110.381 40.1341 107.152 40.1341 103.936 39.9296 100.702 40.1341 99.6134 40.1966 99.6134 41.8946 100.702 41.8362 103.936 41.6318 107.152 41.8362 110.381 41.8362ZM110.381 38.5362C111.478 38.5195 111.533 36.8174 110.435 36.8341 107.269 36.8758 103.577 37.1595 101.028 37.1595 99.3255 37.1595 99.3255 38.8616 101.028 38.8616 101.028 38.8616 107.211 38.5779 110.381 38.5362ZM110.381 36.0873C112.083 36.0873 112.083 34.3851 110.381 34.3851 106.981 34.3851 103.577 34.1807 100.177 34.1807 99.3255 34.1807 99.3255 35.8829 100.177 35.8829 100.177 35.8829 106.981 36.0873 110.381 36.0873ZM116.956 74.7278C117.553 70.3055 116.652 65.3034 116.176 60.8811 115.876 58.1235 118.066 51.6361 115.121 49.8672 114.04 49.2289 111.599 49.7712 110.435 49.7879 107.473 49.8505 104.515 49.8046 101.562 49.8046 98.5829 49.8046 95.1244 49.3457 95.0118 53.113 94.9283 55.8623 95.3872 58.6533 95.3706 61.4151 95.3539 64.3021 95.1244 67.1599 95.1912 70.051 95.2746 73.9727 94.5111 75.825 98.4828 76.309 101.374 78.2906 104.999 79.4045 108.579 78.42 110.798 77.8067 112.843 76.8555 115.154 76.5301 115.888 76.4383 116.864 75.4621 116.956 74.7278ZM121.245 39.7085C121.704 57.8773 121.399 76.0294 121.228 94.2066 121.212 96.376 121.212 98.5454 121.228 100.723 121.245 103.41 120.223 104.107 117.469 104.178 113.26 104.286 109.084 103.648 104.87 103.769 100.84 103.877 96.8224 103.631 92.8006 103.531 89.6466 103.452 89.8094 101.624 89.8511 98.996 89.8928 96.5387 89.9262 94.0814 89.9095 91.62 89.7802 73.5471 89.3463 55.4618 89.4005 37.3973 89.4005 35.983 89 34.648 88.9416 33.2462 88.8289 30.5136 94.5695 31.2061 95.9755 31.2562 99.1712 31.3646 102.396 31.3646 105.592 31.2311 109.338 31.0684 113.08 31.398 116.814 31.2645 122.129 31.0768 121.203 35.6951 121.245 39.7085" fill="#666666" transform="matrix(1.00374 0 0 1 957.749 555.914)"/><path d="M110.427 71.2567C110.356 68.3406 110.152 65.3743 110.469 62.6166 108.078 60.7768 102.2 59.6295 100.122 62.479 100.122 65.5495 100.202 68.6368 100.047 71.7073 103.689 71.7073 106.948 71.7073 110.281 71.7073 110.281 71.5237 110.331 71.3694 110.427 71.2567ZM114.612 57.5144C114.858 55.0446 115.204 51.44 113.31 51.4567 109.78 51.4901 106.255 51.5068 102.726 51.5068 101.637 51.5068 96.5512 51.0145 96.7139 53.113 96.8182 54.3979 96.8933 55.6912 96.9601 56.9845 96.9767 57.3767 96.9934 57.7689 97.0018 58.1527 102.78 57.36 108.875 57.5144 114.612 57.5144ZM111.558 75.3744C112.851 74.7278 115.709 75.3995 115.375 72.4666 115.25 71.2943 114.983 70.0677 115.012 68.8829 115.062 65.6371 114.507 62.504 114.474 59.2666 114.474 59.2541 114.474 59.229 114.474 59.2123 111.754 59.2123 109.013 59.1706 106.293 59.2123 108.425 59.5461 110.494 60.4139 111.837 61.5361 112.025 61.6988 112.1 61.8866 112.108 62.0618 112.167 62.1911 112.213 62.3246 112.188 62.5123 111.787 65.7289 112.133 69.1582 112.133 72.5584 112.133 72.7711 112.025 72.9339 111.862 73.0465 111.708 73.2718 111.395 73.4095 111.132 73.4095 107.261 73.4095 99.3255 73.4095 99.3255 73.4095 99.1712 73.4095 99.0544 73.3427 98.9501 73.2467 98.5955 73.1883 98.2867 72.9255 98.3118 72.4583 98.5245 69.1082 98.4244 65.7289 98.4244 62.3705 98.3702 62.1911 98.3994 61.9783 98.5329 61.7656 99.3589 60.5056 100.602 59.7422 102.029 59.3584 100.339 59.4585 98.6622 59.6129 97.0018 59.8507 96.9767 62.3038 96.8057 64.7235 96.8432 67.1849 96.8683 69.5921 95.7627 74.2021 98.6789 74.6193 98.8499 74.5943 99.0377 74.6277 99.2254 74.7612 103.135 77.4938 107.294 77.5188 111.558 75.3744ZM116.176 60.8811C116.652 65.3034 117.553 70.3055 116.956 74.7278 116.864 75.4621 115.888 76.4383 115.154 76.5301 112.843 76.8555 110.798 77.8067 108.579 78.42 104.999 79.4045 101.374 78.2906 98.4828 76.309 94.5111 75.825 95.2746 73.9727 95.1912 70.051 95.1244 67.1599 95.3539 64.3021 95.3706 61.4151 95.3872 58.6533 94.9283 55.8623 95.0118 53.113 95.1244 49.3457 98.5829 49.8046 101.562 49.8046 104.515 49.8046 107.473 49.8505 110.435 49.7879 111.599 49.7712 114.04 49.2289 115.121 49.8672 118.066 51.6361 115.876 58.1235 116.176 60.8811" transform="matrix(1.00374 0 0 1 957.749 555.914)"/><path d="M115.375 72.4666C115.709 75.3995 112.851 74.7278 111.558 75.3744 107.294 77.5188 103.135 77.4938 99.2254 74.7612 99.0377 74.6277 98.8499 74.5943 98.6789 74.6193 95.7627 74.2021 96.8683 69.5921 96.8432 67.1849 96.8057 64.7235 96.9767 62.3038 97.0018 59.8507 98.6622 59.6129 100.339 59.4585 102.029 59.3584 100.602 59.7422 99.3589 60.5056 98.5329 61.7656 98.3994 61.9783 98.3702 62.1911 98.4244 62.3705 98.4244 65.7289 98.5245 69.1082 98.3118 72.4583 98.2867 72.9255 98.5955 73.1883 98.9501 73.2467 99.0544 73.3427 99.1712 73.4095 99.3255 73.4095 99.3255 73.4095 107.261 73.4095 111.132 73.4095 111.395 73.4095 111.708 73.2718 111.862 73.0465 112.025 72.9339 112.133 72.7711 112.133 72.5584 112.133 69.1582 111.787 65.7289 112.188 62.5123 112.213 62.3246 112.167 62.1911 112.108 62.0618 112.1 61.8866 112.025 61.6988 111.837 61.5361 110.494 60.4139 108.425 59.5461 106.293 59.2123 109.013 59.1706 111.754 59.2123 114.474 59.2123 114.474 59.229 114.474 59.2541 114.474 59.2666 114.507 62.504 115.062 65.6371 115.012 68.8829 114.983 70.0677 115.25 71.2943 115.375 72.4666" fill="#666666" transform="matrix(1.00374 0 0 1 957.749 555.914)"/><path d="M113.31 51.4567C115.204 51.44 114.858 55.0446 114.612 57.5144 108.875 57.5144 102.78 57.36 97.0018 58.1527 96.9934 57.7689 96.9767 57.3767 96.9601 56.9845 96.8933 55.6912 96.8182 54.3979 96.7139 53.113 96.5512 51.0145 101.637 51.5068 102.726 51.5068 106.255 51.5068 109.78 51.4901 113.31 51.4567" fill="#4D4D4D" transform="matrix(1.00374 0 0 1 957.749 555.914)"/><path d="M110.381 34.3851C112.083 34.3851 112.083 36.0873 110.381 36.0873 106.981 36.0873 100.177 35.8829 100.177 35.8829 99.3255 35.8829 99.3255 34.1807 100.177 34.1807 103.577 34.1807 106.981 34.3851 110.381 34.3851" transform="matrix(1.00374 0 0 1 957.749 555.914)"/><path d="M110.435 36.8341C111.533 36.8174 111.478 38.5195 110.381 38.5362 107.211 38.5779 101.028 38.8616 101.028 38.8616 99.3255 38.8616 99.3255 37.1595 101.028 37.1595 103.577 37.1595 107.269 36.8758 110.435 36.8341" transform="matrix(1.00374 0 0 1 957.749 555.914)"/><path d="M110.381 40.1341C111.478 40.1341 111.478 41.8362 110.381 41.8362 107.152 41.8362 103.936 41.6318 100.702 41.8362 99.6134 41.8946 99.6134 40.1966 100.702 40.1341 103.936 39.9296 107.152 40.1341 110.381 40.1341" transform="matrix(1.00374 0 0 1 957.749 555.914)"/><path d="M110.469 62.6166C110.152 65.3743 110.356 68.3406 110.427 71.2567 110.331 71.3694 110.281 71.5237 110.281 71.7073 106.948 71.7073 103.689 71.7073 100.047 71.7073 100.202 68.6368 100.122 65.5495 100.122 62.479 102.2 59.6295 108.078 60.7768 110.469 62.6166" fill="#85EF20" transform="matrix(1.00374 0 0 1 957.749 555.914)"/><path d="M27.2553 103.673C28.6404 101.708 28.6654 98.4703 26.5669 96.9183 24.5686 95.4415 21.3854 95.575 19.9127 97.6526 18.6736 99.4048 18.8363 102.5 20.4342 104.006 22.0821 105.554 25.6282 105.513 27.1176 103.844 27.1343 103.827 27.1426 103.81 27.151 103.785 27.1885 103.752 27.2219 103.714 27.2553 103.673ZM27.2553 94.3192C28.6404 92.3542 28.6654 89.1126 26.5669 87.5648 24.5686 86.0838 21.3854 86.2215 19.9127 88.2949 18.6736 90.0472 18.8363 93.1427 20.4342 94.6488 22.0821 96.1966 25.6282 96.1549 27.1176 94.4861 27.1343 94.4694 27.1426 94.4527 27.151 94.4277 27.1885 94.3943 27.2219 94.3609 27.2553 94.3192ZM27.2553 84.9616C28.6404 82.9966 28.6654 79.755 26.5669 78.2072 24.5686 76.7262 21.3854 76.8638 19.9127 78.9373 18.6736 80.6895 18.8363 83.7892 20.4342 85.2911 22.0821 86.8389 25.6282 86.7972 27.1176 85.1326 27.1343 85.1159 27.1426 85.0951 27.151 85.07 27.1885 85.0367 27.2219 85.0033 27.2553 84.9616ZM27.2553 75.6039C28.6404 73.6389 28.6654 70.3973 26.5669 68.8495 24.5686 67.3727 21.3854 67.5062 19.9127 69.5838 18.6736 71.336 18.8363 74.4316 20.4342 75.9377 22.0821 77.4854 25.6282 77.4437 27.1176 75.7749 27.1343 75.7583 27.1426 75.7416 27.151 75.7165 27.1885 75.679 27.2219 75.6456 27.2553 75.6039ZM41.7152 103.673C43.1003 101.708 43.1253 98.4703 41.0269 96.9183 39.0285 95.4415 35.8453 95.575 34.3726 97.6526 33.1335 99.4048 33.2921 102.5 34.8941 104.006 36.542 105.554 40.0882 105.513 41.5776 103.844 41.5942 103.827 41.6026 103.81 41.6151 103.785 41.6485 103.752 41.6819 103.714 41.7152 103.673ZM41.7152 94.3192C43.1003 92.3542 43.1253 89.1126 41.0269 87.5648 39.0285 86.0838 35.8453 86.2215 34.3726 88.2949 33.1335 90.0472 33.2921 93.1427 34.8941 94.6488 36.542 96.1966 40.0882 96.1549 41.5776 94.4861 41.5942 94.4694 41.6026 94.4527 41.6151 94.4277 41.6485 94.3943 41.6819 94.3609 41.7152 94.3192ZM41.7152 84.9616C43.1003 82.9966 43.1253 79.755 41.0269 78.2072 39.0285 76.7262 35.8453 76.8638 34.3726 78.9373 33.1335 80.6895 33.2921 83.7892 34.8941 85.2911 36.542 86.8389 40.0882 86.7972 41.5776 85.1326 41.5942 85.1159 41.6026 85.0951 41.6151 85.07 41.6485 85.0367 41.6819 85.0033 41.7152 84.9616ZM41.7152 75.6039C43.1003 73.6389 43.1253 70.3973 41.0269 68.8495 39.0285 67.3727 35.8453 67.5062 34.3726 69.5838 33.1335 71.336 33.2921 74.4316 34.8941 75.9377 36.542 77.4854 40.0882 77.4437 41.5776 75.7749 41.5942 75.7583 41.6026 75.7416 41.6151 75.7165 41.6485 75.679 41.6819 75.6456 41.7152 75.6039ZM56.1752 103.673C57.5603 101.708 57.5853 98.4703 55.4868 96.9183 53.4884 95.4415 50.3053 95.575 48.8326 97.6526 47.5935 99.4048 47.7562 102.5 49.354 104.006 51.002 105.554 54.5523 105.513 56.0375 103.844 56.0542 103.827 56.0625 103.81 56.075 103.785 56.1084 103.752 56.1418 103.714 56.1752 103.673ZM56.1752 94.3192C57.5603 92.3542 57.5853 89.1126 55.4868 87.5648 53.4884 86.0838 50.3053 86.2215 48.8326 88.2949 47.5935 90.0472 47.7562 93.1427 49.354 94.6488 51.002 96.1966 54.5523 96.1549 56.0375 94.4861 56.0542 94.4694 56.0625 94.4527 56.075 94.4277 56.1084 94.3943 56.1418 94.3609 56.1752 94.3192ZM56.1752 84.9616C57.5603 82.9966 57.5853 79.755 55.4868 78.2072 53.4884 76.7262 50.3053 76.8638 48.8326 78.9373 47.5935 80.6895 47.7562 83.7892 49.354 85.2911 51.002 86.8389 54.5523 86.7972 56.0375 85.1326 56.0542 85.1159 56.0625 85.0951 56.075 85.07 56.1084 85.0367 56.1418 85.0033 56.1752 84.9616ZM56.1752 75.6039C57.5603 73.6389 57.5853 70.3973 55.4868 68.8495 53.4884 67.3727 50.3053 67.5062 48.8326 69.5838 47.5935 71.336 47.7562 74.4316 49.354 75.9377 51.002 77.4854 54.5523 77.4437 56.0375 75.7749 56.0542 75.7583 56.0625 75.7416 56.075 75.7165 56.1084 75.679 56.1418 75.6456 56.1752 75.6039ZM69.054 63.1673C70.6435 60.1218 69.4461 53.6345 69.2333 50.9102 68.9413 47.2889 68.7536 43.7344 68.8579 40.1007 68.9413 37.0719 69.4169 33.6467 68.9914 30.6512 68.933 30.234 68.6451 30.0463 68.3197 30.0463 68.2529 30.0046 68.1778 29.9712 68.0819 29.9545 60.0217 28.7614 51.3608 29.6041 43.213 29.6041 35.7869 29.6041 28.2315 28.6028 20.843 29.6416 20.3758 29.7 20.2047 30.0547 20.2464 30.4218 20.1713 30.5386 20.1088 30.6846 20.1171 30.8807 20.2381 33.993 20.0754 37.414 20.7471 40.4595 21.0558 41.8279 20.6386 43.6301 20.5927 45.0361 20.5009 47.7061 20.5093 50.3845 20.5176 53.0546 20.5176 56.3128 20.3215 59.5878 20.3549 62.8127 20.3758 64.3021 21.7942 64.7861 22.9957 64.8612 30.8682 65.3284 38.9492 64.6234 46.8592 64.59 51.0312 64.5733 55.1948 64.5816 59.3667 64.5816 61.9074 64.5816 66.5591 65.6371 68.7035 64.0434 69.0373 63.7973 69.1207 63.4594 69.054 63.1673ZM70.6351 103.673C72.0202 101.708 72.0452 98.4703 69.9467 96.9183 67.9484 95.4415 64.7652 95.575 63.2925 97.6526 62.0534 99.4048 62.2161 102.5 63.814 104.006 65.4619 105.554 69.0081 105.513 70.4974 103.844 70.5141 103.827 70.5225 103.81 70.5308 103.785 70.5684 103.752 70.6017 103.714 70.6351 103.673ZM70.6351 94.3192C72.0202 92.3542 72.0452 89.1126 69.9467 87.5648 67.9484 86.0838 64.7652 86.2215 63.2925 88.2949 62.0534 90.0472 62.2161 93.1427 63.814 94.6488 65.4619 96.1966 69.0081 96.1549 70.4974 94.4861 70.5141 94.4694 70.5225 94.4527 70.5308 94.4277 70.5684 94.3943 70.6017 94.3609 70.6351 94.3192ZM70.6351 84.9616C72.0202 82.9966 72.0452 79.755 69.9467 78.2072 67.9484 76.7262 64.7652 76.8638 63.2925 78.9373 62.0534 80.6895 62.2161 83.7892 63.814 85.2911 65.4619 86.8389 69.0081 86.7972 70.4974 85.1326 70.5141 85.1159 70.5225 85.0951 70.5308 85.07 70.5684 85.0367 70.6017 85.0033 70.6351 84.9616ZM70.6351 75.6039C72.0202 73.6389 72.0452 70.3973 69.9467 68.8495 67.9484 67.3727 64.7652 67.5062 63.2925 69.5838 62.0534 71.336 62.2161 74.4316 63.814 75.9377 65.4619 77.4854 69.0081 77.4437 70.4974 75.7749 70.5141 75.7583 70.5225 75.7416 70.5308 75.7165 70.5684 75.679 70.6017 75.6456 70.6351 75.6039ZM76.0795 89.4255C76.4174 92.5545 75.654 95.575 75.654 98.6455 75.654 100.723 75.9835 107.202 73.9852 108.558 60.4347 108.633 46.8592 108.708 33.2253 108.708 28.1314 108.658 23.0208 108.037 17.9143 108.291 15.1441 106.752 15.3653 99.5633 15.2776 97.1436 15.1692 93.6183 15.1191 90.0805 15.1191 86.5594 15.1191 79.0499 15.1191 71.5404 15.1191 64.0268 15.1191 58.1527 15.1441 52.2577 15.8075 46.4045 16.1037 43.7845 15.9994 41.0644 15.9994 38.4236 15.9994 34.3184 14.7603 27.8519 20.8764 27.9061 21.0391 27.9061 21.1643 27.8602 21.2852 27.8018 22.2281 27.8268 23.1376 27.8519 23.9636 27.8519 25.4864 27.8519 27.0675 27.4806 28.6153 27.4806 34.6313 27.4806 40.643 27.4806 46.6465 27.4806 55.6328 27.4806 64.64 27.9645 73.6473 28.1773 73.7057 28.2941 73.7974 28.4067 73.9435 28.4985 76.6803 30.1423 75.4579 35.8078 75.3661 38.3902 75.2618 41.4774 75.2284 44.5939 75.2284 47.6811 75.2284 55.3533 76.0378 63.5345 75.0824 71.1399 74.3356 77.1016 75.4162 83.4972 76.0795 89.4255" fill="#808080" transform="matrix(1.00374 0 0 1 957.749 555.914)"/><path d="M69.25 74.6193C70.0636 73.326 70.3556 70.8062 68.6201 70.1178 67.1724 69.5462 65.5161 69.1082 64.5441 70.7645 63.985 71.724 63.9934 74.2272 65.1574 74.8112 66.3547 75.4078 68.2446 75.6623 69.25 74.6193ZM69.9467 68.8495C72.0452 70.3973 72.0202 73.6389 70.6351 75.6039 70.6017 75.6456 70.5684 75.679 70.5308 75.7165 70.5225 75.7416 70.5141 75.7583 70.4974 75.7749 69.0081 77.4437 65.4619 77.4854 63.814 75.9377 62.2161 74.4316 62.0534 71.336 63.2925 69.5838 64.7652 67.5062 67.9484 67.3727 69.9467 68.8495" transform="matrix(1.00374 0 0 1 957.749 555.914)"/><path d="M69.25 83.9728C70.0636 82.6795 70.3556 80.1638 68.6201 79.4755 67.1724 78.9039 65.5161 78.4617 64.5441 80.1221 63.985 81.0817 63.9934 83.5848 65.1574 84.1689 66.3547 84.7655 68.2446 85.02 69.25 83.9728ZM69.9467 78.2072C72.0452 79.755 72.0202 82.9966 70.6351 84.9616 70.6017 85.0033 70.5684 85.0367 70.5308 85.07 70.5225 85.0951 70.5141 85.1159 70.4974 85.1326 69.0081 86.7972 65.4619 86.8389 63.814 85.2911 62.2161 83.7892 62.0534 80.6895 63.2925 78.9373 64.7652 76.8638 67.9484 76.7262 69.9467 78.2072" transform="matrix(1.00374 0 0 1 957.749 555.914)"/><path d="M69.25 93.3305C70.0636 92.0372 70.3556 89.5215 68.6201 88.8289 67.1724 88.2616 65.5161 87.8193 64.5441 89.4798 63.985 90.4393 63.9934 92.9383 65.1574 93.5266 66.3547 94.1231 68.2446 94.3776 69.25 93.3305ZM69.9467 87.5648C72.0452 89.1126 72.0202 92.3542 70.6351 94.3192 70.6017 94.3609 70.5684 94.3943 70.5308 94.4277 70.5225 94.4527 70.5141 94.4694 70.4974 94.4861 69.0081 96.1549 65.4619 96.1966 63.814 94.6488 62.2161 93.1427 62.0534 90.0472 63.2925 88.2949 64.7652 86.2215 67.9484 86.0838 69.9467 87.5648" transform="matrix(1.00374 0 0 1 957.749 555.914)"/><path d="M69.25 102.688C70.0636 101.395 70.3556 98.875 68.6201 98.1866 67.1724 97.6192 65.5161 97.177 64.5441 98.8333 63.985 99.797 63.9934 102.296 65.1574 102.884 66.3547 103.477 68.2446 103.735 69.25 102.688ZM69.9467 96.9183C72.0452 98.4703 72.0202 101.708 70.6351 103.673 70.6017 103.714 70.5684 103.752 70.5308 103.785 70.5225 103.81 70.5141 103.827 70.4974 103.844 69.0081 105.513 65.4619 105.554 63.814 104.006 62.2161 102.5 62.0534 99.4048 63.2925 97.6526 64.7652 95.575 67.9484 95.4415 69.9467 96.9183" transform="matrix(1.00374 0 0 1 957.749 555.914)"/><path d="M68.6201 70.1178C70.3556 70.8062 70.0636 73.326 69.25 74.6193 68.2446 75.6623 66.3547 75.4078 65.1574 74.8112 63.9934 74.2272 63.985 71.724 64.5441 70.7645 65.5161 69.1082 67.1724 69.5462 68.6201 70.1178" fill="#4D4D4D" transform="matrix(1.00374 0 0 1 957.749 555.914)"/><path d="M68.6201 79.4755C70.3556 80.1638 70.0636 82.6795 69.25 83.9728 68.2446 85.02 66.3547 84.7655 65.1574 84.1689 63.9934 83.5848 63.985 81.0817 64.5441 80.1221 65.5161 78.4617 67.1724 78.9039 68.6201 79.4755" fill="#4D4D4D" transform="matrix(1.00374 0 0 1 957.749 555.914)"/><path d="M68.6201 88.8289C70.3556 89.5215 70.0636 92.0372 69.25 93.3305 68.2446 94.3776 66.3547 94.1231 65.1574 93.5266 63.9934 92.9383 63.985 90.4393 64.5441 89.4798 65.5161 87.8193 67.1724 88.2616 68.6201 88.8289" fill="#4D4D4D" transform="matrix(1.00374 0 0 1 957.749 555.914)"/><path d="M68.6201 98.1866C70.3556 98.875 70.0636 101.395 69.25 102.688 68.2446 103.735 66.3547 103.477 65.1574 102.884 63.9934 102.296 63.985 99.797 64.5441 98.8333 65.5161 97.177 67.1724 97.6192 68.6201 98.1866" fill="#4D4D4D" transform="matrix(1.00374 0 0 1 957.749 555.914)"/><path d="M67.2517 62.8127C68.2112 61.849 67.8775 58.2862 67.8524 57.0346 67.8024 53.9557 67.4895 50.9185 67.285 47.848 66.9263 42.5413 68.0402 36.8174 67.3935 31.5691 59.567 30.4552 51.1063 31.3062 43.213 31.3062 36.1248 31.3062 28.8949 30.33 21.8276 31.2228 21.9569 34.5729 22.0404 38.0272 22.6203 41.3272 23.0625 43.8429 22.2281 47.2472 22.2198 49.8839 22.2114 53.1338 22.7371 56.7801 22.3199 60.005 21.9319 63.0338 24.6353 63.5845 27.0175 63.4343 34.1181 62.9546 41.273 63.2007 48.3903 63.2007 52.0491 63.2007 55.7079 63.2007 59.3667 63.2007 61.1106 63.2007 64.978 63.7806 67.0556 63.1173 67.089 63.0172 67.1557 62.9129 67.2517 62.8127ZM69.2333 50.9102C69.4461 53.6345 70.6435 60.1218 69.054 63.1673 69.1207 63.4594 69.0373 63.7973 68.7035 64.0434 66.5591 65.6371 61.9074 64.5816 59.3667 64.5816 55.1948 64.5816 51.0312 64.5733 46.8592 64.59 38.9492 64.6234 30.8682 65.3284 22.9957 64.8612 21.7942 64.7861 20.3758 64.3021 20.3549 62.8127 20.3215 59.5878 20.5176 56.3128 20.5176 53.0546 20.5093 50.3845 20.5009 47.7061 20.5927 45.0361 20.6386 43.6301 21.0558 41.8279 20.7471 40.4595 20.0754 37.414 20.2381 33.993 20.1171 30.8807 20.1088 30.6846 20.1713 30.5386 20.2464 30.4218 20.2047 30.0547 20.3758 29.7 20.843 29.6416 28.2315 28.6028 35.7869 29.6041 43.213 29.6041 51.3608 29.6041 60.0217 28.7614 68.0819 29.9545 68.1778 29.9712 68.2529 30.0046 68.3197 30.0463 68.6451 30.0463 68.933 30.234 68.9914 30.6512 69.4169 33.6467 68.9413 37.0719 68.8579 40.1007 68.7536 43.7344 68.9413 47.2889 69.2333 50.9102" transform="matrix(1.00374 0 0 1 957.749 555.914)"/><path d="M62.4289 60.151C62.8086 51.5652 62.5374 42.7874 62.5374 34.2808 62.5374 33.8595 62.1035 33.6467 61.678 33.6467 61.4986 33.5841 61.2941 33.5341 61.048 33.5341 49.9924 33.5341 38.3652 33.5007 27.0008 33.2212 26.5502 33.2128 26.3041 33.4923 26.2415 33.8303 26.0454 33.9596 25.9203 34.1724 25.962 34.4936 27.0175 42.9668 26.3708 50.9895 26.1748 59.4793 26.1664 59.7589 26.2665 59.9633 26.4209 60.0968 26.5085 60.4055 26.7004 60.6517 27.0258 60.6517 27.0258 60.6517 38.7907 60.4389 44.6773 60.4389 50.1342 60.4389 55.9457 61.1773 61.048 61.1773 61.703 61.1773 62.0952 60.9312 62.2495 60.6266 62.3496 60.4973 62.4164 60.3471 62.4289 60.151ZM67.8524 57.0346C67.8775 58.2862 68.2112 61.849 67.2517 62.8127 67.1557 62.9129 67.089 63.0172 67.0556 63.1173 64.978 63.7806 61.1106 63.2007 59.3667 63.2007 55.7079 63.2007 52.0491 63.2007 48.3903 63.2007 41.273 63.2007 34.1181 62.9546 27.0175 63.4343 24.6353 63.5845 21.9319 63.0338 22.3199 60.005 22.7371 56.7801 22.2114 53.1338 22.2198 49.8839 22.2281 47.2472 23.0625 43.8429 22.6203 41.3272 22.0404 38.0272 21.9569 34.5729 21.8276 31.2228 28.8949 30.33 36.1248 31.3062 43.213 31.3062 51.1063 31.3062 59.567 30.4552 67.3935 31.5691 68.0402 36.8174 66.9263 42.5413 67.285 47.848 67.4895 50.9185 67.8024 53.9557 67.8524 57.0346" fill="#999999" transform="matrix(1.00374 0 0 1 957.749 555.914)"/><path d="M60.7601 59.4793C61.048 51.9573 60.8978 38.8616 60.8519 35.2362 50.0591 35.2362 38.8074 35.2028 27.7059 34.9317 28.6654 43.0544 28.098 50.8017 27.8936 58.9412 33.5424 58.9161 39.0869 58.5907 44.6773 58.7367 50.0591 58.8744 55.7246 59.4501 60.7601 59.4793ZM62.5374 34.2808C62.5374 42.7874 62.8086 51.5652 62.4289 60.151 62.4164 60.3471 62.3496 60.4973 62.2495 60.6266 62.0952 60.9312 61.703 61.1773 61.048 61.1773 55.9457 61.1773 50.1342 60.4389 44.6773 60.4389 38.7907 60.4389 27.0258 60.6517 27.0258 60.6517 26.7004 60.6517 26.5085 60.4055 26.4209 60.0968 26.2665 59.9633 26.1664 59.7589 26.1748 59.4793 26.3708 50.9895 27.0175 42.9668 25.962 34.4936 25.9203 34.1724 26.0454 33.9596 26.2415 33.8303 26.3041 33.4923 26.5502 33.2128 27.0008 33.2212 38.3652 33.5007 49.9924 33.5341 61.048 33.5341 61.2941 33.5341 61.4986 33.5841 61.678 33.6467 62.1035 33.6467 62.5374 33.8595 62.5374 34.2808" transform="matrix(1.00374 0 0 1 957.749 555.914)"/><path d="M60.8519 35.2362C60.8978 38.8616 61.048 51.9573 60.7601 59.4793 55.7246 59.4501 50.0591 58.8744 44.6773 58.7367 39.0869 58.5907 33.5424 58.9161 27.8936 58.9412 28.098 50.8017 28.6654 43.0544 27.7059 34.9317 38.8074 35.2028 50.0591 35.2362 60.8519 35.2362" fill="#2156CC" transform="matrix(1.00374 0 0 1 957.749 555.914)"/><path d="M54.7901 74.6193C55.6036 73.326 55.8957 70.8062 54.1601 70.1178 52.7125 69.5462 51.0562 69.1082 50.0841 70.7645 49.5251 71.724 49.5334 74.2272 50.6974 74.8112 51.8948 75.4078 53.7847 75.6623 54.7901 74.6193ZM55.4868 68.8495C57.5853 70.3973 57.5603 73.6389 56.1752 75.6039 56.1418 75.6456 56.1084 75.679 56.075 75.7165 56.0625 75.7416 56.0542 75.7583 56.0375 75.7749 54.5523 77.4437 51.002 77.4854 49.354 75.9377 47.7562 74.4316 47.5935 71.336 48.8326 69.5838 50.3053 67.5062 53.4884 67.3727 55.4868 68.8495" transform="matrix(1.00374 0 0 1 957.749 555.914)"/><path d="M54.7901 83.9728C55.6036 82.6795 55.8957 80.1638 54.1601 79.4755 52.7125 78.9039 51.0562 78.4617 50.0841 80.1221 49.5251 81.0817 49.5334 83.5848 50.6974 84.1689 51.8948 84.7655 53.7847 85.02 54.7901 83.9728ZM55.4868 78.2072C57.5853 79.755 57.5603 82.9966 56.1752 84.9616 56.1418 85.0033 56.1084 85.0367 56.075 85.07 56.0625 85.0951 56.0542 85.1159 56.0375 85.1326 54.5523 86.7972 51.002 86.8389 49.354 85.2911 47.7562 83.7892 47.5935 80.6895 48.8326 78.9373 50.3053 76.8638 53.4884 76.7262 55.4868 78.2072" transform="matrix(1.00374 0 0 1 957.749 555.914)"/><path d="M54.7901 93.3305C55.6036 92.0372 55.8957 89.5215 54.1601 88.8289 52.7125 88.2616 51.0562 87.8193 50.0841 89.4798 49.5251 90.4393 49.5334 92.9383 50.6974 93.5266 51.8948 94.1231 53.7847 94.3776 54.7901 93.3305ZM55.4868 87.5648C57.5853 89.1126 57.5603 92.3542 56.1752 94.3192 56.1418 94.3609 56.1084 94.3943 56.075 94.4277 56.0625 94.4527 56.0542 94.4694 56.0375 94.4861 54.5523 96.1549 51.002 96.1966 49.354 94.6488 47.7562 93.1427 47.5935 90.0472 48.8326 88.2949 50.3053 86.2215 53.4884 86.0838 55.4868 87.5648" transform="matrix(1.00374 0 0 1 957.749 555.914)"/><path d="M54.7901 102.688C55.6036 101.395 55.8957 98.875 54.1601 98.1866 52.7125 97.6192 51.0562 97.177 50.0841 98.8333 49.5251 99.797 49.5334 102.296 50.6974 102.884 51.8948 103.477 53.7847 103.735 54.7901 102.688ZM55.4868 96.9183C57.5853 98.4703 57.5603 101.708 56.1752 103.673 56.1418 103.714 56.1084 103.752 56.075 103.785 56.0625 103.81 56.0542 103.827 56.0375 103.844 54.5523 105.513 51.002 105.554 49.354 104.006 47.7562 102.5 47.5935 99.4048 48.8326 97.6526 50.3053 95.575 53.4884 95.4415 55.4868 96.9183" transform="matrix(1.00374 0 0 1 957.749 555.914)"/><path d="M54.1601 70.1178C55.8957 70.8062 55.6036 73.326 54.7901 74.6193 53.7847 75.6623 51.8948 75.4078 50.6974 74.8112 49.5334 74.2272 49.5251 71.724 50.0841 70.7645 51.0562 69.1082 52.7125 69.5462 54.1601 70.1178" fill="#4D4D4D" transform="matrix(1.00374 0 0 1 957.749 555.914)"/><path d="M54.1601 79.4755C55.8957 80.1638 55.6036 82.6795 54.7901 83.9728 53.7847 85.02 51.8948 84.7655 50.6974 84.1689 49.5334 83.5848 49.5251 81.0817 50.0841 80.1221 51.0562 78.4617 52.7125 78.9039 54.1601 79.4755" fill="#4D4D4D" transform="matrix(1.00374 0 0 1 957.749 555.914)"/><path d="M54.1601 88.8289C55.8957 89.5215 55.6036 92.0372 54.7901 93.3305 53.7847 94.3776 51.8948 94.1231 50.6974 93.5266 49.5334 92.9383 49.5251 90.4393 50.0841 89.4798 51.0562 87.8193 52.7125 88.2616 54.1601 88.8289" fill="#4D4D4D" transform="matrix(1.00374 0 0 1 957.749 555.914)"/><path d="M54.1601 98.1866C55.8957 98.875 55.6036 101.395 54.7901 102.688 53.7847 103.735 51.8948 103.477 50.6974 102.884 49.5334 102.296 49.5251 99.797 50.0841 98.8333 51.0562 97.177 52.7125 97.6192 54.1601 98.1866" fill="#4D4D4D" transform="matrix(1.00374 0 0 1 957.749 555.914)"/><path d="M40.3301 74.6193C41.1437 73.326 41.4357 70.8062 39.7002 70.1178 38.2525 69.5462 36.5963 69.1082 35.6242 70.7645 35.0652 71.724 35.0735 74.2272 36.2375 74.8112 37.4348 75.4078 39.3247 75.6623 40.3301 74.6193ZM41.0269 68.8495C43.1253 70.3973 43.1003 73.6389 41.7152 75.6039 41.6819 75.6456 41.6485 75.679 41.6151 75.7165 41.6026 75.7416 41.5942 75.7583 41.5776 75.7749 40.0882 77.4437 36.542 77.4854 34.8941 75.9377 33.2921 74.4316 33.1335 71.336 34.3726 69.5838 35.8453 67.5062 39.0285 67.3727 41.0269 68.8495" transform="matrix(1.00374 0 0 1 957.749 555.914)"/><path d="M40.3301 83.9728C41.1437 82.6795 41.4357 80.1638 39.7002 79.4755 38.2525 78.9039 36.5963 78.4617 35.6242 80.1221 35.0652 81.0817 35.0735 83.5848 36.2375 84.1689 37.4348 84.7655 39.3247 85.02 40.3301 83.9728ZM41.0269 78.2072C43.1253 79.755 43.1003 82.9966 41.7152 84.9616 41.6819 85.0033 41.6485 85.0367 41.6151 85.07 41.6026 85.0951 41.5942 85.1159 41.5776 85.1326 40.0882 86.7972 36.542 86.8389 34.8941 85.2911 33.2921 83.7892 33.1335 80.6895 34.3726 78.9373 35.8453 76.8638 39.0285 76.7262 41.0269 78.2072" transform="matrix(1.00374 0 0 1 957.749 555.914)"/><path d="M40.3301 93.3305C41.1437 92.0372 41.4357 89.5215 39.7002 88.8289 38.2525 88.2616 36.5963 87.8193 35.6242 89.4798 35.0652 90.4393 35.0735 92.9383 36.2375 93.5266 37.4348 94.1231 39.3247 94.3776 40.3301 93.3305ZM41.0269 87.5648C43.1253 89.1126 43.1003 92.3542 41.7152 94.3192 41.6819 94.3609 41.6485 94.3943 41.6151 94.4277 41.6026 94.4527 41.5942 94.4694 41.5776 94.4861 40.0882 96.1549 36.542 96.1966 34.8941 94.6488 33.2921 93.1427 33.1335 90.0472 34.3726 88.2949 35.8453 86.2215 39.0285 86.0838 41.0269 87.5648" transform="matrix(1.00374 0 0 1 957.749 555.914)"/><path d="M40.3301 102.688C41.1437 101.395 41.4357 98.875 39.7002 98.1866 38.2525 97.6192 36.5963 97.177 35.6242 98.8333 35.0652 99.797 35.0735 102.296 36.2375 102.884 37.4348 103.477 39.3247 103.735 40.3301 102.688ZM41.0269 96.9183C43.1253 98.4703 43.1003 101.708 41.7152 103.673 41.6819 103.714 41.6485 103.752 41.6151 103.785 41.6026 103.81 41.5942 103.827 41.5776 103.844 40.0882 105.513 36.542 105.554 34.8941 104.006 33.2921 102.5 33.1335 99.4048 34.3726 97.6526 35.8453 95.575 39.0285 95.4415 41.0269 96.9183" transform="matrix(1.00374 0 0 1 957.749 555.914)"/><path d="M39.7002 70.1178C41.4357 70.8062 41.1437 73.326 40.3301 74.6193 39.3247 75.6623 37.4348 75.4078 36.2375 74.8112 35.0735 74.2272 35.0652 71.724 35.6242 70.7645 36.5963 69.1082 38.2525 69.5462 39.7002 70.1178" fill="#4D4D4D" transform="matrix(1.00374 0 0 1 957.749 555.914)"/><path d="M39.7002 79.4755C41.4357 80.1638 41.1437 82.6795 40.3301 83.9728 39.3247 85.02 37.4348 84.7655 36.2375 84.1689 35.0735 83.5848 35.0652 81.0817 35.6242 80.1221 36.5963 78.4617 38.2525 78.9039 39.7002 79.4755" fill="#4D4D4D" transform="matrix(1.00374 0 0 1 957.749 555.914)"/><path d="M39.7002 88.8289C41.4357 89.5215 41.1437 92.0372 40.3301 93.3305 39.3247 94.3776 37.4348 94.1231 36.2375 93.5266 35.0735 92.9383 35.0652 90.4393 35.6242 89.4798 36.5963 87.8193 38.2525 88.2616 39.7002 88.8289" fill="#4D4D4D" transform="matrix(1.00374 0 0 1 957.749 555.914)"/><path d="M39.7002 98.1866C41.4357 98.875 41.1437 101.395 40.3301 102.688 39.3247 103.735 37.4348 103.477 36.2375 102.884 35.0735 102.296 35.0652 99.797 35.6242 98.8333 36.5963 97.177 38.2525 97.6192 39.7002 98.1866" fill="#4D4D4D" transform="matrix(1.00374 0 0 1 957.749 555.914)"/><path d="M25.8702 74.6193C26.6837 73.326 26.9758 70.8062 25.2402 70.1178 23.7926 69.5462 22.1321 69.1082 21.1643 70.7645 20.6052 71.724 20.6136 74.2272 21.7775 74.8112 22.9749 75.4078 24.8648 75.6623 25.8702 74.6193ZM26.5669 68.8495C28.6654 70.3973 28.6404 73.6389 27.2553 75.6039 27.2219 75.6456 27.1885 75.679 27.151 75.7165 27.1426 75.7416 27.1343 75.7583 27.1176 75.7749 25.6282 77.4437 22.0821 77.4854 20.4342 75.9377 18.8363 74.4316 18.6736 71.336 19.9127 69.5838 21.3854 67.5062 24.5686 67.3727 26.5669 68.8495" transform="matrix(1.00374 0 0 1 957.749 555.914)"/><path d="M25.8702 83.9728C26.6837 82.6795 26.9758 80.1638 25.2402 79.4755 23.7926 78.9039 22.1321 78.4617 21.1643 80.1221 20.6052 81.0817 20.6136 83.5848 21.7775 84.1689 22.9749 84.7655 24.8648 85.02 25.8702 83.9728ZM26.5669 78.2072C28.6654 79.755 28.6404 82.9966 27.2553 84.9616 27.2219 85.0033 27.1885 85.0367 27.151 85.07 27.1426 85.0951 27.1343 85.1159 27.1176 85.1326 25.6282 86.7972 22.0821 86.8389 20.4342 85.2911 18.8363 83.7892 18.6736 80.6895 19.9127 78.9373 21.3854 76.8638 24.5686 76.7262 26.5669 78.2072" transform="matrix(1.00374 0 0 1 957.749 555.914)"/><path d="M25.8702 93.3305C26.6837 92.0372 26.9758 89.5215 25.2402 88.8289 23.7926 88.2616 22.1321 87.8193 21.1643 89.4798 20.6052 90.4393 20.6136 92.9383 21.7775 93.5266 22.9749 94.1231 24.8648 94.3776 25.8702 93.3305ZM26.5669 87.5648C28.6654 89.1126 28.6404 92.3542 27.2553 94.3192 27.2219 94.3609 27.1885 94.3943 27.151 94.4277 27.1426 94.4527 27.1343 94.4694 27.1176 94.4861 25.6282 96.1549 22.0821 96.1966 20.4342 94.6488 18.8363 93.1427 18.6736 90.0472 19.9127 88.2949 21.3854 86.2215 24.5686 86.0838 26.5669 87.5648" transform="matrix(1.00374 0 0 1 957.749 555.914)"/><path d="M25.8702 102.688C26.6837 101.395 26.9758 98.875 25.2402 98.1866 23.7926 97.6192 22.1321 97.177 21.1643 98.8333 20.6052 99.797 20.6136 102.296 21.7775 102.884 22.9749 103.477 24.8648 103.735 25.8702 102.688ZM26.5669 96.9183C28.6654 98.4703 28.6404 101.708 27.2553 103.673 27.2219 103.714 27.1885 103.752 27.151 103.785 27.1426 103.81 27.1343 103.827 27.1176 103.844 25.6282 105.513 22.0821 105.554 20.4342 104.006 18.8363 102.5 18.6736 99.4048 19.9127 97.6526 21.3854 95.575 24.5686 95.4415 26.5669 96.9183" transform="matrix(1.00374 0 0 1 957.749 555.914)"/><path d="M25.2402 70.1178C26.9758 70.8062 26.6837 73.326 25.8702 74.6193 24.8648 75.6623 22.9749 75.4078 21.7775 74.8112 20.6136 74.2272 20.6052 71.724 21.1643 70.7645 22.1321 69.1082 23.7926 69.5462 25.2402 70.1178" fill="#4D4D4D" transform="matrix(1.00374 0 0 1 957.749 555.914)"/><path d="M25.2402 79.4755C26.9758 80.1638 26.6837 82.6795 25.8702 83.9728 24.8648 85.02 22.9749 84.7655 21.7775 84.1689 20.6136 83.5848 20.6052 81.0817 21.1643 80.1221 22.1321 78.4617 23.7926 78.9039 25.2402 79.4755" fill="#4D4D4D" transform="matrix(1.00374 0 0 1 957.749 555.914)"/><path d="M25.2402 88.8289C26.9758 89.5215 26.6837 92.0372 25.8702 93.3305 24.8648 94.3776 22.9749 94.1231 21.7775 93.5266 20.6136 92.9383 20.6052 90.4393 21.1643 89.4798 22.1321 87.8193 23.7926 88.2616 25.2402 88.8289" fill="#4D4D4D" transform="matrix(1.00374 0 0 1 957.749 555.914)"/><path d="M25.2402 98.1866C26.9758 98.875 26.6837 101.395 25.8702 102.688 24.8648 103.735 22.9749 103.477 21.7775 102.884 20.6136 102.296 20.6052 99.797 21.1643 98.8333 22.1321 97.177 23.7926 97.6192 25.2402 98.1866" fill="#4D4D4D" transform="matrix(1.00374 0 0 1 957.749 555.914)"/><path d="M14.2513 103.155C14.5058 105.041 14.2931 106.994 15.2443 108.412 11.5771 108.387 9.16158 106.422 9.16158 102.354 9.16158 101.107 9.16158 99.8637 9.16158 98.6205 9.16158 89.4798 9.29925 80.3349 9.27422 71.1816 9.25753 65.7539 9.37435 60.3179 9.37435 54.886 9.37435 50.6724 9.80823 46.3961 9.63301 42.2117 9.4703 38.3735 7.97258 30.6346 12.1904 28.7697 13.3043 28.2774 14.6727 28.0313 16.1037 27.8936 13.9677 30.234 14.4015 34.5979 14.4015 38.4236 14.4015 46.0207 13.8425 53.551 13.8425 61.1606 13.8425 71.1316 13.8926 81.0983 13.8342 91.0693 13.8049 95.1161 13.7048 99.1336 14.2513 103.155" fill="#4D4D4D" transform="matrix(1.00374 0 0 1 957.749 555.914)"/><path d="M81.4613 71.4236C81.0316 65.8082 81.6699 59.9424 80.7938 54.3979 79.7591 47.8522 79.9219 41.2939 80.4684 34.7064 80.5602 33.6133 78.858 33.6217 78.7704 34.7064 78.2739 40.6681 78.6077 46.246 78.8121 52.1826 78.9206 55.4034 79.3378 58.5365 79.3378 61.7864 79.3378 65.0364 79.513 68.1904 79.7633 71.4236 79.8468 72.5125 81.5447 72.5208 81.4613 71.4236" fill="#FFFFFF" transform="matrix(1.00374 0 0 1 957.749 555.914)"/><path d="M80.4684 31.0225C80.4684 30.9767 80.4684 30.9266 80.4684 30.8807 80.4684 29.7835 78.7704 29.7835 78.7704 30.8807 78.7704 30.9266 78.7704 30.9767 78.7704 31.0225 78.7704 32.1198 80.4684 32.1198 80.4684 31.0225" fill="#FFFFFF" transform="matrix(1.00374 0 0 1 957.749 555.914)"/><path d="M80.047 79.0791C80.4809 83.4513 80.1889 87.9445 80.1889 92.3375 80.1889 94.2233 79.8551 95.9838 79.9344 97.8987 80.0011 99.4757 79.8134 102.638 79.2251 104.09 78.8121 105.104 80.46 105.546 80.8647 104.54 82.1372 101.399 81.8868 96.547 81.8868 93.2554 81.8868 88.5619 82.2122 83.7517 81.745 79.0791 81.6365 77.9986 79.9344 77.9902 80.047 79.0791" fill="#FFFFFF" transform="matrix(1.00374 0 0 1 957.749 555.914)"/><path d="M117.048 101.336C117.06 101.17 117.394 100.915 117.507 100.807 118.279 100.026 117.077 98.8249 116.301 99.6009 115.805 100.102 115.408 100.615 115.346 101.336 115.304 101.8 115.763 102.188 116.197 102.188 116.689 102.188 117.006 101.8 117.048 101.336" fill="#FFFFFF" transform="matrix(1.00374 0 0 1 957.749 555.914)"/><path d="M113.677 101.512C114.453 100.619 115.275 99.7636 116.009 98.8333 116.714 97.9405 117.173 96.8307 117.932 95.9838 118.662 95.1703 117.461 93.9646 116.727 94.7823 116.08 95.5041 115.621 96.376 115.079 97.1812 114.315 98.3118 113.372 99.2797 112.476 100.31 111.758 101.136 112.955 102.342 113.677 101.512" fill="#FFFFFF" transform="matrix(1.00374 0 0 1 957.749 555.914)"/><path d="M112.117 98.9626C112.642 98.3577 113.03 97.6568 113.385 96.9475 113.723 96.2717 114.561 95.7919 115.095 95.2746 115.888 94.5153 114.682 93.3138 113.894 94.0731 113.322 94.6238 112.692 95.0869 112.196 95.7126 111.695 96.3426 111.445 97.1436 110.915 97.7569 110.202 98.5871 111.399 99.7928 112.117 98.9626" fill="#FFFFFF" transform="matrix(1.00374 0 0 1 957.749 555.914)"/><path d="M111.374 95.5249C111.328 95.6376 111.341 95.625 111.407 95.4915 111.453 95.4123 111.499 95.3288 111.541 95.2454 112.058 94.2775 110.59 93.4181 110.072 94.386 109.868 94.7656 109.71 95.0869 109.672 95.5249 109.634 95.988 110.089 96.376 110.523 96.376 111.019 96.376 111.337 95.988 111.374 95.5249" fill="#FFFFFF" transform="matrix(1.00374 0 0 1 957.749 555.914)"/><path d="M93.1135 34.285C93.3221 33.993 93.6475 33.7969 93.9437 33.6008 94.8491 32.9959 93.998 31.519 93.0843 32.1323 92.5295 32.4994 92.0372 32.8832 91.645 33.4298 91.3738 33.8052 91.5783 34.3726 91.9496 34.5937 92.3793 34.844 92.8424 34.6646 93.1135 34.285" fill="#FFFFFF" transform="matrix(1.00374 0 0 1 957.749 555.914)"/><path d="M93.2637 37.293C93.6809 36.7631 94.2024 36.3459 94.6822 35.8787 94.8991 35.6659 95.1536 35.4907 95.3914 35.2988 95.6209 35.111 95.6876 34.7397 95.9254 34.5937 96.8516 34.0097 96.0005 32.537 95.0702 33.1252 94.7573 33.3171 94.5403 33.5507 94.3443 33.8595 94.1523 34.1557 93.8937 34.3226 93.6183 34.5437 93.0635 34.9942 92.5044 35.5282 92.0622 36.0915 91.7743 36.4544 91.7034 36.9384 92.0622 37.293 92.3584 37.5934 92.9759 37.6601 93.2637 37.293" fill="#FFFFFF" transform="matrix(1.00374 0 0 1 957.749 555.914)"/><path d="M94.5403 40.4136C95.091 39.7377 95.7627 39.1829 96.3802 38.5696 97.1645 37.7978 95.9588 36.5963 95.1786 37.3681 94.5612 37.9772 93.8895 38.5362 93.3388 39.2121 93.0426 39.5667 92.9842 40.0631 93.3388 40.4136 93.6392 40.7181 94.2441 40.7724 94.5403 40.4136" fill="#FFFFFF" transform="matrix(1.00374 0 0 1 957.749 555.914)"/><path d="M95.9504 42.9334C96.0631 42.7248 96.2133 42.5663 96.3802 42.3994 96.5929 42.1867 96.8099 41.8446 96.9517 41.6902 97.6818 40.8767 96.4803 39.6668 95.746 40.4845 95.5458 40.714 95.3872 40.9726 95.1786 41.1937 94.92 41.4691 94.6655 41.7444 94.4778 42.0782 93.9437 43.0336 95.4123 43.893 95.9504 42.9334" fill="#FFFFFF" transform="matrix(1.00374 0 0 1 957.749 555.914)"/><path d="M16.8171 63.6304C16.8379 64.1019 16.9297 64.5775 16.9798 65.0447 17.0424 65.6038 17.2593 66.0794 17.6348 66.4966 18.3691 67.3184 19.5664 66.1086 18.8363 65.295 18.6694 65.1115 18.6694 64.8862 18.6569 64.6484 18.6361 64.3063 18.5318 63.9725 18.5192 63.6304 18.4775 62.5332 16.7754 62.529 16.8171 63.6304" fill="#FFFFFF" transform="matrix(1.00374 0 0 1 957.749 555.914)"/><path d="M19.0866 60.6517C19.0866 60.6517 19.7374 50.7767 19.3703 45.979 19.2869 44.8901 17.5847 44.9902 17.6682 46.0832 18.0395 50.8768 17.3845 55.5494 17.3845 60.6517 17.3845 61.5027 19.0866 61.5027 19.0866 60.6517 19.0866 60.6517 19.0866 61.5027 19.0866 60.6517" fill="#FFFFFF" transform="matrix(1.00374 0 0 1 957.749 555.914)"/><path d="M18.9448 42.22C18.9448 42.0824 18.9448 41.9405 18.9448 41.7987 18.9448 40.6973 17.2426 40.6973 17.2426 41.7987 17.2426 41.9405 17.2426 42.0824 17.2426 42.22 17.2426 43.3173 18.9448 43.3173 18.9448 42.22" fill="#FFFFFF" transform="matrix(1.00374 0 0 1 957.749 555.914)"/><path d="M32.8081 40.3218C32.9542 39.8921 33.5758 39.5333 33.9012 39.2371 34.4143 38.7782 35.0568 38.4778 35.5658 38.0022 36.371 37.2554 35.1653 36.0539 34.3643 36.8007 33.3046 37.7894 31.6734 38.3902 31.1686 39.8712 30.8098 40.91 32.4535 41.3523 32.8081 40.3218" fill="#FFFFFF" transform="matrix(1.00374 0 0 1 957.749 555.914)"/><path d="M32.4452 44.9485C33.6759 43.9639 34.9734 43.0669 36.1916 42.074 37.6309 40.8975 38.6322 39.5333 40.3552 38.7031 41.3439 38.2275 40.4803 36.759 39.4958 37.2346 37.9396 37.9855 36.93 39.0869 35.6367 40.205 34.2183 41.4315 32.7205 42.5663 31.2437 43.747 30.3884 44.4312 31.5983 45.6285 32.4452 44.9485" fill="#FFFFFF" transform="matrix(1.00374 0 0 1 957.749 555.914)"/><path d="M35.1403 46.7925C36.4628 45.5826 37.8729 44.5271 39.0827 43.1879 40.1341 42.024 41.6109 41.5817 42.5037 40.2425 43.1128 39.3247 41.6401 38.4736 41.0352 39.3831 40.2676 40.5387 38.7865 40.9226 37.877 41.9864 36.7047 43.3548 35.2571 44.3811 33.9387 45.591 33.1294 46.3336 34.3351 47.5309 35.1403 46.7925" fill="#FFFFFF" transform="matrix(1.00374 0 0 1 957.749 555.914)"/><path d="M38.653 46.926C39.2621 46.6047 39.7628 46.1417 40.2425 45.6577 41.0185 44.8817 39.817 43.6802 39.041 44.4562 38.6572 44.84 38.2817 45.1988 37.7936 45.4575 36.8257 45.9706 37.6851 47.4391 38.653 46.926" fill="#FFFFFF" transform="matrix(1.00374 0 0 1 957.749 555.914)"/><path d="M57.2474 58.1026C57.4101 57.8314 57.7063 57.5978 57.9065 57.3391 58.1402 57.0262 58.403 56.7134 58.6742 56.4338 59.4293 55.6412 58.2278 54.4355 57.4685 55.2281 57.1681 55.5452 56.922 55.9082 56.6216 56.2211 56.4839 56.3629 56.4005 56.5089 56.267 56.6466 56.0834 56.8302 55.9082 57.0221 55.7788 57.2432 55.2156 58.1902 56.6883 59.0455 57.2474 58.1026" fill="#FFFFFF" transform="matrix(1.00374 0 0 1 957.749 555.914)"/><path d="M54.4104 57.5352C54.9528 56.4088 55.9916 55.5786 56.73 54.5773 57.5436 53.4718 58.2194 52.2577 59.2415 51.3274 60.0551 50.5889 58.8452 49.3916 58.0359 50.1259 57.0221 51.0479 56.3003 52.2327 55.5243 53.3549 54.7275 54.5106 53.5552 55.3992 52.9419 56.68 52.4705 57.6604 53.939 58.524 54.4104 57.5352" fill="#FFFFFF" transform="matrix(1.00374 0 0 1 957.749 555.914)"/><path d="M52.6541 54.9236C52.9127 53.7513 54.5064 52.6499 55.2699 51.7529 56.0584 50.8309 56.7843 49.5752 57.6812 48.7783 58.5031 48.0482 57.2933 46.8467 56.4797 47.5726 55.4576 48.4821 54.6566 49.8589 53.7638 50.906 52.8335 51.9991 51.3399 53.0003 51.0145 54.473 50.7767 55.541 52.4163 55.9958 52.6541 54.9236" fill="#FFFFFF" transform="matrix(1.00374 0 0 1 957.749 555.914)"/><path d="M52.1451 50.3053C52.5247 49.7963 52.9461 49.3123 53.5385 49.0537 53.964 48.8659 54.0558 48.2527 53.8431 47.8897 53.5886 47.4558 53.1046 47.3974 52.6791 47.581 51.8197 47.9606 51.2231 48.7199 50.6766 49.4458 50.3929 49.8213 50.614 50.397 50.9811 50.614 51.415 50.8685 51.8656 50.6766 52.1451 50.3053" fill="#FFFFFF" transform="matrix(1.00374 0 0 1 957.749 555.914)"/><path d="M23.5172 73.8684C23.9261 73.3594 24.5268 73.1049 25.0442 72.7253 25.4196 72.4541 25.6032 71.991 25.3487 71.5655 25.1318 71.1942 24.5602 70.9856 24.1847 71.2567 23.5548 71.7157 22.8122 72.0452 22.3115 72.6669 22.0237 73.0298 21.9569 73.5138 22.3115 73.8684 22.6119 74.1687 23.2252 74.2313 23.5172 73.8684" fill="#FFFFFF" transform="matrix(1.00374 0 0 1 957.749 555.914)"/><path d="M38.2275 74.0019C38.5654 73.8267 38.8825 73.6139 39.2204 73.4345 40.1925 72.9255 39.333 71.4612 38.361 71.966 38.0231 72.1412 37.706 72.3581 37.3681 72.5333 36.396 73.0423 37.2596 74.5108 38.2275 74.0019" fill="#FFFFFF" transform="matrix(1.00374 0 0 1 957.749 555.914)"/><path d="M52.4288 73.5555C52.5289 73.3844 52.6958 73.3093 52.8627 73.1591 53.6762 72.4249 52.4705 71.2275 51.657 71.9576 51.4692 72.1287 51.1438 72.3832 50.9561 72.6961 50.397 73.6431 51.8697 74.4983 52.4288 73.5555" fill="#FFFFFF" transform="matrix(1.00374 0 0 1 957.749 555.914)"/><path d="M67.2016 72.4499C67.623 72.4082 67.8858 72.5333 68.0026 72.8296 67.9901 72.792 67.9651 72.5834 67.9859 72.7711 67.9734 72.6335 67.9734 72.4916 67.9734 72.354 67.9734 72.137 67.9901 71.9242 67.9943 71.7073 68.011 70.6101 66.313 70.6143 66.2963 71.7073 66.2796 72.6418 66.1878 74.3982 67.6522 74.0895 68.7285 73.8642 68.2738 72.2205 67.2016 72.4499" fill="#FFFFFF" transform="matrix(1.00374 0 0 1 957.749 555.914)"/><path d="M68.278 82.4834C68.278 82.1038 68.278 81.7283 68.278 81.3487 68.278 80.2514 66.5758 80.2514 66.5758 81.3487 66.5758 81.7283 66.5758 82.1038 66.5758 82.4834 66.5758 83.5807 68.278 83.5807 68.278 82.4834" fill="#FFFFFF" transform="matrix(1.00374 0 0 1 957.749 555.914)"/><path d="M68.1737 91.2362C68.1069 91.1611 68.1361 90.965 68.1361 90.8482 68.132 89.7509 66.434 89.7509 66.434 90.8482 66.4381 91.4573 66.5633 91.9704 66.968 92.4418 67.2725 92.7923 67.8608 92.7506 68.1737 92.4418 68.5158 92.0956 68.4741 91.5908 68.1737 91.2362" fill="#FFFFFF" transform="matrix(1.00374 0 0 1 957.749 555.914)"/><path d="M67.9943 101.053C67.9943 100.865 67.9943 100.677 67.9943 100.485 67.9943 99.3881 66.2963 99.3881 66.2963 100.485 66.2963 100.677 66.2963 100.865 66.2963 101.053 66.2963 102.15 67.9943 102.15 67.9943 101.053" fill="#FFFFFF" transform="matrix(1.00374 0 0 1 957.749 555.914)"/><path d="M52.7959 101.704C52.8168 101.662 53.0838 101.457 53.1589 101.391 53.3675 101.203 53.5385 101.003 53.7012 100.773 53.9766 100.402 53.768 99.8262 53.3967 99.6092 52.9669 99.3589 52.508 99.5425 52.2327 99.9138 52.0908 100.11 51.8614 100.268 51.6862 100.435 51.4358 100.673 51.2857 100.94 51.1563 101.253 50.9769 101.683 51.3441 102.188 51.7487 102.3 52.241 102.434 52.6165 102.133 52.7959 101.704" fill="#FFFFFF" transform="matrix(1.00374 0 0 1 957.749 555.914)"/><path d="M52.5664 92.5503C52.8543 91.9996 53.2173 91.549 53.7096 91.1652 54.0767 90.8815 54.0099 90.2599 53.7096 89.9637 53.3549 89.6049 52.8752 89.6758 52.508 89.9637 51.9156 90.4226 51.4442 91.0276 51.0979 91.6951 50.5973 92.6671 52.0658 93.5266 52.5664 92.5503" fill="#FFFFFF" transform="matrix(1.00374 0 0 1 957.749 555.914)"/><path d="M53.1088 82.4834C53.1171 82.3416 53.3383 82.183 53.43 82.0913 54.2018 81.3153 53.0003 80.1096 52.2243 80.8897 51.7654 81.3528 51.4525 81.8159 51.4108 82.4834 51.3774 82.9465 51.8197 83.3345 52.2577 83.3345 52.7458 83.3345 53.0796 82.9465 53.1088 82.4834" fill="#FFFFFF" transform="matrix(1.00374 0 0 1 957.749 555.914)"/><path d="M37.4306 82.7379C38.0856 82.9423 38.5487 82.521 39.0786 82.2248 40.0381 81.6908 39.1787 80.2222 38.2191 80.7562 38.0982 80.823 37.9855 80.9023 37.8687 80.9815 37.6184 81.1526 37.6518 81.0232 37.8854 81.0942 36.8341 80.7688 36.3877 82.4083 37.4306 82.7379" fill="#FFFFFF" transform="matrix(1.00374 0 0 1 957.749 555.914)"/><path d="M38.3693 92.5753C38.6822 92.3876 38.9409 92.0622 39.1078 91.8745 39.842 91.0609 38.6447 89.8552 37.9062 90.6729 37.7561 90.8356 37.6851 91.0025 37.5099 91.1068 36.5671 91.6659 37.4223 93.1344 38.3693 92.5753" fill="#FFFFFF" transform="matrix(1.00374 0 0 1 957.749 555.914)"/><path d="M38.4027 101.8C38.5904 101.608 38.7782 101.42 38.9659 101.232 39.7461 100.452 38.5404 99.2505 37.7644 100.026 37.5767 100.218 37.3889 100.406 37.197 100.594 36.421 101.37 37.6226 102.575 38.4027 101.8" fill="#FFFFFF" transform="matrix(1.00374 0 0 1 957.749 555.914)"/><path d="M23.0917 102.221C23.5589 101.641 24.3182 101.391 24.7938 100.807 25.0817 100.444 25.1443 99.9555 24.7938 99.6009 24.4893 99.3005 23.8802 99.2421 23.5881 99.6009 23.1167 100.185 22.3616 100.435 21.886 101.019 21.594 101.378 21.5356 101.87 21.886 102.221 22.1905 102.525 22.7997 102.584 23.0917 102.221" fill="#FFFFFF" transform="matrix(1.00374 0 0 1 957.749 555.914)"/><path d="M22.4325 92.6588C23.4171 92.3292 24.3182 91.741 25.0734 91.0234 25.8702 90.2683 24.6687 89.0667 23.8718 89.8219 23.3337 90.3308 22.6787 90.7856 21.9778 91.0192 20.9431 91.3655 21.3895 93.0092 22.4325 92.6588" fill="#FFFFFF" transform="matrix(1.00374 0 0 1 957.749 555.914)"/><path d="M23.6507 83.055C23.584 83.1509 23.4088 83.2093 23.5798 83.1468 23.7217 83.0967 23.8635 83.0425 24.0012 82.9715 24.3015 82.8214 24.6019 82.6586 24.9023 82.5085 25.8827 82.0162 25.0233 80.5518 24.0429 81.0399 23.8552 81.1359 23.6674 81.2277 23.4755 81.3236 23.3837 81.3695 23.2878 81.4196 23.196 81.4655 22.9957 81.5614 23.3879 81.4154 23.1292 81.5072 22.7246 81.649 22.42 81.8326 22.178 82.1956 21.5773 83.1176 23.05 83.9686 23.6507 83.055" fill="#FFFFFF" transform="matrix(1.00374 0 0 1 957.749 555.914)"/><path d="M59.3834 106.902C59.4877 106.781 59.4293 106.848 59.3667 106.868 59.4543 106.835 59.5503 106.823 59.6421 106.806 59.5086 106.827 59.8214 106.789 59.8048 106.789 59.9424 106.777 60.0801 106.76 60.2178 106.739 60.6976 106.668 61.1022 106.439 61.3567 106.022 61.9283 105.079 60.4598 104.228 59.8882 105.162 59.9716 105.024 60.101 105.037 59.859 105.087 60.005 105.058 59.6963 105.1 59.7088 105.1 59.567 105.112 59.4251 105.129 59.2874 105.15 58.8702 105.212 58.4614 105.371 58.1777 105.7 57.8773 106.047 57.8356 106.556 58.1777 106.902 58.4906 107.211 59.0788 107.252 59.3834 106.902" fill="#FFFFFF" transform="matrix(1.00374 0 0 1 957.749 555.914)"/><path d="M59.3834 104.774C59.6045 104.57 59.9299 104.47 60.2011 104.34 60.6225 104.14 60.7268 103.552 60.5056 103.176 60.2595 102.755 59.763 102.671 59.3458 102.872 58.9203 103.076 58.5323 103.251 58.1777 103.573 57.3642 104.311 58.574 105.508 59.3834 104.774" fill="#FFFFFF" transform="matrix(1.00374 0 0 1 957.749 555.914)"/><path d="M13.6673 106.072C11.8608 101.453 12.9539 96.2675 12.8162 91.4197 12.7161 87.7609 13.1166 84.0563 12.9914 80.3557 12.9539 79.2627 11.2517 79.2585 11.2893 80.3557 11.4269 84.4568 11.0348 88.4743 11.1474 92.5503 11.2809 97.273 10.2588 102.012 12.0277 106.526 12.424 107.536 14.0678 107.098 13.6673 106.072" fill="#FFFFFF" transform="matrix(1.00374 0 0 1 957.749 555.914)"/><path d="M12.5659 76.8138C12.5659 76.8138 12.5659 75.1116 12.5659 74.2605 12.5659 73.4095 10.8637 73.4095 10.8637 74.2605 10.8637 75.1116 10.8637 75.9627 10.8637 76.8138 10.8637 77.6648 12.5659 77.6648 12.5659 76.8138 12.5659 76.8138 12.5659 77.6648 12.5659 76.8138" fill="#FFFFFF" transform="matrix(1.00374 0 0 1 957.749 555.914)"/><path d="M93.6559 81.3487C93.6475 81.4196 93.6309 81.4154 93.7268 81.3278 93.8603 81.1985 94.0022 81.0691 94.1398 80.944 94.4944 80.6227 94.8199 80.3265 95.0994 79.9344 95.3664 79.5589 95.1661 78.9915 94.7948 78.7704 94.3651 78.5201 93.8979 78.6995 93.6267 79.075 93.0343 79.9052 92.033 80.2014 91.9537 81.3487 91.9204 81.8117 92.3626 82.1997 92.8048 82.1997 93.2929 82.1997 93.6225 81.8117 93.6559 81.3487" fill="#FFFFFF" transform="matrix(1.00374 0 0 1 957.749 555.914)"/><path d="M93.6225 85.8293C94.0606 84.5611 95.3288 83.9853 96.3134 83.1801 97.2646 82.3958 98.0614 81.4488 98.6413 80.3599 99.1587 79.392 97.6901 78.5326 97.1728 79.5005 96.4719 80.8147 95.4206 81.7992 94.2191 82.6586 93.1511 83.4221 92.4168 84.1105 91.9829 85.3746 91.6283 86.4176 93.2721 86.8598 93.6225 85.8293" fill="#FFFFFF" transform="matrix(1.00374 0 0 1 957.749 555.914)"/><path d="M95.9588 87.6191C96.7765 86.5928 97.8195 85.7834 98.6914 84.803 99.6092 83.7726 100.298 82.546 101.203 81.5239 101.929 80.7062 100.727 79.5005 100.001 80.3224 99.1795 81.2485 98.4953 82.3249 97.7319 83.297 96.8391 84.4359 95.6542 85.2911 94.7531 86.4176 94.0772 87.2645 95.2746 88.4785 95.9588 87.6191" fill="#FFFFFF" transform="matrix(1.00374 0 0 1 957.749 555.914)"/><path d="M99.3506 88.0154C100.16 86.6887 101.37 85.483 101.845 83.9853 102.179 82.9382 100.535 82.4918 100.206 83.5348 99.9972 84.1898 99.5425 84.7488 99.1336 85.287 98.6789 85.8836 98.2701 86.5177 97.8821 87.156 97.3105 88.0989 98.7832 88.9499 99.3506 88.0154" fill="#FFFFFF" transform="matrix(1.00374 0 0 1 957.749 555.914)"/><path d="M92.5211 78.7954C93.6183 78.7954 93.6183 77.0975 92.5211 77.0975 91.4239 77.0975 91.4239 78.7954 92.5211 78.7954" fill="#FFFFFF" transform="matrix(1.00374 0 0 1 957.749 555.914)"/><path d="M73.1007 64.4773C73.0423 61.411 73.2551 58.3738 73.2342 55.3074 73.2217 52.9962 72.4374 50.76 72.3915 48.4613 72.3665 47.364 70.6643 47.3599 70.6894 48.4613 70.7269 50.3553 71.165 52.2035 71.4278 54.0725 71.9034 57.4768 71.3318 61.0522 71.3986 64.4773 71.4194 65.5746 73.1216 65.5787 73.1007 64.4773" fill="#FFFFFF" transform="matrix(1.00374 0 0 1 957.749 555.914)"/><path d="M72.1078 45.3406C72.1078 45.3406 72.0786 43.2755 71.9326 42.3494 71.8617 41.8904 71.2943 41.54 70.8896 41.6485 70.4015 41.782 70.2221 42.3994 70.293 42.8542 70.414 43.6218 70.4057 44.4896 70.4057 45.3406 70.4057 46.1917 72.1078 46.1917 72.1078 45.3406 72.1078 45.3406 72.1078 46.1917 72.1078 45.3406" fill="#FFFFFF" transform="matrix(1.00374 0 0 1 957.749 555.914)"/><path d="M71.966 38.8199C71.9743 38.1065 72.0953 37.4056 72.1078 36.6922 72.1245 35.595 70.4223 35.5992 70.4057 36.6922 70.3931 37.4056 70.2722 38.1065 70.2638 38.8199 70.2471 39.9171 71.9493 39.9171 71.966 38.8199" fill="#FFFFFF" transform="matrix(1.00374 0 0 1 957.749 555.914)"/></g></g></g></g></svg>