<svg width="203" height="90" xmlns="http://www.w3.org/2000/svg" xmlns:xlink="http://www.w3.org/1999/xlink" overflow="hidden"><defs><clipPath id="clip0"><rect x="698" y="418" width="203" height="90"/></clipPath><clipPath id="clip1"><rect x="699" y="419" width="202" height="88"/></clipPath><clipPath id="clip2"><rect x="699" y="419" width="202" height="88"/></clipPath><clipPath id="clip3"><rect x="699" y="419" width="202" height="88"/></clipPath></defs><g clip-path="url(#clip0)" transform="translate(-698 -418)"><g clip-path="url(#clip1)"><g clip-path="url(#clip2)"><g clip-path="url(#clip3)"><path d="M182.952 67.4807 19.518 67.4807C10.0891 67.4807 2.44146 59.8331 2.44146 50.3973L2.44146 19.518C2.44146 10.0822 10.0891 2.43459 19.5248 2.43459L182.952 2.43459C192.387 2.43459 200.035 10.0822 200.035 19.518L200.035 50.3904C200.028 59.8331 192.38 67.4807 182.952 67.4807Z" transform="matrix(1.00968 0 0 1 699 419.122)"/><path d="M180.51 65.0392 17.0834 65.0392C7.64763 65.0392 0 57.3916 0 47.9559L0 17.0834C0 7.64763 7.64763 0 17.0834 0L180.51 0C189.946 0 197.594 7.64763 197.594 17.0834L197.594 47.9559C197.594 57.3916 189.946 65.0392 180.51 65.0392Z" fill="#D9D9D9" transform="matrix(1.00968 0 0 1 699 419.122)"/><path d="M200.028 72.9069C200.028 74.9014 198.412 76.5175 196.417 76.5175 194.423 76.5175 192.807 74.9014 192.807 72.9069 192.807 70.9125 194.423 69.2963 196.417 69.2963 198.412 69.2963 200.028 70.9125 200.028 72.9069ZM197.594 82.8585C196.246 82.8585 195.152 83.952 195.152 85.2999 195.152 86.6479 196.246 87.7414 197.594 87.7414 198.941 87.7414 200.035 86.6479 200.035 85.2999 200.028 83.952 198.941 82.8585 197.594 82.8585Z" fill="#FFFFFF" transform="matrix(1.00968 0 0 1 699 419.122)"/></g></g></g></g></svg>