<svg width="107" height="79" xmlns="http://www.w3.org/2000/svg" xmlns:xlink="http://www.w3.org/1999/xlink" overflow="hidden"><defs><clipPath id="clip0"><rect x="1590" y="420" width="107" height="79"/></clipPath><clipPath id="clip1"><path d="M1590.61 425.451 1693.39 421.141 1696.45 494.024 1593.67 498.334Z" fill-rule="evenodd" clip-rule="evenodd"/></clipPath><clipPath id="clip2"><path d="M1590.61 425.451 1693.39 421.141 1696.45 494.024 1593.67 498.334Z" fill-rule="evenodd" clip-rule="evenodd"/></clipPath><clipPath id="clip3"><path d="M1590.61 425.451 1693.39 421.141 1696.45 494.024 1593.67 498.334Z" fill-rule="evenodd" clip-rule="evenodd"/></clipPath></defs><g clip-path="url(#clip0)" transform="translate(-1590 -420)"><g clip-path="url(#clip1)"><g clip-path="url(#clip2)"><g clip-path="url(#clip3)"><path d="M46.8083 25.8894C46.7186 29.7551 46.4039 33.6226 46.0849 37.4882L46.2118 37.4801C46.2118 37.4801 46.0075 42.0528 45.7169 48.3837 45.7009 48.8294 45.6763 49.2794 45.6558 49.7404 45.4352 54.5508 45.1737 60.195 44.9159 65.5574 44.9035 65.7987 44.8954 66.0393 44.8835 66.2846 44.7734 68.585 44.6627 70.8253 44.5607 72.9142 44.5402 73.2815 44.5197 73.6453 44.5074 74.0056 44.4751 74.581 44.4461 75.1454 44.4177 75.6968L44.4542 75.7005C44.4054 77.0014 44.1111 78.2469 43.8821 79.5178 43.641 80.8298 43.8944 82.2199 43.535 83.4983 42.8077 86.0946 39.2763 85.6037 37.3761 85.0353 34.985 84.32 33.0684 82.5052 30.5796 82.0523 28.6095 81.6841 27.0771 82.8813 25.2667 83.405 24.1139 83.7358 22.7937 83.8177 21.6005 83.6375 20.8606 83.531 20.2025 83.2532 19.4914 83.0491 18.4248 82.7346 16.2669 83.266 15.678 82.0077 15.0694 80.7068 16.2055 77.7441 16.7448 75.4227 16.6223 73.7069 17.0307 71.6463 17.0307 71.6463 14.1089 68.4674 12.5477 64.7603 11.8321 61.0167 11.2359 60.3626 10.5694 59.7786 9.94803 59.2674 7.04666 56.8731-1.35619 52.1894 1.26785 46.876 2.1461 45.0946 4.60277 43.8268 6.4583 44.2157 8.73458 44.6894 10.7249 46.5819 12.507 48.0734L12.5721 49.2139C12.6865 48.9524 12.8136 48.629 12.9484 48.2124 13.0258 47.963 13.1037 47.7259 13.1772 47.5048 13.8025 45.6542 14.8449 38.9762 14.8449 38.9762 14.8449 33.5124 15.9647 28.1209 15.9846 22.6452 15.9846 22.3667 15.9928 22.0803 16.0056 21.8034 16.0748 20.0414 16.2913 18.2923 17.011 16.8334 17.7135 15.4033 19.2421 14.4948 20.6116 15.7055 22.5689 17.4464 22.2665 21.3697 22.2093 23.6785 22.1893 24.6834 22.1524 25.6891 22.1031 26.6942 21.9071 30.6882 21.5349 34.6805 21.2283 38.6693L21.5349 38.6573 22.1603 38.6245 22.8467 38.5917 23.1492 38.5789C23.1573 38.5013 23.1696 38.4239 23.1778 38.3418L23.2921 37.3369C23.754 33.2708 24.1341 29.2039 24.314 25.113 24.4365 22.2114 24.0606 18.5162 25.3892 15.8194 26.0917 14.389 27.6204 13.4733 28.9852 14.6914 30.9471 16.4324 30.6447 20.3473 30.5873 22.6652 30.4976 26.6375 30.1707 30.614 29.8436 34.5864 29.8274 34.8351 29.8067 35.0855 29.7862 35.3344 29.7083 36.3156 29.6267 37.2922 29.5535 38.2728L30.3544 38.2363 30.522 38.2281 31.3556 38.1872C31.8786 33.7321 32.3198 29.2778 32.5121 24.7906 32.5205 24.5902 32.5286 24.3861 32.5325 24.1773 32.5939 21.3771 32.3526 18.0015 33.5912 15.4932 34.2941 14.0629 35.8226 13.1509 37.1876 14.3646 39.1491 16.1065 38.8472 20.0251 38.7935 22.3337 38.7528 24.0546 38.6712 25.7748 38.5605 27.4995 38.3441 30.966 38.0212 34.4274 37.7639 37.8811L39.9423 37.779C40.2694 34.6233 40.5349 31.4637 40.6739 28.2887 40.6901 27.9377 40.698 27.5734 40.7022 27.2054 40.7311 24.5697 40.5879 21.5131 41.7241 19.1991 42.4111 17.8013 43.9065 16.915 45.239 18.1001 47.1601 19.7998 46.8576 23.6336 46.8083 25.8894Z" fill="#B8DFF8" transform="matrix(1.00098 -0.0419708 0.0418931 0.999122 1591.97 412.225)"/><path d="M41.541 49.1974C41.4494 51.1691 41.3617 53.1448 41.2776 55.1171 41.2548 55.6661 41.2318 56.2122 41.209 56.7613 41.087 59.4997 40.9686 62.2421 40.8391 64.9807 40.8312 65.1757 40.824 65.3666 40.8124 65.5646 40.8087 65.626 40.8045 65.6869 40.8045 65.7481 40.7743 66.3202 40.7476 66.8841 40.7208 67.4453 40.6639 68.6125 40.6065 69.7532 40.5532 70.8402 40.5416 71.1105 40.5302 71.3818 40.5186 71.6487 40.5149 71.668 40.5149 71.6866 40.5149 71.7061 40.4884 72.1678 40.4654 72.6178 40.4426 73.0567L40.473 73.0567C40.4688 73.1439 40.4651 73.2318 40.4579 73.3159 40.3931 74.2613 40.1829 75.1658 40.0153 76.0962 39.8856 76.8212 39.9425 77.5765 39.8933 78.309 39.8705 78.6333 39.8284 78.9534 39.741 79.2628 39.7026 79.3999 39.6531 79.5257 39.5957 79.6405 38.936 80.9904 37.09 80.9753 35.6747 80.6931L35.6706 80.6931C35.3693 80.6318 35.0908 80.5597 34.8428 80.4867 34.183 80.2884 33.5726 79.9876 32.9703 79.6626 31.8296 79.0487 30.727 78.3469 29.4303 78.1107 28.2933 77.9008 27.3398 78.3432 26.3558 78.7588L26.352 78.7588C25.9785 78.919 25.6007 79.0754 25.2041 79.1896 25.1962 79.1896 25.1925 79.1942 25.1851 79.1942 24.2696 79.4534 23.2284 79.522 22.2823 79.3767 21.6949 79.2895 21.1686 79.0682 20.6002 78.9036 20.2913 78.8127 19.8679 78.8127 19.4253 78.7972 18.6666 78.7739 17.8692 78.713 17.5719 78.0758 17.4268 77.7673 17.4038 77.3436 17.4571 76.8517L17.4571 76.8479C17.5831 75.6805 18.1207 74.1316 18.4185 72.8391 18.3955 72.4921 18.3955 72.1255 18.4148 71.7744 18.4453 71.1605 18.5213 70.5884 18.5787 70.2258 18.6168 69.9784 18.6473 69.8294 18.6473 69.8294 16.3243 67.3002 15.0773 64.3486 14.5087 61.3691 14.0357 60.8508 13.5019 60.3851 13.0098 59.9769 10.8772 58.2223 5.03004 54.9116 5.76997 51.0892 5.83111 50.7688 5.93804 50.441 6.10193 50.1133 6.1361 50.0447 6.17469 49.9754 6.2163 49.9068 6.96762 48.6448 8.70343 47.7633 10.0843 47.973L10.088 47.973C10.1375 47.9774 10.1833 47.9848 10.2291 47.996 11.1747 48.1943 12.06 48.698 12.8913 49.3043 12.8913 49.308 12.895 49.308 12.895 49.308 13.6542 49.8618 14.3674 50.5024 15.0464 51.0671 15.0464 51.0671 15.3437 51.353 15.3974 51.1773 15.4544 50.979 15.5234 50.7923 15.5804 50.617 16.0039 49.3164 15.7943 47.2981 16.252 45.765 16.378 45.342 16.557 44.9521 16.8162 44.6281 16.9152 44.4946 17.0337 44.3763 17.1635 44.2659 17.2437 44.201 17.3274 44.1399 17.4152 44.0827 18.1935 43.5945 19.5169 43.7124 20.3831 43.6782 20.7604 43.6633 21.1344 43.6515 21.5119 43.6475 22.0078 43.6364 22.5073 43.6329 23.0032 43.6329 25.3034 43.6401 27.6111 43.7512 29.9073 43.8579 30.3346 43.8809 30.7619 43.8995 31.1887 43.9191 31.3072 43.9228 31.4214 43.9302 31.5399 43.9337 33.199 43.9948 34.8581 43.9874 36.5135 44.1587 37.9059 44.304 39.9695 43.4802 41.1748 44.4493 42.5557 45.5542 41.6058 47.7668 41.541 49.1974Z" fill="#A2D7F6" transform="matrix(1.00098 -0.0419708 0.0418931 0.999122 1591.97 412.225)"/><path d="M37.5789 39.5818C37.5603 39.5818 37.5419 39.5811 37.5231 39.5794 37.1028 39.549 36.7869 39.184 36.8171 38.7637 36.9307 37.1895 37.0591 35.6145 37.1876 34.0389 37.5012 30.1926 37.8255 26.2158 37.9176 22.3128 37.922 22.1133 37.9282 21.9011 37.9348 21.6781 37.9975 19.5304 38.0928 16.2852 36.5679 14.9286 36.2531 14.6494 36.2248 14.1665 36.5049 13.852 36.7855 13.537 37.2678 13.5094 37.5819 13.7888 39.6387 15.6178 39.5308 19.2921 39.4599 21.723 39.4537 21.9413 39.4474 22.15 39.4432 22.3474 39.35 26.2958 39.0238 30.2958 38.7086 34.163 38.5805 35.7343 38.4524 37.3048 38.3392 38.8737 38.31 39.2747 37.975 39.5818 37.5789 39.5818Z" fill="#16213D" transform="matrix(1.00098 -0.0419708 0.0418931 0.999122 1591.97 412.225)"/><path d="M46.1877 35.5757C46.1691 35.5757 46.1505 35.575 46.1319 35.5743 45.7116 35.5436 45.3957 35.178 45.4261 34.7577 45.5456 33.1081 45.6279 32.1362 45.6879 31.4237 45.8236 29.8176 45.8446 29.5703 45.9289 25.8706 45.9334 25.6814 45.9394 25.4817 45.9461 25.2739 46.011 23.1692 46.1089 19.9881 44.6178 18.6615 44.3031 18.3813 44.275 17.8994 44.5551 17.584 44.8352 17.2697 45.3173 17.242 45.6321 17.5215 47.6559 19.3228 47.5448 22.9323 47.4711 25.3208 47.4648 25.5249 47.4585 25.7209 47.4544 25.9064 47.3688 29.6523 47.3444 29.9427 47.2082 31.5527 47.1484 32.2606 47.0666 33.2274 46.9478 34.8681 46.9185 35.2698 46.584 35.5757 46.1877 35.5757Z" fill="#16213D" transform="matrix(1.00098 -0.0419708 0.0418931 0.999122 1591.97 412.225)"/><path d="M20.9975 40.9226C20.9791 40.9226 20.9605 40.9219 20.9417 40.9203 20.5214 40.8898 20.2055 40.5249 20.2359 40.1046 20.3489 38.5422 20.4768 36.9786 20.6046 35.4139 20.9198 31.5564 21.246 27.5685 21.335 23.6557 21.3397 23.459 21.3457 23.2505 21.3525 23.0329 21.4173 20.8812 21.5154 17.6302 19.9867 16.2729 19.6404 15.9644 19.2991 15.8489 18.9432 15.9184 18.4318 16.0181 17.9092 16.4956 17.5793 17.1653 17.3931 17.5431 16.9361 17.6988 16.5577 17.5124 16.1797 17.3262 16.0244 16.8687 16.2106 16.4905 16.755 15.3863 17.6672 14.6124 18.6505 14.4209 19.2308 14.3086 20.109 14.3388 21.0003 15.1324 23.0615 16.9631 22.9506 20.6432 22.8772 23.0787 22.8709 23.2933 22.8646 23.4974 22.8602 23.691 22.77 27.6478 22.4422 31.6594 22.1249 35.5388 21.9973 37.0988 21.8699 38.6573 21.7572 40.215 21.7286 40.6165 21.3938 40.9226 20.9975 40.9226Z" fill="#16213D" transform="matrix(1.00098 -0.0419708 0.0418931 0.999122 1591.97 412.225)"/><path d="M29.3752 39.9056C29.3569 39.9056 29.338 39.9049 29.3194 39.9035 28.8989 39.8728 28.5832 39.5078 28.6137 39.0875 28.726 37.5389 28.8526 35.9883 28.9793 34.4366 29.2955 30.5664 29.6223 26.565 29.7116 22.638 29.716 22.4392 29.7223 22.2274 29.729 22.0071 29.7941 19.8584 29.8922 16.6118 28.3647 15.2552 28.0186 14.9467 27.6759 14.8321 27.3207 14.9014 26.8093 15.002 26.2874 15.4786 25.9592 16.1469 25.7732 16.5254 25.3157 16.6811 24.938 16.4949 24.56 16.3092 24.404 15.8519 24.5897 15.4732 25.1321 14.3709 26.0433 13.5968 27.0273 13.4038 27.6076 13.2913 28.4863 13.3213 29.3782 14.1147 31.4386 15.9442 31.3275 19.6211 31.254 22.0531 31.2473 22.27 31.2412 22.4771 31.2368 22.6731 31.1464 26.6438 30.8177 30.6684 30.4996 34.561 30.3734 36.1074 30.2472 37.6535 30.1349 39.1977 30.1063 39.5997 29.7716 39.9056 29.3752 39.9056Z" fill="#16213D" transform="matrix(1.00098 -0.0419708 0.0418931 0.999122 1591.97 412.225)"/><path d="M13.3655 64.1782C13.0517 64.1782 12.7578 63.983 12.6467 63.6708 12.123 62.1981 10.807 60.9665 9.46312 59.8551 9.00284 59.4757 8.39425 59.0334 7.68919 58.5208 4.10507 55.9132-1.89388 51.5499 0.58325 46.5361 1.61794 44.4449 4.43586 43.0115 6.61335 43.4667 8.8078 43.9242 10.6898 45.5258 12.3503 46.9385 12.5691 47.1247 12.785 47.3088 12.998 47.486 13.3213 47.7563 13.3645 48.2375 13.0942 48.5609 12.8238 48.8842 12.3429 48.9275 12.0197 48.6571 11.8033 48.476 11.5841 48.2898 11.3616 48.1004 9.83994 46.8058 8.11553 45.3387 6.30138 44.9603 4.79293 44.6453 2.6796 45.7395 1.95083 47.2124 0.0439356 51.0722 5.18486 54.8121 8.58696 57.2862 9.31178 57.8139 9.93804 58.269 10.4346 58.6786 11.9479 59.9302 13.4368 61.338 14.0843 63.1596 14.2254 63.5566 14.018 63.9925 13.621 64.1341 13.5366 64.1643 13.4501 64.1782 13.3655 64.1782Z" fill="#16213D" transform="matrix(1.00098 -0.0419708 0.0418931 0.999122 1591.97 412.225)"/><path d="M52.035 25.8894C52.1248 29.7551 52.44 33.6226 52.7585 37.4882L52.6316 37.4801C52.6316 37.4801 52.8363 42.0528 53.1265 48.3837 53.1425 48.8294 53.1671 49.2794 53.1876 49.7404 53.4084 54.5508 53.67 60.195 53.9275 65.5574 53.9399 65.7987 53.948 66.0393 53.9598 66.2846 54.0705 68.585 54.1807 70.8253 54.2832 72.9142 54.3032 73.2815 54.3239 73.6453 54.3362 74.0056 54.369 74.581 54.3976 75.1454 54.4264 75.6968L54.3894 75.7005C54.4383 77.0014 54.7326 78.2469 54.9615 79.5178 55.2026 80.8298 54.9492 82.2199 55.3091 83.4983 56.036 86.0946 59.5673 85.6037 61.4679 85.0353 63.8586 84.32 65.7755 82.5052 68.2645 82.0523 70.2341 81.6841 71.7665 82.8813 73.577 83.405 74.7297 83.7358 76.0499 83.8177 77.2431 83.6375 77.9828 83.531 78.6412 83.2532 79.3523 83.0491 80.4191 82.7346 82.5765 83.266 83.1654 82.0077 83.7744 80.7068 82.6384 77.7441 82.0986 75.4227 82.2211 73.7069 81.8124 71.6463 81.8124 71.6463 84.7347 68.4674 86.2955 64.7603 87.011 61.0167 87.6073 60.3626 88.2742 59.7786 88.8949 59.2674 91.7963 56.8731 100.199 52.1894 97.5755 46.876 96.6968 45.0946 94.2406 43.8268 92.3846 44.2157 90.1086 44.6894 88.118 46.5819 86.3359 48.0734L86.2709 49.2139C86.1565 48.9524 86.0298 48.629 85.895 48.2124 85.8171 47.963 85.7392 47.7259 85.666 47.5048 85.0407 45.6542 83.9983 38.9762 83.9983 38.9762 83.9983 33.5124 82.8787 28.1209 82.8585 22.6452 82.8585 22.3667 82.8504 22.0803 82.8378 21.8034 82.7686 20.0414 82.5521 18.2923 81.8329 16.8334 81.1299 15.4033 79.6012 14.4948 78.2323 15.7055 76.2745 17.4464 76.5769 21.3697 76.6341 23.6785 76.6543 24.6834 76.6913 25.6891 76.7403 26.6942 76.9365 30.6882 77.3082 34.6805 77.6148 38.6693L77.3082 38.6573 76.6829 38.6245 75.9964 38.5917 75.694 38.5789C75.6859 38.5013 75.674 38.4239 75.6656 38.3418L75.5508 37.3369C75.0889 33.2708 74.7091 29.2039 74.5291 25.113 74.4066 22.2114 74.7827 18.5162 73.4545 15.8194 72.7515 14.389 71.2228 13.4733 69.858 14.6914 67.8963 16.4324 68.1985 20.3473 68.2559 22.6652 68.3456 26.6375 68.6724 30.614 68.9993 34.5864 69.0156 34.8351 69.0363 35.0855 69.0567 35.3344 69.1346 36.3156 69.2162 37.2922 69.2899 38.2728L68.4886 38.2363 68.321 38.2281 67.4874 38.1872C66.9643 33.7321 66.5229 29.2778 66.3306 24.7906 66.3225 24.5902 66.3141 24.3861 66.3102 24.1773 66.249 21.3771 66.4901 18.0015 65.252 15.4932 64.5488 14.0629 63.0203 13.1509 61.6551 14.3646 59.6936 16.1065 59.996 20.0251 60.0492 22.3337 60.0897 24.0546 60.1717 25.7748 60.2819 27.4995 60.4983 30.966 60.8212 34.4274 61.079 37.8811L58.9006 37.779C58.5735 34.6233 58.3076 31.4637 58.1691 28.2887 58.1528 27.9377 58.1444 27.5734 58.1402 27.2054 58.1116 24.5697 58.2546 21.5131 57.1186 19.1991 56.4316 17.8013 54.936 16.915 53.6037 18.1001 51.6838 19.7998 51.9862 23.6336 52.035 25.8894Z" fill="#B8DFF8" transform="matrix(1.00098 -0.0419708 0.0418931 0.999122 1591.97 412.225)"/><path d="M90.75 56.1011C90.4754 56.3642 90.1892 56.6241 89.8996 56.8712 88.4081 58.1451 86.7639 59.21 85.8334 59.9765 85.5546 60.2087 85.265 60.4567 84.9788 60.7243 84.7575 60.9263 84.5399 61.1439 84.334 61.3687 84.3149 61.4677 84.2956 61.5705 84.2733 61.6697L84.2733 61.6734C84.0401 62.7993 83.7124 63.9165 83.2586 65.0074 83.2586 65.0074 83.2586 65.0074 83.2586 65.0111 83.0984 65.401 82.9227 65.7822 82.7281 66.16 82.137 67.3423 81.3856 68.479 80.4432 69.5465 80.3635 69.6418 80.2793 69.7371 80.1952 69.8289 80.1952 69.8289 80.3137 70.4085 80.386 71.1677 80.4358 71.6861 80.4665 72.2854 80.4244 72.8387 80.7752 74.3487 81.4507 76.2105 81.4084 77.4003 81.4047 77.6595 81.3626 77.8892 81.2747 78.0751 81.1834 78.2704 81.0497 78.4075 80.8821 78.5101 80.1766 78.9415 78.9255 78.7009 78.2427 78.9027 77.6744 79.0673 77.1518 79.2886 76.5606 79.3758 76.4235 79.3951 76.2856 79.4143 76.1487 79.4257 75.5729 79.4748 74.9701 79.4525 74.3906 79.3572 74.1349 79.3146 73.8831 79.2579 73.6388 79.1886 72.2047 78.773 70.9803 77.8192 69.4124 78.1098 69.016 78.1823 68.6383 78.2962 68.2719 78.4415 67.8867 78.5905 67.5169 78.773 67.1507 78.9682 66.117 79.5097 65.1251 80.1466 64.0039 80.4858 62.4892 80.9358 59.6822 81.3252 59.1026 79.2616 58.8167 78.2432 59.0185 77.1406 58.8276 76.0952 58.6444 75.0808 58.412 74.0928 58.3704 73.0558L58.4008 73.0558C58.3776 72.6169 58.3546 72.1671 58.332 71.7052 58.3167 71.419 58.3013 71.1291 58.2899 70.8392 58.2788 70.6293 58.2672 70.4236 58.2595 70.2097 58.2288 69.6451 58.2025 69.0728 58.1718 68.4858 58.1261 67.5359 58.0765 66.5554 58.0307 65.5639 58.0196 65.3659 58.0117 65.175 58.0038 64.98 57.9468 63.7828 57.8936 62.5812 57.8399 61.3831 57.8094 60.7692 57.7825 60.1589 57.7599 59.5487 57.6834 57.8018 57.6077 56.0583 57.5309 54.3116 57.5082 53.7199 57.4817 53.1253 57.4549 52.5302 57.405 51.4204 57.3559 50.3065 57.3022 49.1964 57.2604 48.2696 56.8447 47.0106 56.94 45.9385 56.9781 45.4921 57.1039 45.0802 57.3824 44.7376 57.4621 44.6341 57.5614 44.5388 57.6723 44.4477 58.8734 43.4785 60.9372 44.3024 62.3292 44.1571 62.5968 44.1313 62.8597 44.1081 63.1263 44.0885 63.6031 44.0546 64.0841 44.0313 64.5609 44.0127 65.5909 43.9746 66.6244 43.9628 67.6545 43.9174 68.4553 43.8793 69.2564 43.8407 70.0612 43.8026 70.5459 43.784 71.0264 43.761 71.5106 43.7415 73.8066 43.6461 76.1031 43.5897 78.3917 43.6729 78.4145 43.6768 78.4413 43.6768 78.4645 43.6768 78.8876 43.6924 79.4218 43.6729 79.9523 43.7073 80.4976 43.7415 81.0318 43.8333 81.4282 44.0813 81.516 44.1385 81.6039 44.1996 81.6799 44.2645 82.4429 44.9014 82.71 45.9431 82.8395 47.0569 82.912 47.705 82.9427 48.3763 82.9917 49.0058 83.0415 49.5972 83.11 50.15 83.263 50.6156 83.3204 50.7909 83.389 50.9778 83.4499 51.1759 83.5031 51.3518 83.7972 51.0657 83.7972 51.0657 83.976 50.9164 84.1557 50.7637 84.3426 50.6038 84.625 50.3639 84.9186 50.1156 85.2157 49.875L85.2199 49.875C86.2611 49.0286 87.3825 48.2503 88.6145 47.9946 90.0911 47.6854 92.0436 48.6966 92.7417 50.1119 93.8243 52.3024 92.5504 54.3615 90.75 56.1011Z" fill="#A2D7F6" transform="matrix(1.00098 -0.0419708 0.0418931 0.999122 1591.97 412.225)"/><path d="M61.265 39.5818C60.8687 39.5818 60.5337 39.2756 60.5049 38.8739 60.3916 37.3066 60.2636 35.7391 60.1357 34.1702 59.82 30.3 59.4936 26.2979 59.4004 22.3486 59.3962 22.1498 59.39 21.941 59.3837 21.7228 59.3125 19.2919 59.2047 15.6176 61.2615 13.7886 61.5763 13.5094 62.0584 13.5368 62.3385 13.8518 62.6184 14.1663 62.5903 14.6491 62.2755 14.9283 60.7506 16.285 60.8459 19.5302 60.9086 21.6779 60.9151 21.9008 60.9214 22.1131 60.9258 22.3142 61.0179 26.2179 61.3424 30.1968 61.6565 34.0456 61.7848 35.6192 61.9131 37.1925 62.0266 38.7637 62.057 39.184 61.7409 39.549 61.3208 39.5794 61.3022 39.5811 61.2834 39.5818 61.265 39.5818Z" fill="#16213D" transform="matrix(1.00098 -0.0419708 0.0418931 0.999122 1591.97 412.225)"/><path d="M52.656 35.5757C52.2596 35.5757 51.9249 35.2698 51.8958 34.8681 51.777 33.229 51.6952 32.262 51.6354 31.5543 51.4995 29.9436 51.475 29.6537 51.3895 25.9057 51.3851 25.7216 51.379 25.5266 51.3728 25.3222 51.2988 22.9339 51.1873 19.3228 53.2113 17.5215 53.5258 17.242 54.008 17.2697 54.2883 17.584 54.5684 17.8992 54.5403 18.3813 54.2256 18.6615 52.7341 19.9891 52.8326 23.1703 52.8977 25.2755 52.9042 25.4833 52.9103 25.6814 52.9149 25.8699 52.9991 29.5719 53.02 29.8192 53.1558 31.426 53.216 32.1369 53.298 33.1097 53.4175 34.7577 53.448 35.178 53.1318 35.5436 52.7118 35.5743 52.6929 35.575 52.6743 35.5757 52.656 35.5757Z" fill="#16213D" transform="matrix(1.00098 -0.0419708 0.0418931 0.999122 1591.97 412.225)"/><path d="M77.8461 40.9226C77.4498 40.9226 77.1151 40.6165 77.086 40.2148 76.973 38.6533 76.8452 37.0909 76.7175 35.5274 76.4007 31.652 76.0731 27.6445 75.9832 23.6908 75.9788 23.4972 75.9727 23.2931 75.9662 23.0785 75.8928 20.643 75.7819 16.9628 77.8436 15.1322 78.7346 14.3388 79.6131 14.3083 80.1926 14.4206 81.176 14.6122 82.0881 15.386 82.6326 16.4902 82.8188 16.8687 82.6635 17.3262 82.2857 17.5122 81.9084 17.6986 81.4503 17.5428 81.2641 17.1651 80.934 16.4954 80.4114 16.0177 79.9002 15.9182 79.5438 15.848 79.203 15.9642 78.8571 16.2717 77.328 17.63 77.4261 20.881 77.4909 23.0327 77.4975 23.2503 77.504 23.4588 77.5084 23.6555 77.5974 27.5643 77.9231 31.5488 78.2381 35.4025 78.3662 36.9707 78.4945 38.5382 78.6075 40.1043 78.6379 40.5246 78.322 40.8896 77.9017 40.9201 77.8831 40.9219 77.8645 40.9226 77.8461 40.9226Z" fill="#16213D" transform="matrix(1.00098 -0.0419708 0.0418931 0.999122 1591.97 412.225)"/><path d="M69.4682 39.9056C69.0718 39.9056 68.7371 39.5997 68.708 39.198 68.596 37.6535 68.4697 36.1076 68.3433 34.5612 68.0253 30.6687 67.6966 26.644 67.6061 22.6733 67.6015 22.4773 67.5954 22.2702 67.5887 22.0533 67.5155 19.6211 67.4041 15.9444 69.4649 14.1149 70.3564 13.3215 71.2351 13.2902 71.8158 13.4048 72.7998 13.597 73.7111 14.3711 74.253 15.4744 74.4387 15.8521 74.283 16.3094 73.9045 16.4951 73.5267 16.6813 73.0695 16.5256 72.8835 16.1471 72.5553 15.4788 72.0336 15.002 71.5222 14.9016 71.1647 14.8323 70.8241 14.9479 70.4785 15.2549 68.9507 16.6123 69.0488 19.8589 69.1137 22.0075 69.1204 22.2279 69.1267 22.4394 69.1311 22.6394 69.2206 26.5654 69.5474 30.5668 69.8634 34.4371 69.99 35.9888 70.1167 37.5393 70.2293 39.088 70.2597 39.5083 69.9438 39.8733 69.5235 39.904 69.5054 39.9049 69.4868 39.9056 69.4682 39.9056Z" fill="#16213D" transform="matrix(1.00098 -0.0419708 0.0418931 0.999122 1591.97 412.225)"/><path d="M85.4781 64.1782C85.3935 64.1782 85.3071 64.1641 85.2227 64.1345 84.8256 63.993 84.6183 63.5571 84.7594 63.16 85.4068 61.3385 86.8959 59.9304 88.4086 58.6798 88.9061 58.2693 89.5323 57.8141 90.2574 57.2866 93.6592 54.8118 98.7999 51.0729 96.8926 47.2121 96.164 45.7399 94.05 44.6464 92.5427 44.9607 90.7288 45.3392 89.0046 46.806 87.4831 48.1001 87.2604 48.2891 87.0405 48.4763 86.8241 48.6574 86.5012 48.9277 86.02 48.8845 85.7494 48.5611 85.4793 48.2378 85.5226 47.7566 85.8459 47.4862 86.0591 47.3079 86.2755 47.124 86.4947 46.9378 88.155 45.5254 90.0368 43.9244 92.231 43.4669 94.4092 43.0094 97.2262 44.4451 98.2604 46.5364 100.738 51.5492 94.739 55.9135 91.1551 58.5203 90.4501 59.0336 89.8413 59.476 89.3803 59.856 88.0369 60.9668 86.7207 62.1983 86.1972 63.671 86.0858 63.983 85.7917 64.1782 85.4781 64.1782Z" fill="#16213D" transform="matrix(1.00098 -0.0419708 0.0418931 0.999122 1591.97 412.225)"/><path d="M19.4251 78.7967C18.6663 78.7734 17.869 78.7125 17.5717 78.0754 17.4266 77.7669 17.4036 77.3431 17.4568 76.8512 18.1091 77.4995 18.7656 78.1521 19.4251 78.7967Z" fill="#D5EDFC" transform="matrix(1.00098 -0.0419708 0.0418931 0.999122 1591.97 412.225)"/><path d="M26.352 78.7586C25.9785 78.9187 25.6007 79.0752 25.2041 79.1893 25.1962 79.1893 25.1925 79.194 25.1851 79.194 22.8735 76.7757 20.619 74.2771 18.4146 71.7744 18.445 71.1605 18.521 70.5884 18.5785 70.2258 21.1037 73.1055 23.6899 75.9895 26.352 78.7586Z" fill="#D5EDFC" transform="matrix(1.00098 -0.0419708 0.0418931 0.999122 1591.97 412.225)"/><path d="M35.6706 80.6927C35.3693 80.6313 35.0908 80.5592 34.8428 80.4862 34.183 80.2879 33.5726 79.9871 32.9703 79.6622 30.2274 77.0002 27.4125 74.2571 24.7157 71.4694 21.3934 68.0404 18.1321 64.4623 14.9776 61.0063 11.9835 57.7223 8.92031 54.3662 5.76997 51.0889 5.83111 50.7686 5.93804 50.4408 6.10193 50.113 6.1361 50.0445 6.17469 49.9752 6.2163 49.9066 9.51217 53.3127 12.7085 56.815 15.8249 60.2361 18.9718 63.6884 22.2293 67.2544 25.5363 70.6763 28.3817 73.6132 31.3644 76.5081 34.2484 79.3114L35.6706 80.6927Z" fill="#D5EDFC" transform="matrix(1.00098 -0.0419708 0.0418931 0.999122 1591.97 412.225)"/><path d="M39.893 78.3085C39.8702 78.6328 39.8282 78.9529 39.7408 79.2623 39.7024 79.3995 39.6529 79.5252 39.5955 79.6401 37.4787 77.4772 35.4453 75.2572 33.4545 73.0825L32.5658 72.1141C27.4697 66.5563 22.2212 60.9496 17.1481 55.5327 14.8253 53.0495 12.4565 50.5168 10.0877 47.9728 10.1373 47.9772 10.1831 47.9846 10.2288 47.9958 11.1745 48.1941 12.0597 48.6978 12.891 49.3041 12.891 49.3078 12.8947 49.3078 12.8947 49.3078 14.6038 51.1391 16.305 52.9584 17.9834 54.7516 23.0601 60.1713 28.3087 65.779 33.4085 71.3441L34.2972 72.3126C36.1208 74.2997 37.9743 76.3247 39.893 78.3085Z" fill="#D5EDFC" transform="matrix(1.00098 -0.0419708 0.0418931 0.999122 1591.97 412.225)"/><path d="M40.5149 71.7059C40.4884 72.1675 40.4654 72.6176 40.4426 73.0565L40.473 73.0565C40.4688 73.1436 40.4651 73.2315 40.4579 73.3157 38.9127 71.591 37.4254 69.8217 35.9607 68.0748 34.839 66.7358 33.6795 65.351 32.5277 64.0392 30.5287 61.7543 28.4193 59.4888 26.3788 57.3029 22.9381 53.6144 19.4177 49.8343 16.2517 45.7644 16.3777 45.3413 16.5567 44.9514 16.8159 44.6274 20.0393 48.8231 23.6703 52.7215 27.2138 56.5204 29.2622 58.7137 31.3788 60.9835 33.3894 63.2835 34.5452 64.6074 35.7122 65.9952 36.8375 67.3383 38.0431 68.7724 39.2637 70.2253 40.5181 71.6482 40.5149 71.6677 40.5149 71.6863 40.5149 71.7059Z" fill="#D5EDFC" transform="matrix(1.00098 -0.0419708 0.0418931 0.999122 1591.97 412.225)"/><path d="M40.8045 65.7481C40.7743 66.3202 40.7476 66.8841 40.7208 67.4453 38.8214 65.1946 37.0707 62.8485 35.4992 60.7471L35.2854 60.4646C31.284 55.1096 26.8786 49.9408 22.618 44.9442 22.2519 44.5172 21.8818 44.0822 21.5119 43.6471 22.0078 43.6359 22.5073 43.6324 23.0032 43.6324 23.1633 43.8231 23.3277 44.01 23.4879 44.2006 27.7598 49.2122 32.1808 54.3957 36.2048 59.7786L36.4144 60.0608C37.7495 61.8497 39.2219 63.8177 40.8045 65.7481Z" fill="#D5EDFC" transform="matrix(1.00098 -0.0419708 0.0418931 0.999122 1591.97 412.225)"/><path d="M41.2776 55.1171C41.2548 55.6661 41.2318 56.2122 41.209 56.7613 40.3391 55.7845 39.4771 54.793 38.6419 53.7939 35.4913 50.0249 32.6383 46.7788 29.9071 43.8572 30.3344 43.8802 30.7616 43.8988 31.1884 43.9184 31.307 43.9221 31.4211 43.9295 31.5397 43.933 34.0417 46.6456 36.6585 49.6397 39.5192 53.0609 40.0953 53.7516 40.6864 54.4345 41.2776 55.1171Z" fill="#D5EDFC" transform="matrix(1.00098 -0.0419708 0.0418931 0.999122 1591.97 412.225)"/><path d="M68.2717 78.4419C67.8865 78.591 67.5166 78.7734 67.1505 78.9687 64.0836 76.1115 61.1392 73.1399 58.259 70.2104 58.2283 69.6458 58.2021 69.0734 58.1714 68.4865 58.2209 68.5395 58.2704 68.5892 58.3202 68.6392 61.5395 71.9158 64.8315 75.2646 68.2717 78.4419Z" fill="#D5EDFC" transform="matrix(1.00098 -0.0419708 0.0418931 0.999122 1591.97 412.225)"/><path d="M76.1485 79.4262C75.5727 79.4753 74.9699 79.4529 74.3904 79.3576 73.5891 78.6061 72.7919 77.8394 72.0136 77.0532 67.6003 72.5909 63.412 67.7812 59.3614 63.1273 58.8578 62.5512 58.3504 61.968 57.8394 61.384 57.809 60.7701 57.782 60.1599 57.7595 59.5497 58.5873 60.4988 59.4148 61.4449 60.2236 62.3762 64.2628 67.0136 68.4398 71.8084 72.8263 76.2487 73.9017 77.3357 75.0194 78.3922 76.1485 79.4262Z" fill="#D5EDFC" transform="matrix(1.00098 -0.0419708 0.0418931 0.999122 1591.97 412.225)"/><path d="M81.4087 77.4005C81.4049 77.6597 81.3629 77.8894 81.275 78.0754 81.1836 78.2706 81.05 78.4078 80.8824 78.5103 80.6232 78.2281 80.3677 77.9649 80.1194 77.7208L78.3762 76.0311C75.4848 73.2241 72.4944 70.3208 69.6374 67.369 66.3192 63.9397 63.0575 60.3614 59.9032 56.9054 59.1173 56.0434 58.3281 55.1817 57.5305 54.3123 57.5077 53.7206 57.4812 53.126 57.4545 52.5309 58.5645 53.7402 59.6629 54.9418 60.7499 56.1352 63.8967 59.5878 67.1505 63.1538 70.4613 66.5756 73.3071 69.5123 76.2898 72.4074 79.1733 75.207L80.9168 76.9005C81.0804 77.0616 81.2443 77.2292 81.4087 77.4005Z" fill="#D5EDFC" transform="matrix(1.00098 -0.0419708 0.0418931 0.999122 1591.97 412.225)"/><path d="M80.1952 69.8292C80.1952 69.8292 80.3137 70.4087 80.386 71.1679 79.711 70.4357 79.0436 69.7071 78.3797 68.9823L77.4909 68.0136C72.3914 62.4561 67.1468 56.8494 62.0733 51.4325 60.38 49.6207 58.6635 47.7863 56.9396 45.9396 56.9777 45.4933 57.1034 45.0814 57.3819 44.7387 59.2393 46.7256 61.0853 48.7052 62.9088 50.651 67.9855 56.0708 73.2301 61.6786 78.3341 67.2435L79.2228 68.2119C79.6271 68.6545 80.0348 69.1006 80.4432 69.547 80.3637 69.6421 80.2796 69.7374 80.1952 69.8292Z" fill="#D5EDFC" transform="matrix(1.00098 -0.0419708 0.0418931 0.999122 1591.97 412.225)"/><path d="M83.2588 65.0074C83.2588 65.0074 83.2588 65.0074 83.2588 65.0111 83.0987 65.401 82.9229 65.7822 82.7283 66.16 82.1067 65.4312 81.496 64.699 80.8861 63.9741 79.7649 62.6354 78.6012 61.2504 77.453 59.9386 75.4541 57.6537 73.3412 55.3883 71.3046 53.2023 68.5541 50.2534 65.7546 47.2519 63.1261 44.0895 63.6029 44.0555 64.0839 44.0323 64.5606 44.0137 67.0094 46.916 69.5958 49.6934 72.1399 52.42 74.1879 54.6135 76.3014 56.8833 78.315 59.1833 79.4711 60.5069 80.6343 61.895 81.7636 63.2382 82.259 63.8254 82.7551 64.4165 83.2588 65.0074Z" fill="#D5EDFC" transform="matrix(1.00098 -0.0419708 0.0418931 0.999122 1591.97 412.225)"/><path d="M84.979 60.7245C84.7577 60.9265 84.5402 61.1441 84.3342 61.3689 84.3151 61.4679 84.2958 61.5707 84.2735 61.67 82.8962 59.9534 81.6072 58.2332 80.4209 56.6464L80.2112 56.3642C76.9958 52.0581 73.5168 47.8735 70.061 43.8035 70.5456 43.7849 71.0261 43.7619 71.5104 43.7424 74.7832 47.6141 78.0675 51.5887 81.1269 55.678L81.3401 55.9604C82.4654 57.4668 83.6819 59.0989 84.979 60.7245Z" fill="#D5EDFC" transform="matrix(1.00098 -0.0419708 0.0418931 0.999122 1591.97 412.225)"/><path d="M82.839 47.0578C82.9115 47.7059 82.9422 48.3772 82.9913 49.0068 81.3896 47.1033 79.8637 45.3331 78.3913 43.674 78.4141 43.678 78.4408 43.678 78.464 43.678 78.8871 43.6936 79.4213 43.674 79.9518 43.7084 80.8898 44.7764 81.8513 45.8901 82.839 47.0578Z" fill="#D5EDFC" transform="matrix(1.00098 -0.0419708 0.0418931 0.999122 1591.97 412.225)"/><path d="M90.75 56.1011C90.4754 56.3642 90.1892 56.6241 89.8996 56.8712 89.3998 56.3112 88.8998 55.7575 88.4039 55.2047 87.0575 53.706 85.6769 52.168 84.3419 50.6045 84.6243 50.3646 84.9179 50.1163 85.215 49.8757L85.2192 49.8757C86.5426 51.4246 87.9195 52.9505 89.2543 54.438 89.7506 54.9873 90.2504 55.5445 90.75 56.1011Z" fill="#D5EDFC" transform="matrix(1.00098 -0.0419708 0.0418931 0.999122 1591.97 412.225)"/><path d="M21.8478 72.9512C20.7499 72.9512 19.6576 72.7366 18.6694 72.029 18.3267 71.7837 18.2479 71.3072 18.4929 70.9643 18.7382 70.6217 19.2147 70.5428 19.5574 70.7886 20.8434 71.7086 22.5771 71.4327 24.2527 71.1663 24.6695 71.0998 25.1007 71.0315 25.5166 70.9829 28.4633 70.647 31.1768 70.7758 33.5854 71.3653 33.9945 71.466 34.2451 71.8786 34.1449 72.2875 34.0447 72.6973 33.634 72.9477 33.2225 72.847 30.9901 72.301 28.4563 72.1838 25.6909 72.4983 25.309 72.543 24.9124 72.6064 24.4926 72.6727 23.6438 72.8082 22.744 72.9512 21.8478 72.9512Z" fill="#16213D" transform="matrix(1.00098 -0.0419708 0.0418931 0.999122 1591.97 412.225)"/><path d="M76.9956 72.9512C76.0992 72.9512 75.1998 72.8082 74.3511 72.6727 73.9312 72.6064 73.5347 72.543 73.1509 72.4983 70.3869 72.1833 67.8535 72.301 65.6214 72.847 65.2115 72.9484 64.7991 72.6966 64.699 72.2875 64.599 71.8786 64.8494 71.466 65.2587 71.3653 67.6664 70.776 70.3804 70.6479 73.3254 70.9824 73.7429 71.0317 74.1742 71.1001 74.5912 71.1665 76.2673 71.4329 78.0003 71.7089 79.2863 70.7888 79.6282 70.5428 80.105 70.6219 80.3507 70.9645 80.596 71.3074 80.5169 71.784 80.1743 72.0292 79.1861 72.7361 78.0933 72.9512 76.9956 72.9512Z" fill="#16213D" transform="matrix(1.00098 -0.0419708 0.0418931 0.999122 1591.97 412.225)"/></g></g></g></g></svg>