<svg width="111" height="70" xmlns="http://www.w3.org/2000/svg" xmlns:xlink="http://www.w3.org/1999/xlink" overflow="hidden"><defs><clipPath id="clip0"><rect x="1586" y="536" width="111" height="70"/></clipPath><clipPath id="clip1"><rect x="1587" y="536" width="110" height="70"/></clipPath><clipPath id="clip2"><rect x="1587" y="536" width="110" height="70"/></clipPath><clipPath id="clip3"><rect x="1587" y="536" width="110" height="70"/></clipPath><clipPath id="clip4"><rect x="1610.1" y="578.077" width="63.7162" height="27.8701"/></clipPath></defs><g clip-path="url(#clip0)" transform="translate(-1586 -536)"><g clip-path="url(#clip1)"><g clip-path="url(#clip2)"><g clip-path="url(#clip3)"><path d="M84.6176 48.2631 84.2502 47.5174C84.3804 47.4534 98.1589 40.5351 101.164 36.0265 102.685 33.7461 105.094 26.798 106.337 19.5486 107.83 10.84 107.192 4.55748 104.539 1.85904 103.724 1.0307 102.854 0.713163 101.878 0.887875 96.7088 1.81479 89.8866 15.8035 87.7884 20.4755 87.4953 21.1291 87.2539 21.7011 87.0931 22.0365L86.3435 21.6773C86.499 21.3513 86.7392 20.7832 87.0307 20.1345 89.3992 14.8593 96.13 1.0743 101.73 0.0699499 102.981-0.154215 104.124 0.25182 105.131 1.27634 108.97 5.1815 108.048 14.4887 107.156 19.6891 105.896 27.0459 103.423 34.1365 101.856 36.4875 98.7269 41.1813 85.1567 47.9977 84.6176 48.2631" fill="#CFE3FF" transform="matrix(1 0 0 1.00434 1588.02 536.168)"/><path d="M22.9585 47.9729C22.4198 47.7074 9.21614 41.1813 6.08694 36.4875 4.51974 34.1365 2.04774 27.0459 0.786692 19.6891-0.105088 14.4887-1.02745 5.1815 2.81166 1.27634 3.8261 0.244011 4.97783-0.164952 6.23563 0.0595388 11.8287 1.05966 18.2286 14.614 20.5789 19.8349 20.862 20.4638 21.0855 20.9602 21.2391 21.2807L20.9121 21.8013C20.7543 21.4723 20.3222 20.6616 20.0024 20.0441 17.6804 15.5588 11.2509 1.80048 6.08922 0.87779 5.10504 0.702427 4.2266 1.02289 3.40412 1.85904 0.751555 4.55748 0.112896 10.84 1.60592 19.5486 2.84842 26.798 5.2586 33.7461 6.77863 36.0265 9.7842 40.5351 23.1957 47.1631 23.3258 47.2272L22.9585 47.9729" fill="#CFE3FF" transform="matrix(1 0 0 1.00434 1588.02 536.168)"/><path d="M86.8813 26.1033C86.8599 27.4249 86.8599 28.5587 86.8599 28.5587 86.8599 28.5587 87.5076 29.0009 86.989 30.0368 86.4707 31.074 85.9534 32.8875 85.9534 34.1827L85.9534 34.3607C85.9534 34.3955 85.9554 34.4303 85.9554 34.4687 85.9687 36.058 86.066 40.2108 85.8236 41.18 85.7638 41.4227 85.7387 41.5938 85.7319 41.7516 85.7104 42.2653 85.8919 42.6245 85.6938 44.8089 85.4348 47.6583 84.8525 49.0846 84.3661 49.7314 84.246 49.8909 83.8956 50.1469 83.3682 50.5077 81.7675 51.61 78.5472 53.703 75.3272 57.1175 71.8105 60.8473 62.8605 66.4179 57.126 68.7113 55.085 69.5276 52.8118 69.5276 50.7709 68.7113 45.0363 66.4179 36.086 60.8473 32.568 57.1175 29.1418 53.4834 25.7172 51.3471 24.2411 50.3083 23.8737 50.0506 23.6278 49.8609 23.5311 49.7314 23.0441 49.0846 22.4624 47.6583 22.2031 44.8089 22.0352 42.9688 22.138 42.4251 22.1614 41.9911 22.1663 41.9097 22.1679 41.8333 22.1647 41.7516 22.1582 41.5938 22.1331 41.4227 22.0733 41.18 21.8188 40.1623 21.9386 35.6458 21.9438 34.2559L21.9438 34.1827C21.9438 32.8875 21.4248 31.074 20.9079 30.0368 20.3893 29.0009 21.0377 28.5587 21.0377 28.5587 21.0377 28.5587 21.0377 27.666 21.0227 26.5422 21.0061 25.3768 20.9742 23.9622 20.9079 23.0395 20.8067 21.6165 20.1449 20.6707 19.6777 19.6465 19.5499 19.3673 19.435 19.0797 19.352 18.7755 19.2688 18.4746 20.6684 17.8925 22.9458 17.1595 31.386 14.4432 51.907 9.66545 53.9486 9.56394 55.9667 9.66545 76.057 14.3384 84.6651 17.0665 87.112 17.8444 88.6314 18.4629 88.5448 18.7755 88.4606 19.0846 88.3441 19.3774 88.2123 19.6614 87.7451 20.6804 87.0905 21.623 86.989 23.0395 86.9305 23.8493 86.8973 25.0378 86.8813 26.1033" fill="#B5D4FF" transform="matrix(1 0 0 1.00434 1588.02 536.168)"/><path d="M21.038 28.5594C21.038 28.5594 40.5091 28.2214 54.854 28.5594 69.1993 28.8971 86.8599 28.5594 86.8599 28.5594L84.9842 32.0605 56.1652 36.7562 22.0072 29.9376 21.038 28.5594" fill="#CFE3FF" transform="matrix(1 0 0 1.00434 1588.02 536.168)"/><path d="M86.8813 26.1033C86.8599 27.4249 86.8599 28.5587 86.8599 28.5587 86.8599 28.5587 87.5076 29.0009 86.989 30.0368 86.4707 31.074 85.9534 32.8875 85.9534 34.1827L85.9534 34.3607C85.9534 34.3955 85.9554 34.4303 85.9554 34.4687 85.9687 36.058 86.066 40.2108 85.8236 41.18 85.7638 41.4227 85.7387 41.5938 85.7319 41.7516 85.7104 42.2653 85.8919 42.6245 85.6938 44.8089 85.4348 47.6583 84.8525 49.0846 84.3661 49.7314 84.246 49.8909 83.8956 50.1469 83.3682 50.5077 83.0608 47.8493 82.7198 44.0193 82.4507 38.6862 82.045 30.6602 83.4984 22.2815 84.6651 17.0665 87.112 17.8444 88.6314 18.4629 88.5448 18.7755 88.4606 19.0846 88.3441 19.3774 88.2123 19.6614 87.7451 20.6804 87.0905 21.623 86.989 23.0395 86.9305 23.8493 86.8973 25.0378 86.8813 26.1033" fill="#96C2FF" transform="matrix(1 0 0 1.00434 1588.02 536.168)"/><path d="M25.1387 38.6862C24.8761 43.8879 24.5436 47.6583 24.2411 50.3083 23.8737 50.0506 23.6278 49.8609 23.5311 49.7314 23.0441 49.0846 22.4624 47.6583 22.2031 44.8089 22.0352 42.9688 22.138 42.4251 22.1614 41.9911 22.1663 41.9097 22.1679 41.8333 22.1647 41.7516 22.1582 41.5938 22.1331 41.4227 22.0733 41.18 21.8188 40.1623 21.9386 35.6458 21.9438 34.2559L21.9438 34.1827C21.9438 32.8875 21.4248 31.074 20.9079 30.0368 20.3893 29.0009 21.0377 28.5587 21.0377 28.5587 21.0377 28.5587 21.0377 27.666 21.0227 26.5422 21.0061 25.3768 20.9742 23.9622 20.9079 23.0395 20.8067 21.6165 20.1449 20.6707 19.6777 19.6465 19.5499 19.3673 19.435 19.0797 19.352 18.7755 19.2688 18.4746 20.6684 17.8925 22.9458 17.1595 24.1064 22.3794 25.5411 30.7067 25.1387 38.6862" fill="#96C2FF" transform="matrix(1 0 0 1.00434 1588.02 536.168)"/><path d="M88.2123 19.6614C87.7451 20.6804 87.0905 21.623 86.989 23.0395 86.9305 23.8493 86.8973 25.0378 86.8813 26.1033L53.9118 17.926 41.2642 20.7702 21.0227 26.5422C21.0061 25.3768 20.9742 23.9622 20.9079 23.0395 20.8067 21.6165 20.1449 20.6707 19.6777 19.6465L53.9486 10.7095 88.2123 19.6614" fill="#CFE3FF" transform="matrix(1 0 0 1.00434 1588.02 536.168)"/><path d="M76.7022 18.3871C76.7022 18.6314 76.3117 20.2454 75.7248 20.2454 75.1363 20.2454 59.5313 15.3047 53.9489 15.3047 48.3663 15.3047 32.7613 20.2454 32.1727 20.2454 31.5858 20.2454 31.195 18.6314 31.195 18.3871 31.195 18.1424 48.1119 13.1519 53.9489 13.1519 59.7857 13.1519 76.7022 18.1424 76.7022 18.3871" fill="#ABCEFF" transform="matrix(1 0 0 1.00434 1588.02 536.168)"/><path d="M52.0837 11.4789C51.9884 11.4789 51.9028 11.4132 51.881 11.3166 51.856 11.2047 51.9262 11.0937 52.0382 11.0683 53.469 10.7463 53.8139 10.7088 53.9486 10.7088 54 10.7088 54.0683 10.7147 54.1581 10.7264 54.272 10.7417 54.352 10.8461 54.3371 10.96 54.3215 11.0739 54.217 11.1516 54.1035 11.1386 54.0156 11.1269 53.9711 11.1246 53.9486 11.1246 53.8266 11.1246 53.4118 11.1848 52.1296 11.4737 52.1143 11.4773 52.0987 11.4789 52.0837 11.4789ZM58.1902 12.0314C58.1742 12.0314 58.1576 12.0298 58.1414 12.0258 57.3693 11.8401 56.6903 11.6803 56.1239 11.5515 56.012 11.5261 55.9417 11.4145 55.9674 11.3026 55.9928 11.1907 56.1044 11.1204 56.216 11.1461 56.7843 11.2756 57.4646 11.4357 58.2386 11.6214 58.3502 11.6484 58.4189 11.7607 58.3922 11.8723 58.3691 11.9676 58.2839 12.0314 58.1902 12.0314ZM48.0471 12.4446C47.9541 12.4446 47.8691 12.3811 47.8457 12.2865 47.8181 12.1752 47.8861 12.0623 47.9977 12.035 48.7203 11.8563 49.3963 11.6911 50.0145 11.5424 50.1264 11.5144 50.2383 11.584 50.265 11.6956 50.292 11.8072 50.2234 11.9195 50.1118 11.9461 49.4943 12.0951 48.8192 12.2598 48.0972 12.4384 48.0806 12.4426 48.0637 12.4446 48.0471 12.4446ZM62.219 13.0227C62.202 13.0227 62.1851 13.0208 62.1685 13.0165 61.4687 12.8415 60.7952 12.6743 60.1562 12.5168 60.0447 12.4891 59.9767 12.3766 60.004 12.2653 60.0316 12.1537 60.1436 12.086 60.2555 12.113 60.8954 12.2708 61.5689 12.4384 62.2691 12.6134 62.3807 12.6414 62.448 12.754 62.4203 12.8652 62.3966 12.9599 62.312 13.0227 62.219 13.0227ZM44.0242 13.4545C43.9315 13.4545 43.8469 13.392 43.8228 13.298 43.7945 13.1867 43.8618 13.0735 43.9734 13.0455 44.6645 12.8698 45.3366 12.7 45.9844 12.5373 46.0963 12.5087 46.2086 12.5767 46.2362 12.6879 46.2645 12.7995 46.1969 12.9121 46.0856 12.9401 45.4381 13.1028 44.7663 13.2729 44.0756 13.4483 44.0583 13.4525 44.0411 13.4545 44.0242 13.4545ZM66.2396 14.0381C66.2227 14.0381 66.2055 14.0359 66.1882 14.0316 65.506 13.8582 64.8348 13.6877 64.1789 13.5221 64.0679 13.4938 64.0002 13.3809 64.0282 13.2697 64.0568 13.1584 64.1691 13.0904 64.2807 13.119 64.9366 13.2849 65.6084 13.4551 66.2907 13.6288 66.402 13.6571 66.4693 13.7704 66.441 13.8816 66.4169 13.9757 66.3323 14.0381 66.2396 14.0381ZM40.0074 14.4829C39.9147 14.4829 39.8304 14.4207 39.8064 14.327 39.7777 14.2158 39.8444 14.1025 39.9557 14.0739 40.6331 13.8992 41.3039 13.7268 41.9641 13.5582 42.075 13.5299 42.1882 13.5966 42.2165 13.7079 42.2452 13.8192 42.1782 13.9324 42.0669 13.9607 41.4074 14.1296 40.7365 14.302 40.0595 14.4764 40.0419 14.4806 40.0247 14.4829 40.0074 14.4829ZM70.256 15.0669C70.2388 15.0669 70.2215 15.0646 70.2043 15.0604 69.5321 14.887 68.8616 14.7149 68.1966 14.5447 68.0856 14.5161 68.0183 14.4028 68.0469 14.2919 68.0752 14.1806 68.1888 14.1133 68.2994 14.1419 68.965 14.3124 69.6356 14.4845 70.3078 14.6576 70.419 14.6862 70.4857 14.7998 70.4574 14.9107 70.433 15.0044 70.3488 15.0669 70.256 15.0669ZM35.9917 15.5224C35.8993 15.5224 35.8153 15.4606 35.7909 15.3672 35.762 15.2559 35.8287 15.1427 35.9396 15.1137 36.6085 14.9397 37.2797 14.7656 37.9483 14.5925 38.0592 14.5636 38.1728 14.6306 38.2014 14.7415 38.2304 14.8528 38.1637 14.966 38.0524 14.9947 37.3838 15.1677 36.713 15.3421 36.0444 15.5159 36.0268 15.5204 36.0092 15.5224 35.9917 15.5224ZM74.2731 16.1047C74.2555 16.1047 74.238 16.1028 74.2207 16.0982 73.5577 15.9261 72.8871 15.7527 72.2143 15.5787 72.103 15.5497 72.0363 15.4365 72.065 15.3255 72.0936 15.2143 72.2071 15.1469 72.3181 15.1762 72.9916 15.3503 73.6618 15.524 74.3248 15.6958 74.4364 15.7247 74.5031 15.838 74.4742 15.9492 74.4498 16.0429 74.3655 16.1047 74.2731 16.1047ZM31.9801 16.5697C31.888 16.5697 31.8038 16.5075 31.7794 16.4141 31.7501 16.3032 31.8168 16.19 31.9277 16.1607L33.9335 15.6362C34.0448 15.607 34.158 15.6737 34.1869 15.7849 34.2159 15.8959 34.1495 16.0094 34.0386 16.0384L32.0331 16.5628C32.0152 16.5674 31.9977 16.5697 31.9801 16.5697ZM78.2863 17.1491C78.2687 17.1491 78.2511 17.1468 78.2336 17.1423L76.2271 16.6194C76.1162 16.5908 76.0495 16.4773 76.0785 16.366 76.1071 16.2551 76.2203 16.1884 76.3319 16.2173L78.3383 16.7398C78.4496 16.7691 78.516 16.8823 78.487 16.9936 78.4626 17.087 78.3784 17.1491 78.2863 17.1491ZM27.9692 17.6231C27.8771 17.6231 27.7929 17.5613 27.7685 17.4683 27.7392 17.357 27.8056 17.2435 27.9165 17.2142L29.922 16.6868C30.0332 16.6572 30.1464 16.7242 30.1757 16.8351 30.205 16.9461 30.1386 17.0596 30.0277 17.0889L28.0222 17.6163C28.0044 17.6209 27.9868 17.6231 27.9692 17.6231ZM82.2991 18.199C82.2816 18.199 82.264 18.1971 82.2461 18.1922L80.2397 17.6664C80.1287 17.6375 80.0624 17.5239 80.0913 17.413 80.1203 17.302 80.2328 17.2344 80.3451 17.2646L82.3518 17.7904C82.4624 17.8193 82.5288 17.9329 82.4999 18.0441 82.4755 18.1372 82.3915 18.199 82.2991 18.199ZM23.9577 18.6818C23.8656 18.6818 23.7813 18.6203 23.7569 18.527 23.7276 18.416 23.7937 18.3025 23.9046 18.2732L25.9107 17.7429C26.0217 17.7146 26.1352 17.7796 26.1648 17.8906 26.1938 18.0018 26.1277 18.1154 26.0168 18.1447L24.0107 18.675C23.9931 18.6795 23.9752 18.6818 23.9577 18.6818ZM86.3133 19.2548C86.296 19.2548 86.2775 19.2525 86.2602 19.2479 85.712 19.1031 85.035 18.9249 84.2528 18.7192 84.1419 18.69 84.0755 18.5764 84.1045 18.4655 84.1338 18.3545 84.247 18.2878 84.3586 18.3174 85.1407 18.5231 85.8178 18.7013 86.366 18.8461 86.4776 18.8754 86.5433 18.989 86.514 19.0999 86.4893 19.1933 86.405 19.2548 86.3133 19.2548ZM19.9351 19.7493C19.8433 19.7493 19.7591 19.6881 19.7343 19.5951 19.7047 19.4845 19.7708 19.3703 19.8817 19.3407 19.8817 19.3407 20.6274 19.1419 21.8982 18.8048 22.0088 18.7762 22.1227 18.8416 22.1523 18.9525 22.1819 19.0635 22.1155 19.177 22.0049 19.2066 20.7344 19.5437 19.9887 19.7425 19.9887 19.7425 19.9709 19.747 19.953 19.7493 19.9351 19.7493" fill="#447DCF" transform="matrix(1 0 0 1.00434 1588.02 536.168)"/><path d="M55.468 18.457C55.4537 18.457 55.4384 18.4557 55.4237 18.4521 54.4031 18.2293 54.0582 18.1824 53.9486 18.1824 53.9053 18.1824 53.783 18.1912 53.4528 18.2514 53.3399 18.2716 53.2319 18.1971 53.2114 18.0842 53.1909 17.9713 53.2654 17.8632 53.3786 17.8428 53.7518 17.7744 53.8826 17.7669 53.9486 17.7669 54.0709 17.7669 54.3663 17.7956 55.5122 18.0464 55.6245 18.0708 55.6954 18.1818 55.6707 18.2937 55.6498 18.391 55.5636 18.457 55.468 18.457ZM49.3638 19.1692C49.2701 19.1692 49.1849 19.1051 49.1621 19.0098 49.1351 18.8985 49.2037 18.7863 49.3153 18.7593 50.063 18.5787 50.7423 18.418 51.3364 18.2807 51.4486 18.254 51.5599 18.3249 51.5856 18.4365 51.6113 18.5484 51.5417 18.66 51.4298 18.6857 50.8366 18.8224 50.1593 18.9828 49.4129 19.163 49.3963 19.1672 49.3801 19.1692 49.3638 19.1692ZM59.5075 19.4113C59.4909 19.4113 59.4743 19.409 59.4577 19.4051 58.7312 19.2268 58.0558 19.0631 57.4428 18.9171 57.3309 18.8907 57.2619 18.7785 57.2886 18.6669 57.3153 18.5553 57.4282 18.4863 57.5388 18.513 58.1528 18.6587 58.8295 18.8227 59.557 19.0016 59.6682 19.0286 59.7365 19.1415 59.7092 19.2528 59.6858 19.3475 59.6009 19.4113 59.5075 19.4113ZM45.3363 20.1625C45.2433 20.1625 45.1583 20.0994 45.1349 20.005 45.1069 19.8937 45.1746 19.7809 45.2859 19.7529 45.9834 19.5782 46.6569 19.4109 47.2995 19.2518 47.4104 19.2248 47.5233 19.2925 47.551 19.4041 47.5783 19.5154 47.5103 19.6279 47.399 19.6556 46.7571 19.814 46.084 19.9816 45.3871 20.1563 45.3701 20.1605 45.3529 20.1625 45.3363 20.1625ZM63.5317 20.4163C63.5148 20.4163 63.4976 20.4143 63.4807 20.4101 62.789 20.235 62.1168 20.0659 61.47 19.9042 61.3587 19.8765 61.2911 19.7636 61.319 19.6523 61.3467 19.5407 61.4602 19.4737 61.5709 19.5011 62.218 19.6627 62.8905 19.8319 63.5825 20.007 63.6938 20.0353 63.7611 20.1482 63.7328 20.2594 63.709 20.3535 63.6245 20.4163 63.5317 20.4163ZM41.3163 21.1792C41.2236 21.1792 41.139 21.1167 41.1149 21.0227 41.0866 20.9114 41.154 20.7985 41.2649 20.7702 41.9455 20.5965 42.617 20.426 43.2749 20.2594 43.3852 20.2311 43.4991 20.2988 43.5274 20.4101 43.5554 20.5213 43.488 20.6342 43.3767 20.6625 42.7192 20.8288 42.048 20.9996 41.3677 21.173 41.3505 21.1772 41.3332 21.1792 41.3163 21.1792ZM67.5495 21.4414C67.5322 21.4414 67.5146 21.4391 67.4974 21.4349 66.8204 21.2609 66.1495 21.0888 65.4897 20.9205 65.3784 20.8922 65.3114 20.7793 65.3397 20.6681 65.368 20.5565 65.4809 20.4895 65.5922 20.5181 66.2523 20.6863 66.9235 20.8584 67.6012 21.0321 67.7121 21.0608 67.7792 21.1743 67.7505 21.2853 67.7264 21.379 67.6419 21.4414 67.5495 21.4414ZM37.3002 22.2089C37.2075 22.2089 37.1232 22.1468 37.0991 22.0528 37.0702 21.9418 37.1372 21.8283 37.2485 21.7996 37.9184 21.6269 38.5892 21.4548 39.2562 21.2836 39.3675 21.2557 39.4807 21.3224 39.5093 21.4333 39.5376 21.5446 39.4706 21.6578 39.3593 21.6864 38.6927 21.8572 38.0222 22.0297 37.3523 22.2021 37.3347 22.2066 37.3174 22.2089 37.3002 22.2089ZM71.5662 22.4786C71.549 22.4786 71.5314 22.4764 71.5138 22.4718 70.8456 22.2987 70.1744 22.125 69.5045 21.9519 69.3935 21.9229 69.3268 21.8097 69.3555 21.6988 69.3841 21.5875 69.4977 21.5205 69.6086 21.5494 70.2785 21.7225 70.95 21.8966 71.6179 22.0697 71.7292 22.0983 71.7959 22.2119 71.767 22.3228 71.7429 22.4165 71.6586 22.4786 71.5662 22.4786ZM33.289 23.2468C33.1966 23.2468 33.1123 23.1846 33.0879 23.0909 33.0593 22.98 33.1257 22.8665 33.2369 22.8375 33.8971 22.6664 34.5679 22.4923 35.2437 22.3176 35.3549 22.2886 35.4682 22.3557 35.4968 22.4666 35.5258 22.5779 35.4591 22.6911 35.3478 22.7197 34.672 22.8948 34.0015 23.0685 33.3414 23.24 33.3238 23.2445 33.3062 23.2468 33.289 23.2468ZM75.5781 23.5237C75.5608 23.5237 75.5429 23.5214 75.5254 23.5168 74.8685 23.3447 74.1983 23.1703 73.5196 22.9933 73.4087 22.9647 73.3423 22.8512 73.3712 22.7399 73.3999 22.629 73.5134 22.5626 73.6247 22.5912 74.303 22.7679 74.9736 22.9429 75.6308 23.1147 75.7417 23.144 75.8081 23.2572 75.7788 23.3685 75.7547 23.4618 75.6705 23.5237 75.5781 23.5237ZM29.2758 24.2921C29.1837 24.2921 29.0995 24.2303 29.0751 24.1369 29.0461 24.026 29.1125 23.9121 29.2238 23.8835 29.8709 23.7143 30.5417 23.5389 31.2302 23.3597 31.3408 23.3311 31.4547 23.3971 31.4836 23.5084 31.5126 23.6193 31.4462 23.7329 31.3349 23.7618 30.6465 23.9414 29.9756 24.1161 29.3288 24.2853 29.311 24.2902 29.2934 24.2921 29.2758 24.2921ZM79.59 24.5755C79.5727 24.5755 79.5548 24.5732 79.5372 24.5687L77.5315 24.0419C77.4205 24.013 77.3542 23.8991 77.3831 23.7882 77.4121 23.6772 77.5256 23.6102 77.6369 23.6398L79.6427 24.1665C79.7536 24.1958 79.8203 24.3094 79.7907 24.4203 79.7663 24.5137 79.682 24.5755 79.59 24.5755ZM25.2626 25.3437C25.1706 25.3437 25.0863 25.2818 25.0619 25.1888 25.0326 25.0778 25.099 24.964 25.2099 24.935L27.2167 24.4083C27.3273 24.3787 27.4415 24.4457 27.4705 24.5566 27.4997 24.6676 27.433 24.7811 27.3221 24.8104L25.3157 25.3368C25.2978 25.3417 25.2802 25.3437 25.2626 25.3437ZM83.6025 25.6332C83.5849 25.6332 83.5664 25.6309 83.5491 25.6264L81.543 25.0967C81.4321 25.0674 81.3657 24.9539 81.395 24.8429 81.4243 24.7317 81.5381 24.6653 81.6491 24.6946L83.6549 25.2243C83.7664 25.2535 83.8322 25.3674 83.8032 25.4783 83.7782 25.5717 83.6939 25.6332 83.6025 25.6332ZM21.2387 26.404C21.1467 26.404 21.0627 26.3425 21.038 26.2494 21.0087 26.1382 21.0748 26.0246 21.1857 25.9953 21.1857 25.9953 21.9334 25.7975 23.2032 25.4627 23.3138 25.4335 23.4277 25.4995 23.457 25.6108 23.4862 25.7214 23.4199 25.8356 23.3089 25.8645 22.0397 26.199 21.2921 26.3971 21.2921 26.3971 21.2742 26.4017 21.2563 26.404 21.2387 26.404ZM86.54 26.4114C86.5225 26.4114 86.5042 26.4092 86.4867 26.4046L85.5572 26.158C85.4462 26.1284 85.3799 26.0145 85.4098 25.9039 85.4387 25.793 85.5529 25.7272 85.6639 25.7562L86.5934 26.0028C86.704 26.0324 86.7707 26.1463 86.7408 26.2572 86.7157 26.3503 86.6315 26.4114 86.54 26.4114" fill="#447DCF" transform="matrix(1 0 0 1.00434 1588.02 536.168)"/><path d="M86.9897 30.0371C86.4707 31.0747 85.9534 32.8882 85.9534 34.183L85.9534 34.361C81.4766 36.642 69.0949 42.1895 55.4615 41.7256 41.7848 41.2603 27.4682 36.3378 22.2629 34.3779 22.1517 34.3363 22.0453 34.2963 21.9438 34.2566L21.9438 34.183C21.9438 32.8882 21.4252 31.0747 20.9082 30.0371 20.3896 29.0015 21.038 28.5594 21.038 28.5594 21.038 28.5594 42.5829 32.1652 55.0545 32.5807 67.5241 32.9962 86.8599 28.5594 86.8599 28.5594 86.8599 28.5594 87.5076 29.0015 86.9897 30.0371" fill="#96C2FF" transform="matrix(1 0 0 1.00434 1588.02 536.168)"/><path d="M85.8236 41.1803C85.7638 41.423 85.7397 41.5945 85.7328 41.7523 85.5279 41.9468 69.9079 56.7323 55.9788 56.2218 40.5979 55.6567 28.9794 47.5324 22.7386 42.4638 22.5408 42.3041 22.3478 42.1463 22.1617 41.9917L22.165 41.7523C22.1582 41.5945 22.1334 41.423 22.0736 41.1803 21.8192 40.1629 21.9389 35.6461 21.9438 34.2566L21.9438 34.183C21.9438 34.183 22.0534 34.2514 22.2629 34.3779 24.6952 35.8391 40.6262 45.0272 56.4473 44.9059 72.337 44.7829 83.8488 36.1599 85.9554 34.4693 85.9687 36.0583 86.067 40.2111 85.8236 41.1803" fill="#87B9FF" transform="matrix(1 0 0 1.00434 1588.02 536.168)"/><g clip-path="url(#clip4)"><path d="M85.6945 44.8092C85.4348 47.659 84.8534 49.0853 84.3661 49.7318 83.8806 50.3802 79.6049 52.5828 75.3276 57.1178 71.5747 61.0985 61.633 67.176 56.0159 69.1284 54.6777 69.5936 53.2198 69.5936 51.8817 69.1284 46.2645 67.176 36.3229 61.0985 32.5683 57.1178 28.2926 52.5828 24.0169 50.3802 23.5315 49.7318 23.0444 49.0853 22.4624 47.659 22.2031 44.8092 22.0352 42.9691 22.1383 42.4254 22.1617 41.9917L22.165 41.7523C22.165 41.7523 22.3612 42.0099 22.7386 42.4638 25.5581 45.8617 38.53 60.2682 55.4716 59.8644 74.5246 59.4086 85.5598 42.0265 85.7312 41.7555 85.7111 42.266 85.8919 42.6252 85.6945 44.8092" fill="#96C2FF" transform="matrix(1 0 0 1.00434 1588.02 536.168)"/></g><path d="M84.1536 19.6052C84.1413 19.6052 84.1279 19.6039 84.1155 19.6006 84.0254 19.5795 83.9704 19.4897 83.9922 19.4005 84.287 18.1661 84.5027 17.3921 84.5053 17.3847 84.5294 17.2962 84.6228 17.2448 84.71 17.2692 84.7985 17.2939 84.8499 17.3856 84.8251 17.4741 84.8235 17.4819 84.6085 18.2501 84.3153 19.4776 84.2971 19.5541 84.2288 19.6052 84.1536 19.6052ZM83.2934 23.6538C83.283 23.6538 83.2729 23.6528 83.2625 23.6512 83.1724 23.6343 83.1128 23.5474 83.1294 23.4573 83.2534 22.79 83.39 22.1058 83.5348 21.4235 83.554 21.3337 83.6431 21.2765 83.7323 21.2953 83.8221 21.3145 83.8797 21.403 83.8605 21.4928 83.7157 22.1725 83.5797 22.8538 83.4567 23.5178 83.4414 23.5978 83.3715 23.6538 83.2934 23.6538ZM82.6609 27.7424C82.6544 27.7424 82.6476 27.7418 82.6407 27.7411 82.5496 27.7301 82.4846 27.6474 82.4956 27.5563 82.5744 26.8972 82.67 26.2062 82.7797 25.5021 82.7937 25.4113 82.8792 25.3498 82.9693 25.3632 83.0601 25.3775 83.1223 25.4624 83.1083 25.5532 82.9993 26.2533 82.9043 26.9408 82.8259 27.5957 82.8155 27.6803 82.7439 27.7424 82.6609 27.7424ZM82.3619 31.8682C82.2676 31.8669 82.1944 31.7911 82.1957 31.6997 82.2054 31.048 82.238 30.3491 82.2923 29.623 82.2991 29.5315 82.3788 29.4609 82.4706 29.4697 82.562 29.4766 82.6307 29.5563 82.6238 29.6477 82.5698 30.3674 82.5379 31.0594 82.5282 31.7042 82.5269 31.7953 82.4527 31.8682 82.3619 31.8682ZM82.5067 36.003C82.4189 36.003 82.3453 35.9341 82.3408 35.8452 82.305 35.1337 82.2715 34.4401 82.2412 33.7767 82.237 33.6849 82.3082 33.6072 82.3997 33.6029 82.4917 33.5945 82.5692 33.6696 82.5734 33.7614 82.6037 34.4244 82.6372 35.1178 82.673 35.8283 82.6775 35.9201 82.6069 35.9982 82.5155 36.0027 82.5126 36.003 82.5096 36.003 82.5067 36.003ZM82.7279 40.1346C82.6404 40.1346 82.5669 40.0666 82.562 39.9778 82.5236 39.2917 82.4852 38.599 82.4481 37.9109 82.4436 37.8191 82.5139 37.7411 82.6053 37.7358 82.6967 37.7313 82.7754 37.8016 82.7806 37.8933 82.8171 38.5808 82.8551 39.2731 82.8939 39.9593 82.8991 40.0507 82.8291 40.1294 82.7374 40.1343 82.7341 40.1346 82.7309 40.1346 82.7279 40.1346ZM82.9684 44.2672C82.8809 44.2672 82.8076 44.1992 82.8024 44.111 82.7631 43.4509 82.7221 42.7576 82.6804 42.0444 82.6752 41.9527 82.7452 41.8743 82.8366 41.8687 82.9329 41.8626 83.0071 41.9335 83.0123 42.0249 83.0539 42.7381 83.0949 43.4311 83.1343 44.0912 83.1398 44.1826 83.0702 44.2614 82.9785 44.2669 82.9749 44.2672 82.9716 44.2672 82.9684 44.2672ZM83.2228 48.4008C83.1356 48.4008 83.0624 48.3331 83.0569 48.2449 83.0208 47.6733 82.9771 46.9722 82.928 46.178 82.9225 46.0862 82.9924 46.0075 83.0839 46.002 83.1789 46 83.2547 46.0661 83.2599 46.1575 83.309 46.9517 83.3526 47.6525 83.389 48.2241 83.3949 48.3158 83.325 48.3946 83.2332 48.4004 83.2296 48.4004 83.2264 48.4008 83.2228 48.4008" fill="#447DCF" transform="matrix(1 0 0 1.00434 1588.02 536.168)"/><path d="M23.4697 19.7532C23.3922 19.7532 23.3226 19.6989 23.3067 19.6198 23.0558 18.376 22.8759 17.6043 22.8743 17.5965 22.8534 17.507 22.9091 17.4175 22.9982 17.3967 23.088 17.3762 23.1772 17.4315 23.198 17.5207 23.1999 17.5285 23.3808 18.3047 23.6326 19.5541 23.6509 19.6442 23.5926 19.7317 23.5025 19.7499 23.4914 19.7522 23.4804 19.7532 23.4697 19.7532ZM24.2098 23.8262C24.1298 23.8262 24.0592 23.768 24.0458 23.6863 23.9382 23.0187 23.8204 22.3335 23.6961 21.6497 23.6795 21.5595 23.7394 21.473 23.8298 21.4564 23.9203 21.4385 24.0065 21.4997 24.0231 21.5901 24.148 22.2759 24.2661 22.9637 24.3741 23.6333 24.3888 23.7241 24.3273 23.8093 24.2368 23.824 24.2277 23.8256 24.2186 23.8262 24.2098 23.8262ZM24.7808 27.925C24.6975 27.925 24.6256 27.8625 24.6162 27.7779 24.5404 27.1162 24.4522 26.4267 24.3546 25.7292 24.3419 25.6384 24.4054 25.5542 24.4961 25.5415 24.5869 25.5278 24.6712 25.5922 24.6838 25.683 24.7818 26.3835 24.8703 27.0755 24.9464 27.7398 24.9568 27.8313 24.8914 27.9136 24.8003 27.924 24.7938 27.925 24.7873 27.925 24.7808 27.925ZM25.1224 32.0491C25.0339 32.0491 24.9604 31.9798 24.9565 31.8906 24.9266 31.2373 24.8813 30.545 24.8211 29.8322 24.8137 29.7404 24.8813 29.6604 24.9731 29.6526 25.0655 29.6412 25.1449 29.7128 25.1527 29.8042 25.2129 30.5212 25.2587 31.2181 25.2883 31.8753 25.2926 31.9671 25.2216 32.0449 25.1299 32.0491 25.1273 32.0491 25.1247 32.0491 25.1224 32.0491ZM25.14 36.1862C25.0443 36.1839 24.9715 36.1081 24.9737 36.0161 24.9897 35.2967 24.9988 34.6018 25.0001 33.9504 25.0004 33.8587 25.0749 33.7845 25.1663 33.7845 25.2587 33.7848 25.3329 33.8593 25.3326 33.9511 25.331 34.6047 25.3222 35.3019 25.3062 36.0235 25.3043 36.114 25.2301 36.1862 25.14 36.1862ZM24.9874 40.3224C24.9845 40.3224 24.9819 40.3224 24.9789 40.3224 24.8872 40.3178 24.8166 40.2397 24.8211 40.148 24.8566 39.4374 24.8869 38.7425 24.9116 38.0827 24.9152 37.9909 24.9929 37.9164 25.0837 37.9229 25.1758 37.9262 25.2474 38.0033 25.2438 38.095 25.219 38.7561 25.1888 39.4524 25.1533 40.1646 25.1488 40.2534 25.0752 40.3224 24.9874 40.3224ZM24.7392 44.4536C24.7353 44.4536 24.7313 44.4536 24.7274 44.4533 24.6357 44.4468 24.5667 44.3674 24.5729 44.276 24.6185 43.6237 24.664 42.9313 24.7073 42.2123 24.7128 42.1206 24.7915 42.049 24.8833 42.0561 24.9747 42.062 25.0447 42.1404 25.0391 42.2325 24.9959 42.9525 24.9503 43.6458 24.9048 44.2988 24.8986 44.3866 24.8257 44.4536 24.7392 44.4536ZM24.4154 48.581C24.4102 48.581 24.4054 48.581 24.4008 48.5807 24.309 48.5725 24.2414 48.4919 24.2495 48.4001 24.2964 47.8665 24.3559 47.1644 24.4203 46.3384 24.4278 46.247 24.5088 46.1793 24.5993 46.1858 24.6907 46.193 24.7593 46.273 24.7522 46.3644 24.6871 47.1918 24.6276 47.8948 24.5807 48.4297 24.5732 48.5159 24.5004 48.581 24.4154 48.581" fill="#447DCF" transform="matrix(1 0 0 1.00434 1588.02 536.168)"/><path d="M83.8097 31.5038C83.8048 31.5038 83.8006 31.5038 83.7954 31.5031 83.704 31.4953 83.6366 31.4147 83.6441 31.3232 83.7456 30.1484 83.8348 29.2648 83.8354 29.2563 83.8449 29.1649 83.9255 29.0995 84.0179 29.1076 84.1087 29.1167 84.1754 29.1984 84.1663 29.2895 84.1653 29.2986 84.0762 30.1796 83.9753 31.3519 83.9678 31.4387 83.8956 31.5038 83.8097 31.5038ZM83.5257 35.6347C83.4274 35.6312 83.3559 35.5534 83.3601 35.462 83.3832 34.8822 83.4232 34.185 83.4798 33.3898 83.4866 33.2981 83.5631 33.2285 83.6575 33.2356 83.7489 33.2421 83.8182 33.3218 83.8113 33.4133 83.7557 34.2052 83.7147 34.8988 83.6913 35.4753 83.688 35.5648 83.6148 35.6347 83.5257 35.6347ZM83.6724 39.7709C83.5849 39.7709 83.5124 39.7036 83.5065 39.616 83.4492 38.7766 83.405 38.0807 83.3741 37.5468 83.3692 37.4551 83.4391 37.3767 83.5306 37.3715 83.6213 37.3653 83.7007 37.4362 83.7066 37.528 83.7365 38.0605 83.7804 38.7555 83.838 39.5933 83.8439 39.685 83.7746 39.7641 83.6832 39.7706 83.6799 39.7706 83.6757 39.7709 83.6724 39.7709ZM83.9698 43.9028C83.8839 43.9028 83.8107 43.8365 83.8048 43.7493 83.7713 43.3081 83.7147 42.5507 83.6516 41.6823 83.6448 41.5909 83.7141 41.5112 83.8055 41.5044 83.8963 41.4962 83.9763 41.5668 83.9828 41.6582 84.0462 42.5263 84.1029 43.2834 84.1364 43.7242 84.1429 43.8156 84.0746 43.8957 83.9828 43.9025 83.9789 43.9025 83.9737 43.9028 83.9698 43.9028" fill="#447DCF" transform="matrix(1 0 0 1.00434 1588.02 536.168)"/><path d="M85.0024 31.1537C84.9976 31.1537 84.9924 31.1534 84.9875 31.1531 84.8957 31.1453 84.8284 31.0643 84.8365 30.9728 84.939 29.7996 85.0298 28.915 85.0308 28.9062 85.0399 28.8148 85.1241 28.7507 85.2123 28.7575 85.304 28.767 85.3704 28.8486 85.3613 28.9401 85.3607 28.9488 85.2699 29.8309 85.1674 31.0018 85.1606 31.0883 85.0874 31.1537 85.0024 31.1537ZM84.7184 35.2847C84.6192 35.2811 84.5486 35.204 84.5518 35.1119 84.5743 34.5334 84.6143 33.8362 84.6709 33.0394 84.6777 32.948 84.7552 32.8764 84.8492 32.8856 84.9406 32.8921 85.0089 32.9714 85.0031 33.0632 84.9465 33.8561 84.9068 34.55 84.884 35.1249 84.8808 35.2144 84.8066 35.2847 84.7184 35.2847ZM84.8717 39.4208C84.7851 39.4208 84.7126 39.3535 84.7061 39.2656 84.6491 38.4363 84.6052 37.7404 84.5736 37.1971 84.5684 37.1053 84.6384 37.0266 84.7301 37.0214 84.8193 37.0159 84.9 37.0861 84.9058 37.1779 84.9367 37.7202 84.9816 38.4148 85.0382 39.2429 85.0441 39.3346 84.9748 39.414 84.8834 39.4205 84.8801 39.4205 84.8759 39.4208 84.8717 39.4208ZM85.1706 43.5531C85.0848 43.5531 85.0116 43.4864 85.0051 43.3992 84.9741 42.986 84.9165 42.2214 84.8525 41.3319 84.846 41.2405 84.9143 41.1608 85.0057 41.1543 85.0975 41.1491 85.1775 41.2164 85.184 41.3082 85.2481 42.197 85.3057 42.9613 85.3363 43.3741 85.3441 43.4659 85.2748 43.5456 85.183 43.5524 85.1791 43.5527 85.1749 43.5531 85.1706 43.5531" fill="#447DCF" transform="matrix(1 0 0 1.00434 1588.02 536.168)"/><path d="M23.8649 31.5038C23.7797 31.5038 23.7072 31.4387 23.6997 31.3519 23.5982 30.1796 23.509 29.2986 23.508 29.2895 23.4989 29.1984 23.5656 29.1167 23.6567 29.1076 23.7494 29.0995 23.8298 29.1649 23.8392 29.2563 23.8399 29.2648 23.929 30.1484 24.0306 31.3232 24.0387 31.4147 23.971 31.4953 23.8793 31.5031 23.8747 31.5038 23.8698 31.5038 23.8649 31.5038ZM24.1487 35.6347C24.0598 35.6347 23.9863 35.5648 23.9827 35.4753 23.9596 34.8988 23.9193 34.2052 23.863 33.4133 23.8565 33.3218 23.9255 33.2421 24.0172 33.2356 24.1086 33.2298 24.1883 33.2981 24.1949 33.3898 24.2515 34.185 24.2918 34.8822 24.3149 35.462 24.3188 35.5534 24.2472 35.6312 24.1555 35.6347 24.1532 35.6347 24.1509 35.6347 24.1487 35.6347ZM24.0029 39.7709C23.9993 39.7709 23.9954 39.7706 23.9915 39.7706 23.8998 39.7641 23.8308 39.685 23.837 39.5933 23.8946 38.7454 23.9388 38.0508 23.9684 37.528 23.9739 37.4362 24.054 37.3672 24.1441 37.3715 24.2355 37.3767 24.3058 37.4551 24.3006 37.5468 24.2707 38.071 24.2264 38.7669 24.1685 39.616 24.1626 39.7036 24.0898 39.7709 24.0029 39.7709ZM23.7049 43.9028C23.7006 43.9028 23.6964 43.9028 23.6922 43.9025 23.6004 43.8957 23.5318 43.8156 23.5389 43.7242 23.5721 43.2834 23.6287 42.5263 23.6912 41.6582 23.698 41.5668 23.7791 41.4962 23.8692 41.5044 23.9609 41.5112 24.0296 41.5909 24.0231 41.6823 23.9603 42.5507 23.9037 43.3081 23.8705 43.7493 23.864 43.8365 23.7911 43.9028 23.7049 43.9028" fill="#447DCF" transform="matrix(1 0 0 1.00434 1588.02 536.168)"/><path d="M22.6725 31.1537C22.587 31.1537 22.5144 31.0883 22.5069 31.0018 22.4045 29.8309 22.3143 28.9488 22.3134 28.9401 22.3039 28.8486 22.3706 28.767 22.4617 28.7575 22.5528 28.751 22.6348 28.8148 22.6439 28.9062 22.6449 28.915 22.7357 29.7996 22.8381 30.9728 22.8463 31.0643 22.7786 31.1453 22.6872 31.1531 22.682 31.1534 22.6771 31.1537 22.6725 31.1537ZM22.9569 35.2847C22.8681 35.2847 22.7942 35.2144 22.791 35.1249 22.7685 34.55 22.7285 33.8561 22.6719 33.0632 22.6654 32.9714 22.7344 32.8921 22.8261 32.8856 22.9182 32.879 22.9969 32.948 23.0034 33.0394 23.0604 33.8362 23.1007 34.5334 23.1228 35.1119 23.1264 35.204 23.0552 35.2811 22.9634 35.2847 22.9611 35.2847 22.9589 35.2847 22.9569 35.2847ZM22.8024 39.4208C22.7988 39.4208 22.7949 39.4205 22.791 39.4205 22.6996 39.414 22.6303 39.3346 22.6364 39.2429 22.6878 38.492 22.7353 37.7664 22.7692 37.1779 22.7744 37.0861 22.8547 37.0165 22.9449 37.0214 23.0363 37.0266 23.1066 37.1053 23.101 37.1971 23.0672 37.7866 23.0197 38.5134 22.9683 39.2656 22.9621 39.3535 22.8892 39.4208 22.8024 39.4208ZM22.5037 43.5531C22.4998 43.5531 22.4956 43.5527 22.491 43.5524 22.3996 43.5456 22.3309 43.4659 22.3378 43.3741 22.369 42.9613 22.4263 42.197 22.4907 41.3082 22.4972 41.2164 22.5782 41.1491 22.6686 41.1543 22.7601 41.1608 22.829 41.2405 22.8225 41.3319 22.7578 42.2214 22.7005 42.986 22.6696 43.3992 22.6628 43.4864 22.5899 43.5531 22.5037 43.5531" fill="#447DCF" transform="matrix(1 0 0 1.00434 1588.02 536.168)"/><path d="M24.1841 48.635C24.1438 48.635 24.1034 48.6207 24.0715 48.5911 23.1859 47.7758 22.5453 47.2009 22.5388 47.1953 22.4705 47.1339 22.465 47.0288 22.5261 46.9604 22.5873 46.8924 22.6924 46.8863 22.7607 46.9478 22.7672 46.9533 23.4095 47.5298 24.2967 48.3464 24.364 48.4089 24.3686 48.5137 24.3064 48.5813 24.2736 48.6171 24.229 48.635 24.1841 48.635ZM27.1955 51.4789C27.1539 51.4789 27.1119 51.4633 27.0794 51.4317 26.632 50.9948 26.1297 50.5136 25.586 50.0012 25.5193 49.938 25.5161 49.8329 25.5792 49.7663 25.6423 49.6996 25.7474 49.6963 25.8141 49.7594 26.3591 50.2728 26.8627 50.7556 27.3117 51.1939 27.3774 51.258 27.3787 51.3634 27.3146 51.4288 27.2821 51.4623 27.2388 51.4789 27.1955 51.4789ZM29.4238 53.8084C29.376 53.8084 29.3285 53.7879 29.2953 53.7479 29.1034 53.5159 28.847 53.2299 28.5327 52.8981 28.4696 52.8317 28.4725 52.7263 28.5392 52.6635 28.6059 52.6 28.711 52.603 28.7745 52.6697 29.0936 53.0067 29.3549 53.2979 29.5517 53.5364 29.6103 53.607 29.6005 53.7118 29.5296 53.7703 29.4987 53.796 29.4613 53.8084 29.4238 53.8084" fill="#447DCF" transform="matrix(1 0 0 1.00434 1588.02 536.168)"/><path d="M82.902 48.9226C82.8535 48.9226 82.805 48.9018 82.7725 48.8608 82.7149 48.7896 82.726 48.6848 82.7972 48.6272 82.8467 48.5875 82.8942 48.5501 82.9404 48.515 83.5065 48.0852 84.0179 47.7048 84.4601 47.3847 84.5352 47.331 84.6394 47.3479 84.6927 47.4221 84.7467 47.4966 84.7292 47.6007 84.655 47.6544 84.2145 47.9729 83.7056 48.3513 83.1415 48.7795 83.0979 48.813 83.0526 48.8481 83.0061 48.8859 82.9755 48.9106 82.9384 48.9226 82.902 48.9226ZM79.9615 51.8368C79.9208 51.8368 79.8805 51.8221 79.8486 51.7925 79.7813 51.7301 79.777 51.625 79.8392 51.5576 80.3653 50.9883 80.8468 50.482 81.2704 50.0532 81.3348 49.9881 81.4402 49.9872 81.5056 50.0519 81.5707 50.1163 81.5716 50.2214 81.5069 50.2868 81.0859 50.713 80.607 51.2167 80.0835 51.7834 80.0506 51.8185 80.0061 51.8368 79.9615 51.8368ZM77.2055 54.9341C77.1671 54.9341 77.1287 54.9207 77.0975 54.8941 77.0278 54.8342 77.0194 54.7294 77.0792 54.6598 77.0851 54.653 77.6554 53.986 78.4473 53.0952 78.5085 53.0262 78.6133 53.0201 78.6822 53.0816 78.7509 53.1424 78.7571 53.2475 78.6959 53.3161 77.9063 54.2047 77.3376 54.869 77.3317 54.8755 77.2989 54.9139 77.2523 54.9341 77.2055 54.9341" fill="#447DCF" transform="matrix(1 0 0 1.00434 1588.02 536.168)"/></g></g></g></g></svg>