<svg width="760" height="115" xmlns="http://www.w3.org/2000/svg" xmlns:xlink="http://www.w3.org/1999/xlink" overflow="hidden"><defs><clipPath id="clip0"><rect x="888" y="51" width="760" height="115"/></clipPath><clipPath id="clip1"><rect x="889" y="51" width="759" height="114"/></clipPath><clipPath id="clip2"><rect x="889" y="51" width="759" height="114"/></clipPath><clipPath id="clip3"><rect x="889" y="51" width="759" height="114"/></clipPath></defs><g clip-path="url(#clip0)" transform="translate(-888 -51)"><g clip-path="url(#clip1)"><g clip-path="url(#clip2)"><g clip-path="url(#clip3)"><path d="M20.6946 370.517C20.576 371.732 20.7539 371.821 24.6971 372.533L24.7861 372.147C23.274 370.694 24.8454 370.991 20.6946 370.517" fill="#FFBD59" transform="matrix(1 0 0 1.00132 889 -272)"/><path d="M5.18848 368.263C5.21813 367.255 4.56586 366.573 4.29902 365.743 3.55781 366.959 3.85429 367.878 5.18848 368.263" fill="#FFBD59" transform="matrix(1 0 0 1.00132 889 -272)"/><path d="M146.404 412.914C146.434 412.914 146.434 412.943 146.434 412.943 146.434 412.914 146.434 412.914 146.463 412.914L146.404 412.914" fill="#FFBD59" transform="matrix(1 0 0 1.00132 889 -272)"/><path d="M147.027 414.367C147.382 414.04 147.709 413.774 148.242 413.299 147.442 413.121 146.938 413.032 146.434 412.943 146.048 413.536 146.374 413.952 147.027 414.367" fill="#FFBD59" transform="matrix(1 0 0 1.00132 889 -272)"/><path d="M4.7734 370.279C5.01058 368.945 5.01058 368.945 4.26937 368.738 4.29902 369.271 3.97289 369.864 4.7734 370.279" fill="#FFBD59" transform="matrix(1 0 0 1.00132 889 -272)"/><path d="M329.098 417.776C327.852 417.717 327.022 418.369 326.014 418.666 327.497 419.407 328.623 419.11 329.098 417.776" fill="#FFBD59" transform="matrix(1 0 0 1.00132 889 -272)"/><path d="M554.1 412.914C554.1 412.914 554.1 412.943 554.1 412.943 554.129 412.914 554.129 412.914 554.129 412.914 554.129 412.914 554.1 412.914 554.1 412.914" fill="#FFBD59" transform="matrix(1 0 0 1.00132 889 -272)"/><path d="M554.841 414.367C555.256 414.04 555.671 413.774 556.353 413.299 555.345 413.121 554.722 413.032 554.1 412.943 553.625 413.536 554.011 413.952 554.841 414.367" fill="#FFBD59" transform="matrix(1 0 0 1.00132 889 -272)"/><path d="M329.691 418.666C330.343 418.636 331.084 418.992 331.588 418.191 329.928 417.954 329.928 417.954 329.691 418.666" fill="#FFBD59" transform="matrix(1 0 0 1.00132 889 -272)"/><path d="M744.472 400.699C743.85 400.106 744.413 399.602 744.205 399.038 745.154 399.424 745.184 399.839 744.472 400.699ZM730.893 405.176 730.893 404.701C732.702 405.057 732.82 405.087 732.969 405.116 732.257 405.116 731.575 405.146 730.893 405.176ZM737.742 410.868C738.009 410.72 738.216 410.631 738.394 410.661 738.543 410.838 738.513 411.105 738.543 411.372 738.039 411.372 737.89 411.135 737.742 410.868ZM718.945 416.145C718.085 417.065 717.967 417.065 717.285 416.057 717.878 416.086 718.352 416.116 718.945 416.145ZM699.081 422.787C699.851 420.444 702.816 423.469 704.21 420.919 705.662 422.876 701.927 423.558 699.081 422.787ZM695.701 428.657C694.307 428.479 694.159 428.183 694.485 426.374 695.256 426.315 696.086 426.048 696.738 426.641 696.383 427.323 696.027 428.005 695.701 428.657ZM654.43 410.156C654.193 412.321 648.945 410.838 651.554 413.181 654.104 415.493 646.366 414.633 643.786 413.744 643.608 410.661 636.611 412.143 634.536 410.572 633.202 409.593 631.571 409.148 629.733 409.089 628.992 409.06 628.428 408.911 627.984 408.704L655.734 408.704C654.964 409.178 654.489 409.682 654.43 410.156ZM642.748 417.658C643.519 417.154 643.519 417.154 644.646 417.213 644.676 417.302 644.676 417.391 644.705 417.48 644.142 417.539 643.549 417.598 642.748 417.658ZM578.204 410.512C577.196 411.016 576.632 411.58 577.048 412.558L576.721 412.677C573.608 411.52 572.541 410.038 572.749 408.704L580.783 408.704C580.546 409.148 579.835 409.712 578.204 410.512ZM568.865 417.183C569.369 416.976 569.873 416.768 570.258 416.59 572.126 419.733 568.568 418.636 568.865 417.183ZM404.612 408.852C404.553 409.267 403.812 409.475 403.337 409.119 403.1 408.941 402.863 408.793 402.596 408.704L404.583 408.704C404.583 408.763 404.612 408.793 404.612 408.852ZM490.682 419.051C490.178 419.051 489.911 418.695 489.525 418.399 488.369 419.496 488.725 419.822 487.272 419.822 487.658 418.399 487.48 413.833 490.86 414.841 490 416.946 492.638 416.62 490.682 419.051ZM493.469 423.854C493.202 425.277 486.768 424.447 485.701 423.587 486.264 422.668 494.269 419.674 493.469 423.854ZM466.785 420.178C466.755 420.059 466.755 419.911 466.726 419.763 475.857 415.671 473.663 423.024 466.785 420.178ZM448.077 422.431C447.78 421.957 448.077 421.156 446.861 420.949 441.584 423.32 437.848 414.218 434.379 418.577 428.301 414.841 435.802 417.302 436.484 415.464 435.713 414.989 434.972 414.515 434.261 414.07 435.536 412.884 439.597 412.469 441.554 413.24 441.05 414.07 440.25 414.96 441.525 415.167 442.829 415.345 442.622 414.544 442.622 413.566 448.314 414.544 448.344 416.442 449.352 418.162 447.514 418.784 447.217 417.746 443.333 417.42 443.837 419.614 444.904 420.178 448.462 420.148 449.619 421.957 450.123 422.401 448.077 422.431ZM354.032 410.661 351.512 410.661C351.275 409.771 351.927 409.356 352.579 408.941 354.151 409.445 354.151 409.445 354.032 410.661ZM351.334 408.704 351.453 408.704C351.423 408.733 351.393 408.763 351.364 408.793 351.364 408.763 351.364 408.733 351.334 408.704ZM338.437 409.623C338.229 408.585 339.83 409.237 342.558 409.979 341.372 410.423 340.601 410.305 338.437 409.623ZM322.071 413.596C322.99 412.973 323.85 413.566 324.769 413.329 324.146 414.278 323.464 414.337 322.071 413.596ZM315.252 410.008C315.193 409.86 315.133 409.741 315.074 409.593 315.815 409.267 316.527 408.763 316.823 409.386 317.12 410.008 316.171 409.949 315.252 410.008ZM227.789 410.156C227.611 412.321 223.371 410.838 225.476 413.181 227.522 415.493 221.266 414.633 219.161 413.744 219.013 410.661 213.35 412.143 211.66 410.572 210.593 409.593 209.259 409.148 207.776 409.089 207.183 409.06 206.709 408.911 206.383 408.704L228.856 408.704C228.234 409.178 227.848 409.682 227.789 410.156ZM280.118 416.145C279.437 417.065 279.348 417.065 278.784 416.057 279.259 416.086 279.644 416.116 280.118 416.145ZM264.019 422.787C264.642 420.444 267.043 423.469 268.17 420.919 269.386 422.876 266.332 423.558 264.019 422.787ZM261.292 428.657C260.165 428.479 260.017 428.183 260.313 426.374 260.936 426.315 261.588 426.048 262.122 426.641 261.825 427.323 261.559 428.005 261.292 428.657ZM218.331 417.658C218.983 417.154 218.983 417.154 219.873 417.213L219.932 417.48C219.458 417.539 218.983 417.598 218.331 417.658ZM165.972 410.512C165.171 411.016 164.697 411.58 165.053 412.558L164.786 412.677C162.236 411.52 161.376 410.038 161.554 408.704L168.077 408.704C167.869 409.148 167.306 409.712 165.972 410.512ZM158.412 417.183C158.827 416.976 159.212 416.768 159.538 416.59 161.05 419.733 158.174 418.636 158.412 417.183ZM94.9936 419.051C94.5785 419.051 94.371 418.695 94.0745 418.399 93.0961 419.496 93.4222 419.822 92.2363 419.822 92.5328 418.399 92.3845 413.833 95.1418 414.841 94.4599 416.946 96.565 416.62 94.9936 419.051ZM97.2469 423.854C97.0393 425.277 91.8212 424.447 90.9318 423.587 91.4061 422.668 97.8991 419.674 97.2469 423.854ZM75.6035 420.178 75.5442 419.763C82.9563 415.671 81.1774 423.024 75.6035 420.178ZM60.4532 422.431C60.1863 421.957 60.4235 421.156 59.4451 420.949 55.1757 423.32 52.1516 414.218 49.335 418.577 44.4134 414.841 50.4913 417.302 51.025 415.464 50.4023 414.989 49.8094 414.515 49.2164 414.07 50.2541 412.884 53.5451 412.469 55.1461 413.24 54.731 414.07 54.0788 414.96 55.1165 415.167 56.1838 415.345 56.0059 414.544 56.0059 413.566 60.6014 414.544 60.6311 416.442 61.4612 418.162 59.9788 418.784 59.7416 417.746 56.5989 417.42 57.014 419.614 57.8738 420.178 60.7496 420.148 61.6984 421.957 62.0838 422.401 60.4532 422.431ZM27.2469 401.054C26.7132 400.728 26.0313 400.432 25.4977 400.224 24.9936 399.987 24.6082 399.839 24.6082 399.839 24.5489 399.187 24.6971 398.801 24.7861 398.564 24.8454 398.297 24.9047 398.208 24.8157 398.149 24.9047 397.882 24.9047 397.615 24.9936 396.874 25.0233 396.637 24.6379 396.815 24.4303 396.844 24.2228 396.844 24.2228 396.666 25.0233 395.896 25.4384 395.51 26.2389 394.828 26.8911 394.324 27.2173 394.057 27.5138 393.82 27.6916 393.642 27.8695 393.464 27.9585 393.375 27.8695 393.287 27.8399 393.287 28.1067 393.079 28.3439 392.931 28.5218 392.812 28.6997 392.723 28.7886 392.634L28.7886 396.696C28.4625 396.726 28.1067 396.844 27.7213 397.052 27.4248 397.23 27.0987 397.437 26.8318 397.674 26.565 397.882 26.3575 398.149 26.3278 398.416 26.2092 398.92 26.7725 399.394 28.7886 399.691L28.7886 399.75C28.5514 400.195 28.2846 400.58 28.0474 400.847 27.7806 401.084 27.5138 401.203 27.2469 401.054ZM26.6243 405.353C26.3575 406.302 26.0906 407.221 26.0906 407.221 26.061 407.31 26.1499 407.607 26.2685 407.933 26.3575 408.259 26.4761 408.644 26.4168 408.852 26.2685 409.267 25.7052 409.475 25.5273 409.119 25.2308 408.555 24.7564 408.378 24.2524 408.318 23.7484 408.259 23.1554 408.289 22.6811 408.17 21.8509 407.962 21.9398 407.607 21.8213 407.251 21.673 406.925 21.3172 406.658 19.6569 406.688 19.2122 406.688 19.0639 406.569 19.5383 405.946 20.9614 405.176 21.6434 404.998 22.5328 405.264 22.7107 405.027 22.8589 404.79 23.0961 404.494 23.9559 404.583 24.371 404.672 24.6675 404.553 24.964 404.464 25.1122 404.168 25.468 403.486L27.158 403.486C27.158 403.486 26.8911 404.434 26.6243 405.353ZM22.0584 402.804C21.4358 402.893 21.0504 402.744 20.9318 402.329 21.9991 401.855 22.2956 402.033 22.0584 402.804ZM18.471 387.92C20.1609 385.904 22.1177 386.527 23.1258 385.874 22.5328 385.104 21.9991 384.392 21.4062 383.621 24.0449 380.152 18.8861 379.915 20.5167 383.503 18.3227 386.527 17.9373 387.298 17.4333 386.289 17.878 385.4 18.3227 384.481 18.7971 383.443 18.6192 383.176 18.382 382.821 18.1448 382.465 18.382 379.737 21.0504 380.775 17.8187 377.81 19.0639 377.691 19.9237 377.81 20.2499 379.026 20.5167 380.034 23.4223 380.004 23.2147 378.314 22.9479 376.209 25.8238 377.721 25.7052 376.179 23.274 374.727 19.6273 377.721 19.3011 376.209 19.0639 375.201 20.4871 375.29 22.2067 374.993 22.6514 372.266 21.3469 375.527 19.4494 372.058 20.0127 371.109 20.3388 370.101 20.0423 368.945 19.7755 367.937 21.3469 366.366 22.6811 367.552 21.8805 368.145 21.8805 368.145 21.6434 369.123 23.6002 369.479 27.1876 368.678 26.8022 372.533 28.5811 373.541 26.9208 375.586 26.3278 376.654 27.3359 378.67 28.166 379.559 28.7886 379.678L28.7886 392.367C28.759 392.367 28.759 392.338 28.7293 392.308 28.7293 392.041 28.6997 391.745 28.6997 391.508 28.6107 390.411 28.5218 389.58 28.3439 389.106 28.0474 388.187 27.5434 388.839 26.6836 392.219L26.6836 392.278C26.6836 392.278 26.6836 392.308 26.6836 392.308 26.6539 392.308 26.6539 392.308 26.6539 392.338 26.6539 392.338 26.6539 392.367 26.6539 392.367 26.6539 392.397 26.6539 392.427 26.6836 392.456 26.7429 392.486 26.8615 392.545 26.9208 392.575 27.0987 392.634 27.1876 392.694 26.7725 392.842 26.0313 392.931 25.4977 392.96 25.0826 392.901 24.6675 392.871 24.371 392.753 24.1042 392.605 23.9856 392.516 23.867 392.456 23.7484 392.367L23.6891 392.308C23.6595 392.249 23.6298 392.19 23.6002 392.13 23.5409 392.012 23.4816 391.893 23.4223 391.804 23.1851 391.359 22.9182 391.033 22.5328 390.944 21.9102 390.737 18.5006 388.039 18.471 387.92ZM17.7298 359.191C18.4413 358.509 19.1529 358.539 20.072 359.043 19.7162 359.517 19.4494 359.932 19.0343 360.466 19.4494 360.733 19.8348 360.999 20.2202 361.266 20.1313 361.503 18.5599 361.77 18.3227 361.83 18.0263 361.533 17.7298 361.237 17.374 360.881 17.6408 360.733 17.8484 360.614 18.0855 360.495 17.967 360.08 17.8484 359.665 17.7298 359.191ZM15.4172 387.446C15.0911 387.149 14.7353 386.853 14.172 386.319 14.8242 386.141 15.18 386.023 15.7137 385.874 15.2986 382.465 15.1504 385.074 16.3066 381.931 16.5735 382.939 16.1287 383.68 16.188 384.422 16.277 385.133 16.6328 385.845 16.8996 386.675 16.3659 386.942 15.9212 387.179 15.4172 387.446ZM21.1097 361.296C23.6002 361.148 26.8615 362.423 26.4464 367.018 23.778 368.026 24.6082 364.616 21.7323 365.061 20.3981 365.298 19.983 364.409 19.5976 362.956 20.3092 362.778 20.9021 362.66 21.5841 362.482 21.3765 362.007 21.2579 361.681 21.1097 361.296ZM27.0097 353.736C26.5946 354.269 26.0906 354.536 25.2901 354.21 23.7484 353.617 20.9021 356.226 24.6675 356.76 27.9585 357.204 25.6755 359.369 27.5434 361.77 27.8399 362.156 28.3143 362.274 28.7886 362.185L28.7886 368.827C28.5514 368.352 28.2846 367.937 27.9881 367.581 29.3816 364.083 27.5434 364.883 27.6027 363.875 27.6323 362.689 24.0449 357.531 23.6891 357.442 20.2795 356.522 21.169 356.819 20.6057 356.552 20.576 356.226 20.576 355.9 20.5464 355.514 21.1097 355.544 21.5544 355.574 22.2067 355.603 21.762 355.04 20.9318 355.01 21.1986 354.121 21.9398 354.447 22.3549 354.358 22.5921 353.884 24.1042 353.913 25.6163 353.824 27.0097 353.736ZM39.9957 342.855C41.0038 341.935 41.152 341.935 41.9525 342.943 41.2706 342.914 40.7073 342.884 39.9957 342.855ZM63.8034 336.213C62.914 338.556 59.3562 335.531 57.6959 338.081 55.917 336.124 60.3939 335.442 63.8034 336.213ZM67.8949 330.343C69.5552 330.521 69.7331 330.817 69.3477 332.626 68.3989 332.685 67.4205 332.952 66.6497 332.359 67.0648 331.677 67.4798 330.995 67.8949 330.343ZM117.437 348.844C117.734 346.679 123.99 348.162 120.877 345.819 117.823 343.507 127.103 344.367 130.216 345.256 130.423 348.34 138.784 346.857 141.304 348.428 142.905 349.407 144.862 349.852 147.056 349.911 148.717 349.97 149.665 350.415 150.14 350.949L114.443 350.949C116.192 350.237 117.319 349.525 117.437 348.844ZM131.432 341.342C130.483 341.846 130.483 341.846 129.149 341.787 129.149 341.698 129.119 341.609 129.089 341.52 129.771 341.461 130.483 341.402 131.432 341.342ZM208.903 348.488C210.118 347.984 210.8 347.42 210.296 346.442L210.682 346.323C215.07 347.658 216.078 349.466 215.218 350.949L205.731 350.949C205.493 350.415 205.849 349.763 208.903 348.488ZM220.11 341.817C219.487 342.024 218.894 342.232 218.45 342.41 216.196 339.267 220.436 340.364 220.11 341.817ZM310.597 335.146C310.923 333.723 318.661 334.553 319.936 335.413 319.225 336.332 309.648 339.326 310.597 335.146ZM342.617 338.822C342.647 338.941 342.677 339.089 342.706 339.237 331.736 343.329 334.375 335.976 342.617 338.822ZM365.061 336.569C365.447 337.043 365.091 337.844 366.544 338.051 372.859 335.68 377.365 344.782 381.516 340.423 388.81 344.159 379.796 341.698 378.996 343.536 379.915 344.011 380.805 344.485 381.664 344.93 380.152 346.116 375.26 346.531 372.888 345.76 373.541 344.93 374.489 344.04 372.948 343.833 371.376 343.655 371.614 344.456 371.614 345.434 364.824 344.456 364.765 342.558 363.549 340.838 365.773 340.216 366.129 341.254 370.754 341.58 370.161 339.386 368.856 338.822 364.616 338.852 363.223 337.043 362.63 336.599 365.061 336.569ZM418.784 349.881C420.563 351.008 422.876 350.593 424.981 350.83 425.336 350.86 425.633 350.889 425.9 350.949L417.895 350.949C417.539 350.652 417.242 350.356 417.242 350.148 417.302 349.733 418.221 349.525 418.784 349.881ZM477.962 348.34 480.957 348.34C481.253 349.229 480.483 349.644 479.682 350.059 477.814 349.555 477.814 349.555 477.962 348.34ZM481.461 350.949 480.156 350.949C480.423 350.741 480.749 350.504 481.135 350.207 481.253 350.504 481.372 350.741 481.461 350.949ZM496.671 349.377C496.937 350.415 494.981 349.763 491.749 349.021 493.142 348.577 494.062 348.695 496.671 349.377ZM516.328 345.404C515.201 346.027 514.163 345.434 513.066 345.671 513.837 344.722 514.608 344.663 516.328 345.404ZM524.481 348.992C524.57 349.14 524.629 349.259 524.718 349.407 523.829 349.733 522.969 350.237 522.613 349.614 522.287 348.992 523.414 349.051 524.481 348.992ZM596.793 348.844C596.942 346.679 600.144 348.162 598.543 345.819 597.001 343.507 601.715 344.367 603.286 345.256 603.405 348.34 607.674 346.857 608.949 348.428 609.75 349.407 610.758 349.852 611.884 349.911 612.715 349.97 613.219 350.415 613.456 350.949L595.281 350.949C596.171 350.237 596.734 349.525 596.793 348.844ZM557.391 342.855C557.895 341.935 557.984 341.935 558.399 342.943 558.043 342.914 557.746 342.884 557.391 342.855ZM569.517 336.213C569.042 338.556 567.234 335.531 566.374 338.081 565.485 336.124 567.768 335.442 569.517 336.213ZM571.592 330.343C572.422 330.521 572.511 330.817 572.304 332.626 571.829 332.685 571.355 332.952 570.94 332.359 571.177 331.677 571.385 330.995 571.592 330.343ZM603.939 341.342C603.435 341.846 603.435 341.846 602.753 341.787L602.723 341.52C603.079 341.461 603.435 341.402 603.939 341.342ZM643.341 348.488C643.964 347.984 644.32 347.42 644.053 346.442L644.261 346.323C646.484 347.658 646.988 349.466 646.573 350.949L641.74 350.949C641.622 350.415 641.8 349.763 643.341 348.488ZM649.064 341.817C648.737 342.024 648.441 342.232 648.204 342.41 647.077 339.267 649.242 340.364 649.064 341.817ZM695.108 335.146C695.286 333.723 699.229 334.553 699.881 335.413 699.525 336.332 694.633 339.326 695.108 335.146ZM711.414 338.822 711.474 339.237C705.9 343.329 707.204 335.976 711.414 338.822ZM722.829 336.569C722.948 336.806 722.948 337.132 723.007 337.399 723.066 337.547 723.096 337.696 723.214 337.814 723.333 337.903 723.511 337.992 723.748 338.051 724.845 337.459 725.883 337.577 726.772 338.051 727.662 338.496 728.373 339.267 728.996 339.979 729.618 340.69 730.122 341.342 730.715 341.55 731.338 341.758 732.02 341.52 733.087 340.423 733.858 341.372 734.066 341.906 734.036 342.232 733.977 342.558 733.651 342.647 733.236 342.706 732.376 342.766 731.042 342.617 730.508 343.536 730.864 344.011 731.19 344.485 731.457 344.93 730.834 345.523 729.885 345.938 729.025 346.086 728.136 346.234 727.276 346.146 726.772 345.76 727.217 344.93 727.928 344.04 727.128 343.833 726.298 343.655 726.298 344.456 726.179 345.434 724.519 344.96 723.6 344.218 723.066 343.418 722.532 342.588 722.384 341.698 722.088 340.838 722.355 340.661 722.592 340.631 722.799 340.631 722.888 340.661 723.007 340.69 723.096 340.72 723.214 340.75 723.363 340.809 723.511 340.838 724.104 341.076 724.845 341.402 726.209 341.58 726.15 340.483 725.942 339.801 725.349 339.386 725.082 339.178 724.697 339.03 724.222 338.941 723.985 338.911 723.718 338.882 723.422 338.852 723.274 338.852 723.155 338.852 723.007 338.852 722.888 338.852 722.74 338.822 722.621 338.852 721.91 337.043 721.613 336.599 722.829 336.569ZM731.901 360.822C731.605 361.563 731.308 362.334 731.071 362.956 731.012 363.134 730.953 363.282 730.893 363.431L730.893 360.762C731.635 360.377 732.198 360.229 731.901 360.822ZM734.392 393.524C733.799 394.235 733.473 395.006 733.769 395.866 734.036 396.637 732.465 397.823 731.13 396.933 731.931 396.489 731.931 396.489 732.198 395.747 731.812 395.688 731.368 395.688 730.893 395.658L730.893 394.502C731.368 394.532 732.05 394.591 733.117 394.68 733.206 393.939 733.117 393.761 730.893 393.435L730.893 390.648C732.672 390.351 734.303 389.669 734.51 390.411 734.748 391.152 733.354 391.122 731.635 391.3 731.16 393.375 732.465 390.915 734.392 393.524ZM735.667 385.697C735.43 387.772 732.761 386.971 735.993 389.225 734.748 389.284 733.888 389.195 733.562 388.276 733.354 387.713 731.635 387.594 730.893 388.128L730.893 383.325C731.397 383.829 731.872 384.303 732.405 384.837 729.767 387.446 734.925 387.594 733.295 384.896 735.489 382.643 735.874 382.05 736.378 382.821 735.934 383.503 735.489 384.184 735.014 384.955 735.192 385.163 735.43 385.43 735.667 385.697ZM733.68 363.045C733.769 363.431 733.621 363.875 733.176 364.379 732.702 364.024 732.909 363.608 733.68 363.045ZM733.532 380.478C734.481 381.012 735.341 381.546 735.341 381.575 733.769 382.999 731.961 382.672 730.893 383.058L730.893 379.174C731.012 379.233 731.13 379.292 731.279 379.322 731.605 379.381 732.613 379.945 733.532 380.478ZM696.827 339.949C697.124 339.949 697.302 340.305 697.539 340.601 698.25 339.504 698.013 339.178 698.903 339.178 698.665 340.601 698.784 345.167 696.709 344.159 697.242 342.054 695.641 342.38 696.827 339.949ZM313.918 339.949C314.54 339.949 314.866 340.305 315.311 340.601 316.734 339.504 316.29 339.178 318.039 339.178 317.564 340.601 317.802 345.167 313.71 344.159 314.748 342.054 311.605 342.38 313.918 339.949ZM28.7886 353.795C28.7293 353.736 28.6997 353.676 28.6404 353.647 28.6997 353.647 28.7293 353.617 28.7886 353.617ZM732.702 401.618C732.139 401.647 731.516 401.618 730.893 401.529L730.893 398.742C731.219 398.831 731.605 398.86 732.079 398.801 733.413 398.623 733.828 399.276 734.214 400.372 733.502 400.521 732.909 400.61 732.257 400.728 732.435 401.084 732.554 401.351 732.702 401.618ZM736.082 403.219C735.37 403.752 734.659 403.723 733.74 403.337 734.095 402.982 734.392 402.655 734.777 402.27 734.362 402.062 733.977 401.855 733.591 401.647 733.68 401.47 735.252 401.262 735.489 401.232 735.785 401.44 736.082 401.677 736.438 401.944 736.171 402.062 735.963 402.151 735.726 402.24 735.845 402.566 735.963 402.863 736.082 403.219ZM737.505 386.082C737.238 385.341 737.683 384.777 737.623 384.214 737.564 383.68 737.179 383.147 736.912 382.524 737.446 382.317 737.89 382.139 738.424 381.961 738.72 382.168 739.076 382.406 739.64 382.791 738.987 382.939 738.632 382.999 738.098 383.117 738.513 385.697 738.661 383.71 737.505 386.082ZM734.362 358.539C734.362 358.539 738.068 355.752 738.068 355.752 738.157 355.722 738.454 355.366 738.78 354.951 739.136 354.566 739.491 354.121 739.729 353.943 740.144 353.647 740.321 353.884 739.966 354.358 739.402 355.129 739.254 355.633 739.165 356.078 739.106 356.522 739.165 356.938 739.047 357.382 738.839 358.212 738.454 358.509 738.128 358.954 737.801 359.369 737.535 359.873 737.535 361.118 737.564 361.444 737.446 361.681 736.793 361.918 736.022 361.592 735.874 361.266 736.111 360.317 735.874 360.436 735.667 360.525 735.341 360.644 735.548 359.132 735.667 359.072 734.362 359.813ZM740.855 404.849 740.47 404.968C740.114 404.523 739.64 404.079 740.233 403.901 740.885 403.723 740.796 404.286 740.855 404.849ZM740.47 390.677C739.432 390.826 740.084 389.818 740.826 388.187 741.3 388.899 741.181 389.373 740.47 390.677ZM741.507 381.16 741.507 382.702C740.648 382.85 740.233 382.435 739.788 382.05 740.292 381.101 740.292 381.101 741.507 381.16ZM415.553 425.811C416.294 425.692 416.946 425.603 417.658 425.485 417.895 426.374 415.671 426.789 415.553 425.811ZM34.0661 425.811C34.6294 425.692 35.1927 425.603 35.756 425.485 35.9636 426.374 34.155 426.789 34.0661 425.811ZM12.3041 388.483 12.3041 386.438C13.1639 386.26 13.6086 386.794 14.0237 387.298 13.5197 388.572 13.5197 388.572 12.3041 388.483ZM13.3418 375.853C14.3795 375.675 13.7272 376.98 12.986 379.174 12.5116 378.225 12.6302 377.603 13.3418 375.853ZM13.3714 356.878C13.6976 357.471 14.172 358.064 13.579 358.301 12.9267 358.539 13.0157 357.768 12.9564 357.026ZM9.60609 364.765C8.68699 364.231 8.6277 363.697 9.33926 362.541 9.96187 363.312 9.39855 363.994 9.60609 364.765ZM404.108 333.189C403.248 333.308 402.448 333.397 401.588 333.515 401.292 332.626 403.96 332.211 404.108 333.189ZM753.189 332.655C753.812 332.567 754.256 332.715 753.841 333.189 753.07 333.308 752.359 333.397 751.588 333.515 751.825 333.071 752.596 332.744 753.189 332.655ZM758.881 334.405C758.318 333.99 757.607 333.871 757.962 332.062 757.992 332.003 757.962 331.974 757.933 331.914 757.607 332.003 757.014 332.27 756.717 332.478 755.531 333.278 755.531 333.693 755.887 333.96 755.679 334.761 755.561 335.591 755.472 336.213 753.663 340.364 751.944 343.121 751.025 344.07 750.58 344.544 750.313 344.604 750.313 344.07 750.313 343.536 750.609 342.469 751.262 340.572 750.58 340.572 749.868 340.601 749.186 340.69L748.831 340.868C749.661 339.623 750.817 338.585 751.262 337.666 750.165 337.429 750.105 337.459 748.771 338.763 748.149 339.089 747.882 339.089 747.645 339 747.407 338.911 747.2 338.763 746.844 338.822 745.984 338.971 746.073 338.674 746.251 338.229 746.429 337.785 746.726 337.221 746.34 336.777 746.162 336.628 746.281 336.302 746.251 336.124 747.052 335.502 747.704 334.998 748.356 334.494 748.92 334.434 749.513 334.345 750.165 334.227 749.839 334.612 749.513 334.968 749.246 335.265 748.682 335.353 748.238 335.413 747.496 335.531 748 337.221 747.971 336.866 752.003 334.434 752.24 335.027 753.219 334.642 754.078 334.434 755.146 333.486 755.857 332.685 755.057 332.211 755.709 332.033 756.154 331.944 757.073 331.707 756.361 331.588 756.599 331.381 756.954 331.173 757.34 330.966 757.844 330.758 757.695 330.58 756.005 330.817 754.909 330.877 753.989 331.114 753.07 331.351 752.329 331.736 751.321 332.596 750.669 333.189 749.631 333.664 748.801 333.812 747.971 333.99 747.319 333.782 747.289 332.982 747.23 332.092 746.162 332.27 745.154 332.863 744.117 333.426 743.138 334.345 743.049 334.909 742.901 335.65 741.952 336.124 741.241 336.658 740.529 337.162 740.055 337.725 740.588 338.674 740.885 339.208 740.885 339.86 739.847 340.809 738.661 340.69 738.365 339.919 738.276 339.089 739.906 337.34 740.944 336.599 739.906 336.391 739.106 336.213 738.365 337.992 736.823 337.814 736.289 337.725 735.815 338.081 735.311 338.437 734.837 338.793 734.333 339.178 733.769 339.148 734.392 338.407 734.659 338.318 734.777 337.963 734.896 337.577 734.896 336.925 734.837 335.027 734.54 335.146 734.303 335.205 734.125 335.294 733.147 335.887 732.405 336.391 732.465 335.383 732.524 333.693 734.837 334.138 735.934 334.257 736.141 333.634 736.289 333.159 736.438 332.715 735.43 332.537 734.599 332.418 733.74 332.27 733.058 332.181 732.287 332.389 731.516 332.744 730.715 333.071 729.915 333.515 729.114 333.871 728.314 334.257 727.513 334.523 726.683 334.553 725.883 334.553 725.023 334.257 724.074 333.515 723.867 333.367 723.689 333.219 723.481 333.1 723.392 333.041 723.274 332.982 723.185 332.922 723.096 332.863 723.036 332.804 722.977 332.744 722.71 332.537 722.443 332.389 722.147 332.27 721.584 332.033 720.931 332.003 720.22 332.211 719.449 332.418 718.589 332.537 717.818 332.359 715.506 331.885 714.824 333.159 713.253 334.257 712.155 335.057 712.244 333.871 711.058 332.863 710.228 332.952 709.398 332.982 708.598 332.952 706.078 334.761 705.336 333.278 703.765 335.205 702.816 336.391 703.528 336.362 705.307 338.556 705.455 338.733 705.455 339.03 705.574 339.445 703.231 338.644 704.18 338.882 701.986 338.496 701.66 334.909 700.415 327.497 697.806 325.629 697.509 325.392 697.213 325.214 696.916 325.006 695.345 323.702 693.744 323.702 692.172 324.977 692.143 324.977 692.083 325.006 692.083 325.036 691.639 325.629 691.046 326.192 690.838 326.904 689.237 332.033 685.59 326.844 684.849 327.467 684.345 327.882 684.968 328.356 684.82 328.831 684.553 329.365 684.108 329.276 683.663 329.276 682.863 329.305 682.774 329.424 682.952 330.521 683.248 330.521 683.545 330.55 683.841 330.521 685.205 330.313 686.361 330.877 687.34 332.003 691.135 336.332 694.396 334.82 692.854 337.577 689.89 336.302 688.615 334.879 687.873 334.197 686.747 334.79 686.628 334.82 685.264 334.583 683.426 334.227 682.003 335.265 681.38 337.37 681.114 338.229 680.61 338.674 679.868 338.704 679.127 338.763 678.445 338.585 677.763 338.229 676.044 337.251 670.855 338.17 668.898 338.941 668.365 339.564 667.683 339.919 667.001 340.008 666.349 340.572 666.527 340.572 665.904 340.927 665.044 343.418 667.772 344.04 667.801 345.493 667.831 347.154 668.039 346.234 669.225 347.154L669.136 347.45C665.874 347.094 665.281 347.242 664.54 346.531 664.214 346.234 663.858 345.879 663.295 346.234 664.807 349.11 661.605 348.547 661.042 347.598 660.33 346.323 659.352 345.849 658.106 346.086 658.077 349.97 659.085 347.895 659.5 349.436 657.988 349.229 657.306 348.932 656.891 350 656.535 350.919 654.074 350.86 655.883 348.695 655.053 347.183 654.756 344.485 656.15 344.159 656.416 344.1 656.772 343.922 656.831 343.714 657.187 342.173 658.136 342.884 658.937 342.884 660.656 342.855 659.47 341.046 660.389 339.297 660.864 338.407 659.737 336.747 661.012 335.146 661.071 335.057 661.071 334.909 661.101 334.761 660.182 333.575 649.834 336.747 647.433 337.696 639.813 324.295 639.784 334.345 619.682 329.809 615.324 328.831 614.078 330.995 613.041 331.173 612.952 331.173 612.863 331.084 612.744 330.995 612.804 330.699 612.833 330.373 612.863 330.046 612.507 329.839 612.181 329.631 611.855 329.453 610.787 331.855 610.461 329.038 609.098 329.157 609.127 329.542 609.157 329.869 609.216 330.313 605.866 328.534 608.771 331.232 602.871 329.335 602.931 329.602 602.99 329.869 603.02 330.046 588.996 327.763 598.75 326.578 580.872 326.578 579.894 327.586 578.471 328.356 577.107 328.505 576.84 329.572 576.336 330.461 573.757 329.098 573.964 328.92 574.083 328.801 574.231 328.653 573.104 329.187 572.245 328.149 570.792 328.534 570.525 328.594 570.258 328.801 570.08 328.475 569.962 328.238 569.902 327.852 569.962 327.586 570.051 327.259 570.317 327.022 570.495 326.726 570.584 326.548 570.614 326.34 570.792 325.896 569.932 326.459 569.606 327.467 568.598 327.289 568.954 327.586 569.131 327.763 569.369 327.971 567.056 329.365 559.525 323.346 553.833 330.58 549.089 328.831 552.113 328.475 545.294 329.631 545.887 330.461 545.65 330.728 545.116 330.788 544.731 330.521 544.76 329.78 544.138 329.898 544.227 330.284 544.316 330.61 544.434 331.173 544.019 330.906 543.723 330.728 543.367 330.521 543.456 330.995 543.515 331.381 543.604 331.825 546.006 331.588 548.644 332.448 550.66 333.634 551.906 332.774 552.41 333.545 553.032 331.736 553.151 331.41 553.27 331.054 553.714 331.114 553.388 335.146 553.418 332.27 551.698 334.345 551.846 334.434 551.935 334.523 552.054 334.642L552.084 334.612C552.202 334.761 552.41 334.909 552.439 335.087 553.181 336.213 553.507 337.785 553.24 339.208 553.714 339.771 554.07 340.423 554.367 341.135 555.019 340.868 555.286 341.076 555.523 341.876 556.027 343.418 556.323 343.032 558.191 343.625 557.183 344.159 557.302 345.315 556.887 346.086 554.989 345.167 555.286 348.043 553.447 347.331 552.558 348.132 551.58 348.369 550.601 348.132 550.809 348.517 551.016 348.873 551.253 349.348 549.86 349.525 549.059 348.013 547.903 348.102 546.865 348.932 547.043 348.695 546.035 347.954 545.205 349.081 545.057 347.509 544.642 347.42 543.397 347.658 542.507 348.31 541.766 349.496 542.092 350.029 542.418 350.533 542.774 350.949L540.254 350.949C540.728 350.682 541.232 350.415 541.766 350.118L530.707 350.118C530.203 349.407 529.729 348.755 529.254 348.043 528.869 348.043 528.424 348.013 527.89 348.013 527.92 347.717 527.95 347.48 527.979 347.183 527.979 347.183 522.228 345.078 522.109 345.019 522.524 344.604 522.88 344.307 523.236 343.981 522.109 343.536 520.478 344.278 519.619 343.092 520.034 342.973 520.508 342.825 520.597 342.795 520.182 340.542 522.198 340.779 517.395 339.03 517.573 338.733 517.81 338.378 518.018 338.051L517.721 337.874C513.837 339.504 513.392 340.038 511.643 340.364 511.643 340.334 511.673 340.334 511.673 340.334 511.643 340.334 511.613 340.334 511.613 340.334 511.613 340.334 511.613 340.364 511.643 340.364 511.258 340.601 510.902 340.868 510.546 341.135 510.754 341.313 510.902 341.491 511.139 341.728 509.271 341.758 507.463 341.609 506.247 342.528 504.468 342.173 504.083 341.283 503.757 340.423 502.274 340.423 503.193 342.291 500.821 341.698 500.94 341.313 501.029 340.927 501.148 340.394L497.026 340.394C496.433 339.148 496.078 338.852 495.188 338.882 494.358 338.882 493.498 339.356 493.261 339.919 494.032 339.949 494.773 339.979 495.514 340.008 495.307 340.364 495.04 340.601 494.743 340.601 492.668 340.661 490.533 340.927 488.577 340.453 486.561 339.979 484.1 340.305 482.38 339.237 482.291 339.178 481.757 339.267 481.728 339.356 481.639 339.504 481.669 339.741 481.846 339.86 482.054 339.979 482.439 340.008 482.736 340.097 483.803 340.453 483.833 340.572 483.27 341.52 482.439 341.461 481.698 341.372 481.55 340.75 481.431 340.186 480.927 339.949 480.038 340.008 479.771 340.038 479.475 340.068 479.267 340.008 477.696 339.593 473.515 339.623 471.855 339.919 472.863 341.016 472.211 343.299 470.284 342.825 470.017 342.143 469.75 341.431 469.424 340.631 468.564 340.483 468.267 340.097 468.178 339.593 467.408 339.564 466.666 339.415 466.014 339.208 465.807 339.297 465.599 339.356 465.392 339.415 463.85 338.911 462.694 337.429 460.559 338.941 459.165 338.467 457.831 337.992 456.408 337.488 455.785 338.14 455.192 338.941 453.443 338.644 453.028 338.318 452.613 337.963 452.168 337.636 452.406 337.221 452.613 336.866 452.939 336.273 449.767 336.777 450.182 337.696 449.174 336.154 449.115 336.095 448.937 336.095 448.818 336.035 447.454 336.362 451.516 340.69 447.009 340.423 448.759 339.178 447.78 337.844 446.298 337.636 443.333 337.221 444.252 338.496 442.029 337.192 441.791 337.073 441.495 336.954 440.843 336.628 440.309 336.984 439.805 337.34 439.39 337.607 427.145 335.413 430.199 341.254 421.393 337.014 422.787 335.798 422.846 334.998 421.571 334.108 421.097 334.612 420.622 335.116 420.178 335.62 416.798 333.041 419.525 333.278 416.472 332.567 414.871 332.181 413.181 331.885 412.35 330.847 412.024 330.906 411.787 330.906 411.639 330.966 410.542 331.529 409.593 332.27 407.844 331.885 407.607 331.855 406.954 332.211 406.777 332.478 405.857 333.99 408.496 334.168 409.979 334.375 416.294 338.022 418.221 341.194 410.601 338.585 409.652 339.267 408.674 339.949 407.37 340.868 406.747 339.623 406.895 338.585 406.243 337.666 404.345 337.429 404.316 337.459 404.138 338.763 403.189 339.415 402.24 338.704 401.292 338.822 399.127 339.089 400.195 337.636 398.179 336.777 397.763 336.628 397.556 336.302 397.348 336.124 397.793 335.502 398.179 334.998 398.534 334.494 399.157 334.434 399.809 334.345 400.58 334.227 400.55 334.612 400.521 334.968 400.491 335.265 399.809 335.353 399.276 335.413 398.416 335.531 400.936 337.221 400.728 336.866 403.159 334.434 404.138 335.027 404.998 334.642 405.887 334.434 406.065 333.486 405.946 332.685 404.464 332.211 405.057 332.033 405.472 331.944 406.332 331.707 404.316 331.44 406.51 330.936 405.769 330.58 402.329 331.025 400.995 330.847 400.313 332.596 399.868 333.752 397.2 334.583 395.688 332.982 393.968 331.173 391.27 333.812 391.923 334.909 392.783 336.421 388.424 336.777 391.745 338.674 392.723 339.208 393.405 339.86 392.723 340.809 390.618 340.69 389.432 339.919 388.632 339.089 389.64 337.34 390.44 336.599 388.839 336.391 387.653 336.213 387.92 337.992 385.519 337.814 383.858 337.666 383.621 339.208 381.842 339.148 382.85 337.666 383.176 338.822 381.16 335.027 380.805 335.146 380.538 335.205 380.36 335.294 379.322 335.887 378.462 336.391 378.136 335.383 377.573 333.693 380.686 334.138 382.198 334.257 382.139 333.634 382.109 333.159 382.05 332.715 380.775 332.537 379.678 332.418 378.581 332.27 375.142 331.885 371.851 336.539 366.84 333.515 364.883 332.329 362.719 331.796 359.932 332.211 358.39 332.418 356.7 332.537 355.159 332.359 350.652 331.885 349.288 333.159 346.264 334.257 344.1 335.057 344.248 333.871 341.906 332.863 340.275 332.952 338.674 332.982 337.073 332.952 332.122 334.761 330.699 333.278 327.615 335.205 325.688 336.391 327.111 336.362 330.61 338.556 330.877 338.733 330.906 339.03 331.143 339.445 326.518 338.644 328.386 338.882 324.117 338.496 323.435 334.909 321.004 327.497 315.874 325.629 315.281 325.392 314.689 325.214 314.125 325.006 311.012 323.702 307.929 323.702 304.786 324.977 304.727 324.977 304.638 325.006 304.608 325.036 303.778 325.629 302.622 326.192 302.207 326.904 299.064 332.033 291.889 326.844 290.406 327.467 289.428 327.882 290.614 328.356 290.377 328.831 289.843 329.365 288.954 329.276 288.064 329.276 286.493 329.305 286.374 329.424 286.671 330.521 287.264 330.521 287.857 330.55 288.45 330.521 291.148 330.313 293.401 330.877 295.328 332.003 302.799 336.332 309.174 334.82 306.15 337.577 300.309 336.302 297.848 334.879 296.366 334.197 294.172 334.79 293.935 334.82 291.266 334.583 287.649 334.227 284.833 335.265 283.617 337.37 283.113 338.229 282.105 338.674 280.622 338.704 279.199 338.763 277.836 338.585 276.531 338.229 273.151 337.251 262.952 338.17 259.098 338.941 258.03 339.564 256.726 339.919 255.362 340.008 254.057 340.572 254.443 340.572 253.227 340.927 251.508 343.418 256.874 344.04 256.933 345.493 256.963 347.154 257.378 346.234 259.75 347.154 259.691 347.242 259.631 347.361 259.572 347.45 253.168 347.094 251.952 347.242 250.529 346.531 249.907 346.234 249.165 345.879 248.098 346.234 251.033 349.11 244.748 348.547 243.681 347.598 242.228 346.323 240.301 345.849 237.84 346.086 237.81 349.97 239.797 347.895 240.627 349.436 237.632 349.229 236.298 348.932 235.498 350 234.816 350.919 229.953 350.86 233.511 348.695 231.851 347.183 231.317 344.485 234.074 344.159 234.549 344.1 235.26 343.922 235.379 343.714 236.091 342.173 237.929 342.884 239.5 342.884 242.88 342.855 240.538 341.046 242.346 339.297 243.295 338.407 241.071 336.747 243.592 335.146 243.71 335.057 243.71 334.909 243.769 334.761 241.931 333.575 221.592 336.747 216.878 337.696 201.906 324.295 201.876 334.345 162.355 329.809 153.816 328.831 151.355 330.995 149.31 331.173 149.161 331.173 148.983 331.084 148.776 330.995 148.865 330.699 148.924 330.373 149.043 330.046 148.301 329.839 147.649 329.631 146.997 329.453 144.892 331.855 144.299 329.038 141.571 329.157 141.66 329.542 141.72 329.869 141.808 330.313 135.227 328.534 140.949 331.232 129.356 329.335 129.475 329.602 129.564 329.869 129.653 330.046 102.109 327.763 121.232 326.578 86.1287 326.578 84.2312 327.586 81.4146 328.356 78.7166 328.505 78.2126 329.572 77.2045 330.461 72.1939 329.098 72.5794 328.92 72.8166 328.801 73.0537 328.653 70.8894 329.187 69.1995 328.149 66.3532 328.534 65.8195 328.594 65.2859 328.801 64.9301 328.475 64.6929 328.238 64.6039 327.852 64.7225 327.586 64.9004 327.259 65.4045 327.022 65.7306 326.726 65.9085 326.548 65.9974 326.34 66.3236 325.896 64.6336 326.459 64.011 327.467 62.0542 327.289 62.7361 327.586 63.0919 327.763 63.5366 327.971 58.9707 329.365 44.2058 323.346 33.0284 330.58 23.7188 328.831 29.6484 328.475 16.277 329.631 17.4333 330.461 16.9293 330.728 15.9212 330.788 15.1504 330.521 15.18 329.78 13.9644 329.898 14.1423 330.284 14.3202 330.61 14.5574 331.173 13.7272 330.906 13.1936 330.728 12.4523 330.521 12.6302 330.995 12.7785 331.381 12.9267 331.825 17.6408 331.588 22.7996 332.448 26.8022 333.634 29.2334 332.774 30.2414 333.545 31.457 331.736 31.6942 331.41 31.9314 331.054 32.7615 331.114 32.1686 335.146 32.1982 332.27 28.8479 334.345 29.0851 334.434 29.3223 334.523 29.5298 334.642 29.5595 334.642 29.5595 334.612 29.5595 334.612 29.7967 334.761 30.2414 334.909 30.2711 335.087 31.7535 336.213 32.3465 337.785 31.8424 339.208 32.7912 339.771 33.5027 340.423 34.0957 341.135 35.3409 340.868 35.845 341.076 36.349 341.876 37.3274 343.418 37.8907 343.032 41.5968 343.625 39.64 344.159 39.8475 345.315 39.047 346.086 35.2816 345.167 35.9043 348.043 32.2575 347.331 30.5082 348.132 28.6107 348.369 26.7132 348.132 27.0987 348.517 27.4545 348.873 27.9585 349.348 25.2012 349.525 23.6595 348.013 21.4062 348.102 19.5383 348.873 19.6273 348.755 18.2634 348.162 18.5303 347.509 18.6489 346.827 17.967 346.027 17.5815 346.709 17.2554 347.331 16.8107 348.102 16.6328 347.361 16.4845 346.768 16.277 345.908 15.9805 346.472 15.8619 346.738 15.5951 347.213 15.0614 346.561 14.6167 346.027 14.083 345.375L14.083 347.509C12.0966 347.835 10.5845 348.458 9.30961 349.496 10.792 350.771 12.393 351.69 14.083 352.372L14.083 352.846C13.3714 353.172 12.6895 353.498 12.0076 353.824 11.978 354.091 11.978 354.388 11.9483 354.714 11.6815 354.714 11.4443 354.684 11.1182 354.684 11.1182 354.684 9.01313 358.539 8.95383 358.628 8.5684 358.361 8.24227 358.123 7.91613 357.886 7.47141 358.657 8.24227 359.754 7.05633 360.317 6.90808 360.051 6.78949 359.724 6.75984 359.665 4.47692 359.932 4.74375 358.568 2.99449 361.83 2.69801 361.711 2.34223 361.563 1.98645 361.414L1.83821 361.622C3.46887 364.231 3.97289 364.557 4.29902 365.713 4.29902 365.713 4.26937 365.684 4.26937 365.684 4.26937 365.713 4.29902 365.713 4.29902 365.743 4.29902 365.743 4.29902 365.713 4.29902 365.713 4.56586 365.98 4.8327 366.217 5.06988 366.455 5.27742 366.306 5.42567 366.217 5.66285 366.04 5.6925 367.315 5.54426 368.53 6.46336 369.36 6.13723 370.576 5.21813 370.813 4.38797 371.05 4.38797 372.058 6.25582 371.436 5.66285 373.037 5.24777 372.948 4.86234 372.888 4.35832 372.799L4.35832 375.586C3.08344 376.001 2.8166 376.239 2.8166 376.832 2.84625 377.395 3.32063 377.988 3.88395 378.136 3.91359 377.632 3.91359 377.128 3.94324 376.624 4.29902 376.743 4.53621 376.95 4.56586 377.128 4.62516 378.522 4.89199 379.974 4.41762 381.309 3.91359 382.672 4.23973 384.333 3.17238 385.489 3.14273 385.548 3.23168 385.904 3.29098 385.934 3.43922 385.993 3.70605 385.963 3.82465 385.874 3.94324 385.726 3.94324 385.43 4.06183 385.252 4.38797 384.54 4.50656 384.511 5.45531 384.896 5.39602 385.43 5.30707 385.963 4.68446 386.052 4.12113 386.141 3.91359 386.467 3.97289 387.06 4.00254 387.238 4.03219 387.446 3.97289 387.594 3.76535 388.128 3.64676 389.106 3.64676 390.085 3.64676 390.559 3.64676 391.063 3.70605 391.508 3.73571 391.952 3.795 392.278 3.85429 392.694 4.41762 392.249 5.24777 392.19 5.90004 392.397 6.5523 392.634 7.02668 393.079 6.78949 393.82 6.10758 394.087 5.39602 394.354 4.56586 394.68 4.41762 395.392 4.06183 395.688 3.55781 395.836 3.49852 396.518 3.37992 397.17 3.17238 397.793 3.23168 397.941 3.32063 398.119 3.37992 398.267 3.11308 398.979 2.63871 399.72 2.37188 400.461 2.13469 401.203 2.13469 401.974 2.90554 402.596 2.40152 404.019 1.92715 405.442 1.42313 407.014 1.77891 407.132 2.13469 407.221 2.37188 407.488 2.60906 407.755 2.7573 408.2 2.60906 409.06 2.25328 409.623 1.92715 410.216 1.57137 410.838 1.18594 410.898 0.80051 410.927 0.237188 410.957 0.741211 413.685 1.66031 412.558 0.0889457 414.693 0.0592969 414.752 0.0296484 414.96 0 415.108 0.148242 415.641 1.30453 414.1 2.40152 413.062 2.9352 412.528 3.46887 412.113 3.85429 412.084 4.21008 412.054 4.44727 412.38 4.35832 413.359 3.73571 413.121 3.11308 413.418 2.57942 414.011 2.07539 414.604 1.68996 415.464 1.57137 416.234 1.36383 417.776 1.60102 418.073 1.68996 418.369 1.80855 418.666 1.80855 418.932 1.15629 420.593 1.00804 420.949 0.919104 421.304 0.592969 422.253L0.652266 422.283C1.39348 421.986 2.10504 421.69 2.8166 421.393 3.97289 421.66 5.04023 421.808 6.01863 421.868 7.02668 421.927 7.91613 421.897 8.68699 421.808 10.288 421.63 11.5332 421.245 12.5709 420.919 13.6086 420.593 14.4981 420.326 15.4765 420.415 16.4549 420.504 17.4926 420.949 19.1232 421.986 17.374 423.202 16.87 424.002 17.8187 424.892 18.5303 424.388 19.1825 423.884 19.8052 423.38 20.3981 424.032 20.7539 424.477 20.9021 424.832 21.08 425.188 21.08 425.425 21.1097 425.603 21.1393 425.959 21.169 426.078 22.7404 426.433 24.371 426.819 26.1796 427.115 27.0097 428.123 27.3952 428.094 27.662 428.094 27.8399 428.035 28.4625 427.738 29.0555 427.442 29.7374 427.234 29.8856 427.175 30.0635 427.115 30.2414 427.086 30.3304 427.086 30.4193 427.056 30.5082 427.056 30.5972 427.026 30.6565 427.026 30.7454 427.026 30.9826 426.997 31.2495 427.026 31.5459 427.115 31.6942 427.145 32.1389 426.789 32.2575 426.522 32.554 425.781 32.2575 425.336 31.7831 425.07 31.5459 424.951 31.2495 424.862 30.9233 424.803 30.864 424.773 30.7751 424.744 30.7158 424.744L30.6565 424.714C30.6565 424.714 30.5972 424.714 30.5972 424.714 30.5379 424.714 30.4786 424.714 30.4193 424.684 30.2118 424.655 30.0042 424.625 29.7967 424.625 26.6243 422.787 25.1419 421.097 25.0529 420.178 24.9936 419.703 25.2901 419.436 25.972 419.466 26.6539 419.466 27.7213 419.763 29.3816 420.415 29.7967 420.059 30.2414 419.733 30.6861 419.377 31.0419 418.992 31.4273 418.606 31.8721 418.132 32.2871 419.377 32.1686 420.415 32.6133 421.334 33.8882 421.571 33.9178 421.542 34.0364 420.237 34.659 419.585 35.3113 420.296 35.9636 420.178 37.4163 419.911 36.7048 421.364 38.0686 422.223 38.3354 422.372 38.4837 422.698 38.6319 422.876 38.3354 423.498 38.0686 424.002 37.8314 424.506 37.4163 424.566 36.942 424.655 36.4379 424.773 36.4676 424.388 36.4972 424.032 36.4972 423.735 36.9716 423.647 37.3274 423.587 37.8907 423.469 36.2007 421.779 36.349 422.134 34.6887 424.566 34.0364 423.973 33.4434 424.358 32.8801 424.566 32.7319 425.514 32.8208 426.315 33.8289 426.789 33.4138 426.967 33.1173 427.056 32.554 427.293 33.9178 427.56 32.4354 428.064 32.9394 428.42 35.2816 427.975 36.1711 428.153 36.6158 426.404 36.9123 425.248 38.7209 424.417 39.7586 426.018 40.9148 427.827 42.7234 425.188 42.3083 424.091 41.7154 422.579 44.6505 422.223 42.3973 420.326 41.745 419.792 41.3003 419.14 41.745 418.191 43.1681 418.31 43.9686 419.081 44.532 419.911 43.8204 421.66 43.3164 422.401 44.3837 422.609 45.1842 422.787 44.9767 421.008 46.637 421.186 47.734 421.334 47.9119 419.792 49.0978 419.852 48.4159 421.334 48.2084 420.178 49.5722 423.973 49.8094 423.854 49.9873 423.795 50.1059 423.706 50.8174 423.113 51.3807 422.609 51.6179 423.617 51.9737 425.307 49.8687 424.862 48.8606 424.744 48.9199 425.366 48.9496 425.841 48.9496 426.285 49.839 426.463 50.5802 426.582 51.3214 426.7 53.634 427.115 55.8577 422.461 59.2376 425.485 60.5718 426.671 62.0245 427.204 63.922 426.789 64.9597 426.582 66.0864 426.463 67.1241 426.641 70.1779 427.115 71.097 425.841 73.1427 424.744 74.6251 423.943 74.5065 425.129 76.1075 426.137 77.2045 426.048 78.2719 426.018 79.3689 426.048 82.6895 424.24 83.6679 425.722 85.7433 423.795 87.0478 422.609 86.0991 422.638 83.7272 420.444 83.5493 420.267 83.5493 419.97 83.3714 419.555 86.4845 420.356 85.2393 420.118 88.1152 420.504 88.5895 424.091 90.2202 431.503 93.6891 433.371 94.0745 433.608 94.4896 433.786 94.875 433.994 96.98 435.298 99.0554 435.298 101.19 434.023 101.22 434.023 101.279 433.994 101.309 433.964 101.872 433.371 102.643 432.808 102.939 432.096 105.044 426.967 109.907 432.156 110.915 431.533 111.567 431.118 110.737 430.644 110.915 430.169 111.271 429.636 111.893 429.724 112.486 429.724 113.554 429.695 113.642 429.576 113.405 428.479 113.02 428.479 112.634 428.45 112.219 428.479 110.411 428.687 108.869 428.123 107.565 426.997 102.524 422.668 98.1956 424.18 100.271 421.423 104.214 422.698 105.875 424.121 106.883 424.803 108.365 424.21 108.513 424.18 110.322 424.417 112.753 424.773 114.68 423.735 115.51 421.63 115.836 420.771 116.489 420.326 117.526 420.296 118.475 420.237 119.394 420.415 120.284 420.771 122.567 421.749 129.475 420.83 132.084 420.059 132.795 419.436 133.655 419.081 134.574 418.992 135.464 418.428 135.227 418.428 136.027 418.073 137.183 415.582 133.566 414.96 133.537 413.507 133.507 411.846 133.21 412.766 131.609 411.846L131.728 411.55C136.057 411.906 136.887 411.758 137.865 412.469 138.28 412.766 138.784 413.121 139.496 412.766 137.509 409.89 141.749 410.453 142.49 411.402 143.469 412.677 144.773 413.151 146.404 412.914 146.434 409.03 145.099 411.105 144.536 409.564 146.552 409.771 147.471 410.068 148.005 409 148.064 408.882 148.183 408.763 148.301 408.704L150.11 408.704C150.347 408.971 150.258 409.504 149.369 410.305 150.466 411.817 150.822 414.515 148.983 414.841 148.657 414.9 148.153 415.078 148.094 415.286 147.59 416.827 146.374 416.116 145.307 416.116 143.024 416.145 144.595 417.954 143.38 419.703 142.728 420.593 144.24 422.253 142.52 423.854 142.461 423.943 142.461 424.091 142.431 424.24 143.647 425.425 157.404 422.253 160.576 421.304 170.686 434.705 170.716 424.655 197.429 429.191 203.21 430.169 204.871 428.005 206.235 427.827 206.353 427.827 206.472 427.916 206.62 428.005 206.561 428.301 206.501 428.627 206.442 428.954 206.946 429.161 207.391 429.369 207.806 429.547 209.229 427.145 209.644 429.962 211.482 429.843 211.423 429.458 211.364 429.132 211.304 428.687 215.752 430.466 211.897 427.768 219.725 429.665 219.665 429.398 219.576 429.132 219.547 428.954 238.166 431.237 225.21 432.422 248.958 432.422 250.233 431.414 252.13 430.644 253.969 430.495 254.295 429.428 254.977 428.539 258.356 429.902 258.119 430.08 257.941 430.199 257.793 430.347 259.246 429.813 260.402 430.851 262.3 430.466 262.685 430.406 263.041 430.199 263.278 430.525 263.456 430.762 263.515 431.148 263.426 431.414 263.308 431.741 262.952 431.978 262.744 432.274 262.626 432.452 262.567 432.66 262.359 433.104 263.486 432.541 263.901 431.533 265.235 431.711 264.761 431.414 264.523 431.237 264.197 431.029 267.31 429.636 277.272 435.654 284.833 428.42 291.118 430.169 287.115 430.525 296.158 429.369 295.358 428.539 295.714 428.272 296.395 428.212 296.929 428.479 296.899 429.22 297.73 429.102 297.611 428.716 297.492 428.39 297.315 427.827 297.878 428.094 298.263 428.272 298.738 428.479 298.619 428.005 298.53 427.619 298.412 427.175 295.239 427.412 291.741 426.552 289.043 425.366 287.412 426.226 286.73 425.455 285.9 427.264 285.752 427.59 285.574 427.946 285.01 427.886 285.426 423.854 285.396 426.73 287.649 424.655 287.501 424.566 287.353 424.477 287.204 424.358L287.175 424.388C287.027 424.24 286.73 424.091 286.7 423.913 285.692 422.787 285.307 421.215 285.633 419.792 284.981 419.229 284.506 418.577 284.121 417.865 283.261 418.132 282.935 417.924 282.579 417.124 281.927 415.582 281.542 415.968 279.051 415.375 280.385 414.811 280.237 413.685 280.771 412.914 283.32 413.833 282.905 410.957 285.337 411.669 286.522 410.868 287.827 410.631 289.102 410.868 288.865 410.483 288.598 410.127 288.272 409.652 290.11 409.475 291.177 410.987 292.719 410.898 294.113 410.038 293.846 410.305 295.18 411.046 296.277 409.919 296.484 411.491 297.048 411.58 298.678 411.342 299.864 410.69 300.872 409.504 300.635 409.208 300.428 408.941 300.19 408.704L301.139 408.704C301.05 408.763 300.961 408.822 300.872 408.882L310.093 408.882C310.508 409.593 310.894 410.245 311.279 410.957 311.605 410.957 311.991 410.987 312.406 410.987 312.406 411.283 312.376 411.52 312.346 411.817 312.346 411.817 317.12 413.922 317.238 413.981 316.883 414.396 316.616 414.693 316.319 415.019 317.238 415.464 318.602 414.722 319.314 415.908 318.988 416.027 318.572 416.175 318.513 416.205 318.839 418.458 317.149 418.221 321.182 419.97 321.004 420.267 320.826 420.622 320.648 420.949L320.915 421.126C324.146 419.496 324.532 418.962 325.955 418.636 325.955 418.666 325.925 418.666 325.925 418.666 325.955 418.666 325.985 418.666 326.014 418.666 325.985 418.666 325.985 418.636 325.985 418.636 326.281 418.399 326.578 418.132 326.874 417.865 326.696 417.687 326.578 417.509 326.37 417.272 327.941 417.242 329.453 417.391 330.461 416.472 331.944 416.827 332.27 417.717 332.537 418.577 333.782 418.577 333.011 416.709 334.968 417.302 334.879 417.687 334.82 418.073 334.701 418.606L338.14 418.606C338.644 419.852 338.941 420.148 339.682 420.118 340.364 420.118 341.076 419.644 341.283 419.081 340.661 419.051 340.038 419.021 339.415 418.992 339.564 418.636 339.801 418.399 340.038 418.399 341.758 418.339 343.536 418.073 345.197 418.547 346.857 419.021 348.903 418.695 350.326 419.763 350.415 419.822 350.86 419.733 350.889 419.644 350.949 419.496 350.919 419.259 350.8 419.14 350.622 419.021 350.296 418.992 350.029 418.903 349.17 418.547 349.11 418.428 349.614 417.48 350.296 417.539 350.919 417.628 351.038 418.251 351.126 418.814 351.542 419.051 352.283 418.992 352.52 418.962 352.757 418.932 352.965 418.992 354.24 419.407 357.738 419.377 359.102 419.081 358.272 417.984 358.835 415.701 360.436 416.175 360.644 416.857 360.881 417.569 361.148 418.369 361.859 418.517 362.096 418.903 362.185 419.407 362.838 419.436 363.431 419.585 363.994 419.792 364.142 419.703 364.32 419.644 364.498 419.585 365.773 420.089 366.751 421.571 368.5 420.059 369.686 420.533 370.813 421.008 371.999 421.512 372.503 420.86 373.007 420.059 374.46 420.356 374.816 420.682 375.142 421.037 375.527 421.364 375.32 421.779 375.142 422.134 374.875 422.727 377.514 422.223 377.158 421.304 378.018 422.846 378.047 422.905 378.195 422.905 378.314 422.965 379.441 422.638 376.061 418.31 379.826 418.577 378.344 419.822 379.174 421.156 380.389 421.364 382.88 421.779 382.109 420.504 383.977 421.808 384.155 421.927 384.392 422.046 384.955 422.372 385.4 422.016 385.815 421.66 386.171 421.393 396.37 423.587 393.82 417.746 401.143 421.986 400.017 423.202 399.957 424.002 400.995 424.892 401.41 424.388 401.796 423.884 402.181 423.38 404.968 425.959 402.715 425.722 405.264 426.433 406.599 426.819 407.992 427.115 408.674 428.123 408.971 428.094 409.178 428.094 409.267 428.035 410.186 427.471 410.987 426.73 412.469 427.115 412.647 427.145 413.21 426.789 413.329 426.522 414.1 425.01 411.906 424.832 410.661 424.625 405.413 420.978 403.812 417.806 410.156 420.415 410.957 419.733 411.758 419.051 412.854 418.132 413.359 419.377 413.24 420.415 413.774 421.334 415.345 421.571 415.375 421.542 415.553 420.237 416.323 419.585 417.124 420.296 417.895 420.178 419.703 419.911 418.814 421.364 420.504 422.223 420.86 422.372 421.037 422.698 421.186 422.876 420.8 423.498 420.504 424.002 420.207 424.506 419.674 424.566 419.14 424.655 418.517 424.773 418.517 424.388 418.547 424.032 418.577 423.735 419.14 423.647 419.585 423.587 420.296 423.469 418.221 421.779 418.369 422.134 416.353 424.566 415.523 423.973 414.811 424.358 414.1 424.566 413.922 425.514 414.011 426.315 415.256 426.789 414.752 426.967 414.396 427.056 413.714 427.293 415.375 427.56 413.536 428.064 414.189 428.42 417.065 427.975 418.162 428.153 418.725 426.404 419.081 425.248 421.304 424.417 422.579 426.018 424.002 427.827 426.256 425.188 425.722 424.091 424.981 422.579 428.627 422.223 425.841 420.326 425.07 419.792 424.477 419.14 425.04 418.191 426.789 418.31 427.797 419.081 428.45 419.911 427.619 421.66 426.967 422.401 428.272 422.609 429.28 422.787 429.043 421.008 431.059 421.186 432.422 421.334 432.63 419.792 434.112 419.852 433.282 421.334 432.986 420.178 434.676 423.973 434.972 423.854 435.209 423.795 435.358 423.706 436.217 423.113 436.929 422.609 437.196 423.617 437.67 425.307 435.061 424.862 433.816 424.744 433.875 425.366 433.905 425.841 433.935 426.285 435.002 426.463 435.921 426.582 436.84 426.7 439.686 427.115 442.444 422.461 446.624 425.485 448.255 426.671 450.034 427.204 452.376 426.789 453.651 426.582 455.074 426.463 456.349 426.641 460.084 427.115 461.241 425.841 463.761 424.744 465.569 423.943 465.451 425.129 467.408 426.137 468.742 426.048 470.076 426.018 471.41 426.048 475.531 424.24 476.717 425.722 479.297 423.795 480.898 422.609 479.712 422.638 476.777 420.444 476.569 420.267 476.569 419.97 476.361 419.555 480.216 420.356 478.644 420.118 482.232 420.504 482.766 424.091 484.782 431.503 489.081 433.371 489.555 433.608 490.059 433.786 490.533 433.994 493.113 435.298 495.722 435.298 498.331 434.023 498.361 434.023 498.42 433.994 498.45 433.964 499.161 433.371 500.11 432.808 500.466 432.096 503.075 426.967 509.064 432.156 510.309 431.533 511.109 431.118 510.101 430.644 510.309 430.169 510.754 429.636 511.525 429.724 512.236 429.724 513.541 429.695 513.659 429.576 513.392 428.479 512.918 428.479 512.414 428.45 511.94 428.479 509.686 428.687 507.818 428.123 506.188 426.997 499.962 422.668 494.655 424.18 497.175 421.423 502.037 422.698 504.083 424.121 505.328 424.803 507.166 424.21 507.374 424.18 509.597 424.417 512.592 424.773 514.964 423.735 515.972 421.63 516.387 420.771 517.187 420.326 518.462 420.296 519.648 420.237 520.745 420.415 521.872 420.771 524.688 421.749 533.168 420.83 536.4 420.059 537.289 419.436 538.356 419.081 539.513 418.992 540.58 418.428 540.254 418.428 541.292 418.073 542.715 415.582 538.238 414.96 538.178 413.507 538.149 411.846 537.823 412.766 535.836 411.846 535.896 411.758 535.925 411.639 535.984 411.55 541.321 411.906 542.329 411.758 543.515 412.469 544.049 412.766 544.671 413.121 545.561 412.766 543.1 409.89 548.348 410.453 549.237 411.402 550.423 412.677 552.024 413.151 554.1 412.914 554.129 409.03 552.469 411.105 551.757 409.564 554.278 409.771 555.375 410.068 556.056 409 556.116 408.882 556.234 408.763 556.412 408.704L558.636 408.704C558.932 408.971 558.814 409.504 557.717 410.305 559.081 411.817 559.525 414.515 557.242 414.841 556.857 414.9 556.234 415.078 556.145 415.286 555.552 416.827 554.011 416.116 552.706 416.116 549.89 416.145 551.846 417.954 550.334 419.703 549.563 420.593 551.402 422.253 549.297 423.854 549.208 423.943 549.208 424.091 549.148 424.24 550.66 425.425 567.619 422.253 571.563 421.304 584.015 434.705 584.074 424.655 616.984 429.191 624.1 430.169 626.145 428.005 627.835 427.827 627.984 427.827 628.132 427.916 628.31 428.005 628.221 428.301 628.161 428.627 628.102 428.954 628.695 429.161 629.258 429.369 629.792 429.547 631.541 427.145 632.045 429.962 634.299 429.843 634.239 429.458 634.18 429.132 634.091 428.687 639.576 430.466 634.832 427.768 644.468 429.665 644.379 429.398 644.29 429.132 644.231 428.954 667.179 431.237 651.228 432.422 680.491 432.422 682.062 431.414 684.434 430.644 686.658 430.495 687.103 429.428 687.933 428.539 692.113 429.902 691.787 430.08 691.579 430.199 691.372 430.347 693.21 429.813 694.604 430.851 696.975 430.466 697.42 430.406 697.865 430.199 698.161 430.525 698.369 430.762 698.458 431.148 698.339 431.414 698.191 431.741 697.746 431.978 697.479 432.274 697.331 432.452 697.272 432.66 697.005 433.104 698.399 432.541 698.932 431.533 700.563 431.711 700 431.414 699.673 431.237 699.318 431.029 703.113 429.636 715.417 435.654 724.726 428.42 732.494 430.169 727.573 430.525 738.691 429.369 737.742 428.539 738.157 428.272 738.987 428.212 739.64 428.479 739.61 429.22 740.648 429.102 740.47 428.716 740.351 428.39 740.114 427.827 740.826 428.094 741.27 428.272 741.893 428.479 741.745 428.005 741.626 427.619 741.478 427.175 737.564 427.412 733.265 426.552 729.915 425.366 727.928 426.226 727.069 425.455 726.061 427.264 725.853 427.59 725.646 427.946 724.964 427.886 725.468 423.854 725.438 426.73 728.225 424.655 728.017 424.566 727.839 424.477 727.662 424.358 727.632 424.358 727.632 424.388 727.632 424.388 727.454 424.24 727.069 424.091 727.039 423.913 725.794 422.787 725.29 421.215 725.734 419.792 724.934 419.229 724.341 418.577 723.837 417.865 722.799 418.132 722.384 417.924 721.969 417.124 721.139 415.582 720.694 415.968 717.611 415.375 719.241 414.811 719.064 413.685 719.745 412.914 722.859 413.833 722.355 410.957 725.379 411.669 726.831 410.868 728.432 410.631 730.004 410.868 729.707 410.483 729.381 410.127 728.966 409.652 731.249 409.475 732.554 410.987 734.451 410.898 735.874 410.186 735.904 410.245 736.823 410.72 736.823 410.749 736.823 410.749 736.823 410.749 736.497 410.779 736.171 410.809 735.874 410.838 735.548 411.58 734.896 412.262 735.845 413.121 736.23 412.617 736.556 412.173 737.001 411.55 737.179 412.113 737.327 412.588 737.535 413.24 737.831 412.825 737.95 412.617 738.216 412.232 738.75 412.736 739.195 413.121 739.758 413.625L739.758 411.58C739.758 411.58 739.788 411.58 739.788 411.58 741.804 411.342 743.286 410.69 744.502 409.504 743.612 408.615 742.693 407.874 741.745 407.281 741.774 407.281 741.774 407.281 741.804 407.281 741.834 407.073 741.834 406.836 741.863 406.599 742.16 406.599 742.367 406.599 742.693 406.628 742.693 406.628 744.798 403.693 744.858 403.634 745.243 403.871 745.569 404.019 745.895 404.197 746.34 403.634 745.569 402.804 746.755 402.359 746.903 402.566 747.022 402.833 747.052 402.863 749.335 402.655 749.068 403.693 750.817 401.232 751.114 401.321 751.469 401.44 751.825 401.558L752.003 401.41C750.343 399.424 749.839 399.187 749.513 398.297 749.513 398.297 749.542 398.327 749.542 398.327 749.542 398.327 749.542 398.297 749.513 398.297 749.246 398.119 748.979 397.912 748.742 397.763 748.534 397.852 748.386 397.941 748.149 398.06 748.119 397.111 748.267 396.192 747.348 395.569 747.674 394.65 748.593 394.472 749.453 394.295 749.453 393.524 747.556 393.998 748.149 392.812 748.564 392.871 748.949 392.901 749.453 392.96L749.453 390.855C750.728 390.559 750.995 390.381 750.995 389.936 750.995 389.521 750.521 389.076 749.928 388.958 749.898 389.343 749.898 389.729 749.868 390.114 749.513 389.996 749.275 389.847 749.246 389.699 749.186 388.661 748.92 387.564 749.394 386.556 749.898 385.548 749.572 384.303 750.639 383.414 750.698 383.384 750.58 383.087 750.521 383.087 750.343 383.028 750.105 383.058 750.017 383.147 749.868 383.236 749.868 383.443 749.75 383.591 749.394 384.125 749.305 384.155 748.356 383.858 748.416 383.443 748.504 383.058 749.127 382.999 749.69 382.939 749.898 382.672 749.839 382.228 749.809 382.079 749.779 381.931 749.839 381.813 750.283 381.042 750.254 378.907 749.957 378.047 748.86 378.581 746.577 378.225 747.022 377.247 747.734 377.128 748.416 376.98 749.246 376.832 749.394 376.387 749.75 376.239 750.254 376.179 750.313 375.794 750.432 375.409 750.639 375.082 750.58 374.964 750.521 374.875 750.432 374.786 750.936 373.985 752.418 373.392 750.906 372.325 751.41 371.614 751.884 370.902 752.388 370.19 751.706 369.864 750.906 369.568 751.202 368.678 751.558 368.471 751.884 368.263 752.24 368.026 752.626 368.145 753.011 368.263 753.574 368.441 753.337 367.611 752.981 367.285 752.863 367.048 752.833 366.959 752.833 366.87 752.981 366.81 753.041 366.751 753.13 366.722 753.248 366.662 753.367 366.603 753.515 366.514 753.723 366.425 753.752 366.395 753.782 366.277 753.812 366.158 753.663 365.684 752.507 366.217 751.41 366.395 750.313 366.603 749.305 366.514 749.453 365.091 750.076 365.625 750.698 365.743 751.232 365.595 751.736 365.417 752.122 364.972 752.24 364.468 752.448 363.401 752.211 363.075 752.122 362.778 752.003 362.511 752.033 362.304 752.655 361.414 752.803 361.207 752.922 360.999 753.219 360.466 752.863 360.169 752.537 359.873 752.24 359.665 752.774 357.382 752.833 355.841 752.655 354.803 752.507 353.765 752.122 353.202 751.795 352.727 751.469 352.253 751.202 351.838 751.291 351.038 751.351 350.237 751.795 349.021 752.863 346.768 754.049 346.946 754.849 346.531 755.768 344.96 755.235 344.93 754.731 344.93 754.227 344.93 754.879 343.863 755.353 343.151 755.709 342.677 756.065 342.232 756.302 341.995 756.45 341.817 756.806 341.431 756.925 341.283 757.31 339.771 757.695 338.17 757.992 336.539 759 334.909 758.941 334.672 758.97 334.464 758.881 334.405" fill="#FFBD59" transform="matrix(1 0 0 1.00132 889 -272)"/><path d="M748.623 396.37C748.593 397.141 749.246 397.674 749.513 398.297 750.254 397.378 749.957 396.666 748.623 396.37" fill="#FFBD59" transform="matrix(1 0 0 1.00132 889 -272)"/><path d="M657.632 344.633C657.365 344.96 657.128 345.226 656.713 345.701 657.336 345.879 657.691 345.968 658.077 346.057 658.373 345.464 658.136 345.049 657.632 344.633" fill="#FFBD59" transform="matrix(1 0 0 1.00132 889 -272)"/><path d="M749.038 394.888C748.801 395.896 748.801 395.896 749.542 396.044 749.513 395.629 749.839 395.184 749.038 394.888" fill="#FFBD59" transform="matrix(1 0 0 1.00132 889 -272)"/><path d="M507.848 341.224C509.36 341.283 510.368 340.631 511.613 340.334 509.805 339.593 508.441 339.89 507.848 341.224" fill="#FFBD59" transform="matrix(1 0 0 1.00132 889 -272)"/><path d="M237.84 346.086C237.84 346.086 237.84 346.057 237.84 346.057 237.81 346.086 237.81 346.086 237.81 346.086L237.84 346.086" fill="#FFBD59" transform="matrix(1 0 0 1.00132 889 -272)"/><path d="M236.95 344.633C236.417 344.96 235.942 345.226 235.142 345.701 236.357 345.879 237.099 345.968 237.84 346.057 238.403 345.464 237.929 345.049 236.95 344.633" fill="#FFBD59" transform="matrix(1 0 0 1.00132 889 -272)"/><path d="M507.196 340.334C506.395 340.364 505.476 340.008 504.913 340.809 506.87 341.046 506.87 341.046 507.196 340.334" fill="#FFBD59" transform="matrix(1 0 0 1.00132 889 -272)"/></g></g></g></g></svg>