<svg width="1772" height="1026" xmlns="http://www.w3.org/2000/svg" xmlns:xlink="http://www.w3.org/1999/xlink" overflow="hidden"><defs><clipPath id="clip0"><rect x="74" y="55" width="1772" height="1026"/></clipPath><clipPath id="clip1"><rect x="74" y="56" width="1772" height="1024"/></clipPath><clipPath id="clip2"><rect x="74" y="56" width="1773" height="1024"/></clipPath><clipPath id="clip3"><rect x="74" y="56" width="1773" height="1024"/></clipPath><clipPath id="clip4"><rect x="462.88" y="1045.03" width="994.24" height="35.0055"/></clipPath></defs><g clip-path="url(#clip0)" transform="translate(-74 -55)"><g clip-path="url(#clip1)"><g clip-path="url(#clip2)"><g clip-path="url(#clip3)"><path d="M24.2967 972.119 1747.57 972.119 1747.57 22.108 24.2967 22.108Z" fill="#FFFFFF" transform="matrix(1.00146 0 0 1 74.9761 56)"/><path d="M1761.94 0.0146897 5.52332 0.0146897C2.46787 0.0146897 0 2.48256 0 5.53801L0 988.689C0 991.744 2.46787 994.212 5.52332 994.212L1761.94 994.212C1764.99 994.212 1767.46 991.744 1767.46 988.689L1767.46 5.53801C1767.46 2.48256 1764.99 0.0146897 1761.94 0.0146897M1723.28 44.2012 1723.28 950.026 44.1866 950.026 44.1866 44.2012 1723.28 44.2012" transform="matrix(1.00146 0 0 1 74.9761 56)"/><path d="M1761.94 994.212 986.882 994.212 967.139 950.026 1723.28 950.026 1723.28 44.2012 562.277 44.2012 542.534 0.0146897 1761.94 0.0146897C1764.99 0.0146897 1767.46 2.48256 1767.46 5.53801L1767.46 988.689C1767.46 991.744 1764.99 994.212 1761.94 994.212" fill="#333333" transform="matrix(1.00146 0 0 1 74.9761 56)"/><path d="M895.189 972.809C895.189 979.141 890.062 984.267 883.731 984.267 877.4 984.267 872.273 979.141 872.273 972.809 872.273 966.478 877.4 961.351 883.731 961.351 890.062 961.351 895.189 966.478 895.189 972.809" fill="#3A3A3A" transform="matrix(1.00146 0 0 1 74.9761 56)"/><g clip-path="url(#clip4)"><path d="M1064.34 1010.78 1062.86 992.009 704.605 992.009 703.122 1010.78 388.836 1024.03 1378.63 1024.03 1064.34 1010.78" fill="#222222" transform="matrix(1.00146 0 0 1 74.9761 56)"/></g></g></g></g></g></svg>