<svg width="71" height="111" xmlns="http://www.w3.org/2000/svg" xmlns:xlink="http://www.w3.org/1999/xlink" overflow="hidden"><defs><clipPath id="clip0"><rect x="465" y="234" width="71" height="111"/></clipPath><clipPath id="clip1"><rect x="465" y="235" width="70" height="109"/></clipPath><clipPath id="clip2"><rect x="465" y="235" width="70" height="109"/></clipPath><clipPath id="clip3"><rect x="465" y="235" width="70" height="109"/></clipPath></defs><g clip-path="url(#clip0)" transform="translate(-465 -234)"><g clip-path="url(#clip1)"><g clip-path="url(#clip2)"><g clip-path="url(#clip3)"><path d="M56.1515 89.1818C50.6784 89.1818 46.2424 84.7458 46.2424 79.2727L46.2424 66.0606C46.2424 60.5875 50.6784 56.1515 56.1515 56.1515 58.1432 56.1317 75.9697 52.8485 75.9697 39.6364 75.9697 33.0303 69.3636 26.4242 59.4545 26.4242 51.3918 26.4242 46.2424 33.0303 46.2424 36.3333 46.2424 41.8065 41.8065 46.2424 36.3333 46.2424 30.8602 46.2424 26.4242 41.8065 26.4242 36.3333 26.4242 20.2212 41.5521 6.60606 59.4545 6.60606 85.8788 6.60606 95.7879 26.3648 95.7879 42.9394 95.7879 56.6305 88.2669 67.0945 74.6055 72.4024 71.6328 73.5618 68.6931 74.3413 66.0606 74.8698L66.0606 79.2727C66.0606 84.7458 61.6246 89.1818 56.1515 89.1818Z" fill="#BE1931" transform="matrix(1.00917 0 0 1 438.333 228.394)"/><path d="M66.0606 105.697C66.0606 111.17 61.6242 115.606 56.1515 115.606 50.6789 115.606 46.2424 111.17 46.2424 105.697 46.2424 100.224 50.6789 95.7879 56.1515 95.7879 61.6242 95.7879 66.0606 100.224 66.0606 105.697Z" fill="#BE1931" transform="matrix(1.00917 0 0 1 438.333 228.394)"/></g></g></g></g></svg>