<svg width="117" height="116" xmlns="http://www.w3.org/2000/svg" xmlns:xlink="http://www.w3.org/1999/xlink" overflow="hidden"><defs><clipPath id="clip0"><rect x="561" y="368" width="117" height="116"/></clipPath><clipPath id="clip1"><rect x="562" y="368" width="115" height="115"/></clipPath><clipPath id="clip2"><rect x="562" y="368" width="115" height="115"/></clipPath><clipPath id="clip3"><rect x="562" y="368" width="115" height="115"/></clipPath></defs><g clip-path="url(#clip0)" transform="translate(-561 -368)"><g clip-path="url(#clip1)"><g clip-path="url(#clip2)"><g clip-path="url(#clip3)"><path d="M619.5 374.189C647.838 374.189 670.812 397.162 670.812 425.502 670.812 453.84 647.837 476.809 619.5 476.809 591.165 476.809 568.192 453.839 568.192 425.502 568.192 397.162 591.165 374.189 619.5 374.189Z" fill="#EE826C"/><path d="M619.5 482.996C587.794 482.996 562 457.201 562 425.501 562 393.795 587.793 368.004 619.5 368.004 651.207 368.004 677 393.795 677 425.501 677 457.203 651.206 482.996 619.5 482.996ZM619.5 371.945C589.973 371.945 565.941 395.97 565.941 425.501 565.941 455.031 589.973 479.055 619.5 479.055 649.032 479.055 673.059 455.03 673.059 425.501 673.059 395.97 649.031 371.945 619.5 371.945Z" fill="#EE826C"/><path d="M621.258 433.17 607.286 433.258 606.677 435.164C606.215 436.434 606.254 437.488 606.789 438.327 607.324 439.165 608.447 439.574 610.156 439.566L612.677 439.547 612.785 455.948 585.236 456.137 585.128 439.727 586.94 439.715C589.064 439.7 590.48 439.272 591.2 438.425 591.915 437.58 592.608 436.344 593.274 434.72L602.195 412.285C602.83 410.568 602.938 409.306 602.503 408.498 602.068 407.694 600.779 407.297 598.624 407.309L597.699 407.317 597.588 390.905 643.051 390.612 643.159 407.018 642.27 407.021C640.088 407.041 638.788 407.475 638.365 408.33 637.949 409.196 638.081 410.431 638.769 412.047L647.982 434.362C648.343 435.186 648.664 435.898 648.948 436.501 649.225 437.102 649.579 437.618 649.999 438.041 650.41 438.465 650.969 438.784 651.661 438.98 652.361 439.184 653.247 439.28 654.343 439.272L656.155 439.264 656.26 455.67 616.065 455.928 615.957 439.523 618.389 439.506C620.07 439.491 621.194 439.072 621.76 438.222 622.33 437.379 622.372 436.326 621.891 435.058L621.258 433.17ZM609.497 426.352 618.918 426.289 614.403 412.737 614.049 412.74 609.497 426.352Z" fill="#FFFFFF"/></g></g></g></g></svg>