<svg width="117" height="116" xmlns="http://www.w3.org/2000/svg" xmlns:xlink="http://www.w3.org/1999/xlink" overflow="hidden"><defs><clipPath id="clip0"><rect x="561" y="517" width="117" height="116"/></clipPath><clipPath id="clip1"><rect x="562" y="517" width="115" height="115"/></clipPath><clipPath id="clip2"><rect x="562" y="517" width="115" height="115"/></clipPath><clipPath id="clip3"><rect x="562" y="517" width="115" height="115"/></clipPath></defs><g clip-path="url(#clip0)" transform="translate(-561 -517)"><g clip-path="url(#clip1)"><g clip-path="url(#clip2)"><g clip-path="url(#clip3)"><path d="M619.5 523.189C647.838 523.189 670.812 546.162 670.812 574.502 670.812 602.84 647.837 625.809 619.5 625.809 591.165 625.809 568.192 602.839 568.192 574.502 568.192 546.162 591.165 523.189 619.5 523.189Z" fill="#EE826C"/><path d="M619.5 631.996C587.794 631.996 562 606.205 562 574.501 562 542.795 587.793 517.004 619.5 517.004 651.207 517.004 677 542.799 677 574.504 677 606.206 651.206 631.996 619.5 631.996ZM619.5 520.945C589.973 520.945 565.941 544.966 565.941 574.501 565.941 604.035 589.973 628.053 619.5 628.053 649.032 628.053 673.059 604.031 673.059 574.502 673.059 544.966 649.031 520.945 619.5 520.945Z" fill="#EE826C"/><path d="M653.961 559.261C654.026 568.358 649.321 573.361 639.864 574.281L639.864 574.747C644.817 574.827 648.716 576.152 651.576 578.722 654.438 581.286 655.881 585.017 655.912 589.905 655.929 591.952 655.696 593.956 655.227 595.939 654.758 597.917 653.726 599.675 652.127 601.227 650.533 602.766 648.224 604.036 645.207 605.022 642.181 606.006 638.119 606.514 633 606.553L586.113 606.854 586.009 591.044C588.514 591.021 590.304 590.683 591.378 590.003 592.452 589.325 592.982 588.066 592.971 586.216L592.833 564.651C592.821 562.776 592.267 561.507 591.185 560.848 590.1 560.187 588.311 559.863 585.808 559.882L585.708 544.069 635.531 543.746C639.453 543.712 642.62 544.139 645.044 544.997 647.461 545.871 649.331 547.021 650.65 548.461 651.963 549.9 652.848 551.563 653.282 553.457 653.723 555.336 653.949 557.272 653.961 559.261ZM618.019 571.094 624.461 571.048C626.215 571.04 627.49 570.471 628.263 569.341 629.037 568.216 629.418 566.851 629.406 565.26 629.398 563.76 628.994 562.432 628.206 561.305 627.42 560.178 626.147 559.612 624.384 559.623L617.946 559.67 618.019 571.094ZM624.496 590.789C626.881 590.774 628.529 590.297 629.433 589.377 630.333 588.445 630.784 586.895 630.768 584.74 630.756 582.577 630.287 581.011 629.375 580.037 628.463 579.059 626.812 578.582 624.417 578.598L618.072 578.641 618.148 590.828 624.496 590.789Z" fill="#FFFFFF"/></g></g></g></g></svg>