<svg width="117" height="117" xmlns="http://www.w3.org/2000/svg" xmlns:xlink="http://www.w3.org/1999/xlink" overflow="hidden"><defs><clipPath id="clip0"><rect x="561" y="665" width="117" height="117"/></clipPath><clipPath id="clip1"><rect x="562" y="666" width="115" height="115"/></clipPath><clipPath id="clip2"><rect x="562" y="666" width="115" height="115"/></clipPath><clipPath id="clip3"><rect x="562" y="666" width="115" height="115"/></clipPath></defs><g clip-path="url(#clip0)" transform="translate(-561 -665)"><g clip-path="url(#clip1)"><g clip-path="url(#clip2)"><g clip-path="url(#clip3)"><path d="M619.5 672.189C647.838 672.189 670.812 695.162 670.812 723.502 670.812 751.84 647.837 774.809 619.5 774.809 591.165 774.809 568.192 751.839 568.192 723.502 568.192 695.162 591.165 672.189 619.5 672.189Z" fill="#EE826C"/><path d="M619.5 780.996C587.794 780.996 562 755.205 562 723.501 562 691.795 587.793 666.004 619.5 666.004 651.207 666.004 677 691.799 677 723.504 677 755.206 651.206 780.996 619.5 780.996ZM619.5 669.945C589.973 669.945 565.941 693.966 565.941 723.501 565.941 753.035 589.973 777.053 619.5 777.053 649.032 777.053 673.059 753.031 673.059 723.502 673.059 693.966 649.031 669.945 619.5 669.945Z" fill="#EE826C"/><path d="M618.426 689.632C620.4 689.62 622.251 689.766 623.983 690.079 625.707 690.391 627.284 690.806 628.698 691.31 630.117 691.813 631.348 692.348 632.383 692.919 633.418 693.483 634.266 693.998 634.911 694.473L634.892 691.287 649.487 691.194 649.646 715.3 634.165 715.4C634.152 713.421 633.899 711.775 633.407 710.447 632.906 709.123 632.252 708.053 631.436 707.233 630.62 706.414 629.666 705.829 628.573 705.482 627.476 705.136 626.299 704.967 625.033 704.975 623.294 704.987 621.812 705.329 620.573 706.003 619.338 706.673 618.337 707.751 617.563 709.228 616.794 710.706 616.209 712.669 615.831 715.119 615.455 717.571 615.27 720.55 615.293 724.056 615.316 727.627 615.547 730.609 615.992 733.011 616.44 735.408 617.098 737.351 617.979 738.837 618.861 740.322 619.976 741.392 621.342 742.045 622.702 742.7 624.325 743.016 626.21 743.008 627.476 743 628.697 742.746 629.876 742.254 631.054 741.761 632.086 741.012 632.983 739.998 633.875 738.991 634.567 737.74 635.076 736.228 635.579 734.719 635.829 732.903 635.818 730.779L651.208 730.683C651.232 734.431 650.66 737.972 649.503 741.307 648.349 744.651 646.525 747.584 644.035 750.098 641.541 752.622 638.37 754.63 634.519 756.132 630.667 757.633 626.087 758.39 620.781 758.433 616.006 758.463 611.488 757.848 607.22 756.575 602.948 755.307 599.22 753.295 596.033 750.544 592.84 747.797 590.314 744.252 588.44 739.916 586.57 735.582 585.615 730.357 585.573 724.257 585.535 718.15 586.435 712.917 588.282 708.564 590.126 704.2 592.576 700.621 595.643 697.831 598.702 695.042 602.207 692.986 606.145 691.663 610.087 690.333 614.181 689.656 618.426 689.632Z" fill="#FFFFFF"/></g></g></g></g></svg>