<svg width="117" height="117" xmlns="http://www.w3.org/2000/svg" xmlns:xlink="http://www.w3.org/1999/xlink" overflow="hidden"><defs><clipPath id="clip0"><rect x="561" y="817" width="117" height="117"/></clipPath><clipPath id="clip1"><rect x="562" y="818" width="115" height="115"/></clipPath><clipPath id="clip2"><rect x="562" y="818" width="115" height="115"/></clipPath><clipPath id="clip3"><rect x="562" y="818" width="115" height="115"/></clipPath></defs><g clip-path="url(#clip0)" transform="translate(-561 -817)"><g clip-path="url(#clip1)"><g clip-path="url(#clip2)"><g clip-path="url(#clip3)"><path d="M619.5 824.189C647.838 824.189 670.812 847.162 670.812 875.502 670.812 903.84 647.837 926.809 619.5 926.809 591.165 926.809 568.192 903.839 568.192 875.502 568.192 847.162 591.165 824.189 619.5 824.189Z" fill="#EE826C"/><path d="M619.5 932.996C587.794 932.996 562 907.201 562 875.501 562 843.795 587.793 818.004 619.5 818.004 651.207 818.004 677 843.795 677 875.501 677 907.203 651.206 932.996 619.5 932.996ZM619.5 821.945C589.973 821.945 565.941 845.97 565.941 875.501 565.941 905.031 589.973 929.055 619.5 929.055 649.032 929.055 673.059 905.03 673.059 875.501 673.059 845.97 649.031 821.945 619.5 821.945Z" fill="#EE826C"/><path d="M586.725 906.848 586.62 891.285C589.08 891.271 590.842 890.931 591.901 890.27 592.963 889.608 593.482 888.366 593.466 886.545L593.328 865.327C593.317 863.482 592.777 862.235 591.713 861.582 590.645 860.936 588.88 860.616 586.42 860.631L586.32 845.074 630.817 844.781C634.818 844.758 638.69 845.261 642.446 846.296 646.198 847.335 649.541 849.052 652.485 851.435 655.421 853.82 657.792 856.987 659.594 860.928 661.393 864.877 662.313 869.74 662.349 875.528 662.392 881.315 661.549 886.188 659.821 890.139 658.101 894.095 655.746 897.282 652.756 899.706 649.761 902.13 646.259 903.888 642.241 904.982 638.216 906.062 633.949 906.629 629.42 906.66L586.725 906.848ZM622.186 891.055C623.722 891.047 625.222 890.87 626.692 890.521 628.162 890.173 629.441 889.466 630.541 888.399 631.637 887.329 632.529 885.794 633.215 883.785 633.905 881.784 634.235 879.094 634.212 875.709 634.192 872.379 633.835 869.709 633.154 867.682 632.464 865.661 631.583 864.111 630.497 863.025 629.416 861.94 628.124 861.231 626.627 860.89 625.129 860.551 623.584 860.386 621.99 860.396L618.045 860.423 618.245 891.077 622.186 891.055Z" fill="#FFFFFF"/></g></g></g></g></svg>