<svg width="858" height="366" xmlns="http://www.w3.org/2000/svg" xmlns:xlink="http://www.w3.org/1999/xlink" overflow="hidden"><defs><clipPath id="clip0"><rect x="948" y="166" width="858" height="366"/></clipPath><clipPath id="clip1"><rect x="948" y="167" width="857" height="364"/></clipPath><clipPath id="clip2"><rect x="947" y="167" width="858" height="364"/></clipPath><clipPath id="clip3"><rect x="947" y="167" width="858" height="364"/></clipPath></defs><g clip-path="url(#clip0)" transform="translate(-948 -166)"><g clip-path="url(#clip1)"><g clip-path="url(#clip2)"><g clip-path="url(#clip3)"><path d="M489.004 355.554C488.602 355.364 488.211 355.167 487.832 354.961 473.302 347.337 459.838 337.319 447.743 325.149 436.392 313.747 426.444 299.485 417.323 281.546 413.968 274.974 411.022 267.936 408.564 260.618 407.278 256.804 406.215 253.232 405.309 249.693 404.83 247.837 404.391 245.977 403.982 244.102L403.726 242.86 402.349 238.604C402.349 238.604 398.758 238.523 398.75 238.523 398.293 238.523 397.919 238.56 397.57 238.615L389.468 238.748C377.864 238.972 364.384 239.209 351.107 239.209 349.305 239.209 347.503 239.205 345.702 239.196 340.03 239.173 330.198 238.603 323.296 238.175L323.005 238.157 314.921 238.593C299.732 239.438 284.248 239.992 269.274 240.528 258.73 240.905 247.825 241.295 237.094 241.784 208.557 243.082 180.367 243.423 151.592 243.683 147.056 243.721 142.52 243.743 137.979 243.743 119.075 243.743 103.285 243.36 88.2851 242.538 79.6981 242.057 64.095 240.438 50.1464 238.021 43.0844 236.803 36.8399 235.442 32.0828 234.084 31.4227 233.9 30.8215 233.721 30.2432 233.542 29.642 233.365 29.1047 233.208 28.5707 233.06 28.1939 232.928 27.8221 232.774 27.4519 232.617L27.2192 232.525C25.111 231.752 24.0003 231.2 23.7776 231.068L23.6039 230.963C23.4172 230.853 23.1846 230.733 22.9863 230.584L22.662 230.242 22.1673 229.918C19.1155 227.922 16.6288 225.289 14.9743 222.307 13.1445 219.056 11.7112 215.221 10.4498 210.211 9.43746 205.689 8.66426 201.001 8.18102 196.405 7.58147 191.47 7.226 186.607 6.9295 182.074 6.42659 174.086 6.08914 165.936 5.76315 158.055L5.56003 153.186C4.82615 134.731 4.86219 114.574 5.67306 89.7593 6.03836 81.0142 6.65757 73.347 7.56509 66.3645 8.42019 60.0151 9.74706 51.6419 12.4074 43.3841 13.1216 41.0957 14.7269 36.5974 17.6199 31.6732 19.2187 29.076 20.6356 27.1299 22.1607 25.4492 23.9823 23.4523 26.0185 21.7437 28.0416 20.5151 31.5488 18.3438 35.2444 17.5526 37.7327 17.2668L38.1635 17.2176 38.822 17.0227C43.8871 15.7302 49.1193 14.9406 53.6175 14.305 58.0896 13.6875 62.9237 13.1411 68.8127 12.5858 100.235 9.74778 132.056 8.60765 159.414 7.76156 191.655 6.81882 223.42 6.38226 250.238 6.07921 259.228 5.97928 268.218 5.85233 277.208 5.72538 296.425 5.45427 316.295 5.17497 335.826 5.17497 341.804 5.17497 347.786 5.20036 353.762 5.26015 361.179 5.29537 368.559 5.31011 375.95 5.31011 392.145 5.31011 408.338 5.24049 424.532 5.17087 440.713 5.10207 456.895 5.03245 473.075 5.03245 511.803 5.03245 541.415 5.45017 569.091 6.38636 587.946 7.02604 607.101 7.3807 625.624 7.72306 647.9 8.13505 670.933 8.56096 693.523 9.4865 698.902 9.70601 706.259 9.89112 714.776 10.1057 731.822 10.5357 753.037 11.0697 774.456 12.2303L774.646 12.241 783.539 12.0469C785.624 11.9773 787.657 11.9388 789.694 11.9388 791.163 11.9388 792.634 11.9592 794.107 12.0027 802.574 12.2541 809.009 12.9913 814.973 14.3943 818.782 15.2928 822.03 16.3682 824.9 17.6804 828.258 19.2161 831.154 21.1384 833.505 23.3925 836.265 25.9774 838.56 29.4634 840.01 33.2482 841.288 36.608 842.118 40.4437 842.544 44.9633 842.937 49.0602 842.969 53.0113 842.967 57.0362 843 61.0832 843.006 65.0892 842.967 69.0936 842.945 82.1207 843.18 95.2961 843.407 108.038 843.768 128.25 844.141 149.15 843.491 169.642 843.412 171.737 843.367 173.891 843.322 176.063 843.267 178.775 843.209 181.578 843.077 184.331 842.821 190.235 842.43 194.717 841.804 198.887 840.965 204.51 839.846 208.996 838.283 213.011 836.984 216.411 834.549 221.182 830.25 224.77 828.985 225.861 826.414 227.813 822.675 229.239 819.442 230.489 815.558 231.327 811.107 231.738 808.832 231.938 806.343 232.044 803.521 232.059L803.169 232.06 802.584 232.15C781.986 235.427 761.074 236.826 743.097 237.879 721.184 239.1 699.553 239.723 683.158 240.13 677.744 240.263 672.33 240.416 666.917 240.57 652.152 240.988 636.883 241.421 621.898 241.421 621.894 241.421 621.894 241.421 621.891 241.421 619.539 241.421 617.185 241.411 614.832 241.388L610.847 241.384C597.372 241.384 583.685 241.525 570.449 241.66 557.241 241.796 543.581 241.937 530.161 241.937 507.794 241.937 489.52 241.539 472.649 240.686L462.491 240.222 456.513 239.335 455.886 245.509 455.85 248.863C455.863 249.902 455.933 250.818 456.007 251.732 456.041 252.145 456.654 260.546 456.654 260.546 456.841 262.377 457.088 264.026 457.326 265.62 457.462 266.522 457.596 267.425 457.717 268.329 458.104 271.804 458.829 275.286 459.53 278.653 459.866 280.264 460.202 281.874 460.5 283.49L460.54 283.684C460.875 285.175 461.255 286.66 461.637 288.145 461.894 289.145 462.151 290.145 462.392 291.149L463.365 295.088 464.438 298.757C465.334 301.792 466.555 305.932 468.437 310.751 470.087 315.416 472.35 320.745 474.714 326.237 478.76 335.411 483.747 345.632 489.004 355.554Z" fill="#FFFFFF" transform="matrix(-1.00567 0 0 1 1803.52 168.019)"/><path d="M848 69.1429C848.038 65.1076 848.032 61.0727 847.999 57.0378 848.001 52.9558 847.967 48.7844 847.554 44.4917 847.15 40.2119 846.358 35.7828 844.711 31.448 843.056 27.1297 840.427 22.9815 836.988 19.7604 834.005 16.9002 830.541 14.7256 826.991 13.1033 823.431 11.4754 819.776 10.3572 816.125 9.4951 808.812 7.77569 801.499 7.18781 794.257 6.97239 790.634 6.86428 787.025 6.89581 783.43 7.0154L774.728 7.20501C742.25 5.44567 709.513 5.10187 693.729 4.45788 652.299 2.7612 610.763 2.76509 569.262 1.35692 497.481-1.07221 425.639 0.572875 353.812 0.227641 319.259-0.115955 284.724 0.662767 250.18 1.04691 219.873 1.38907 189.565 1.84549 159.258 2.73151 128.949 3.66913 98.6466 4.83813 68.3406 7.57543 63.1973 8.06031 58.0548 8.61256 52.9136 9.32166 47.7695 10.0494 42.643 10.8531 37.4755 12.174 37.3731 12.2027 37.263 12.2371 37.1585 12.267 33.612 12.6743 29.3889 13.7628 25.43 16.213 22.8463 17.7823 20.4751 19.83 18.4348 22.0666 16.3958 24.3125 14.7421 26.7496 13.2821 29.1237 10.4699 33.908 8.66344 38.4882 7.61792 41.8408 5.06818 49.7519 3.64875 57.7476 2.57578 65.716 1.53844 73.6893 0.97452 81.6522 0.644439 89.5951-0.0558567 110.966-0.31468 132.13 0.532638 153.398 0.94012 163.058 1.29723 172.723 1.90866 182.403 2.22441 187.239 2.58807 192.093 3.17615 196.931 3.68397 201.761 4.49074 206.623 5.56986 211.44 6.71572 215.994 8.20682 220.545 10.5747 224.748 12.6793 228.543 15.8171 231.777 19.4111 234.129 19.8739 234.617 20.5832 235.025 21.1144 235.337 21.7234 235.72 23.2636 236.435 25.4882 237.25 26.0177 237.474 26.5484 237.691 27.089 237.872 27.6476 238.025 28.2038 238.188 28.7591 238.351 29.3799 238.542 30.0245 238.734 30.7023 238.923 35.7481 240.364 42.2981 241.774 49.2876 242.979 63.2677 245.402 78.9957 247.057 88.009 247.563 109.234 248.727 130.445 248.893 151.638 248.715 180.227 248.457 208.788 248.11 237.323 246.812 263.275 245.628 289.26 245.06 315.2 243.617 317.795 243.472 320.39 243.338 322.985 243.198 331.516 243.726 340.322 244.207 345.677 244.228 360.291 244.302 374.918 244.061 389.554 243.779L396.307 243.665 397.995 243.643 398.209 243.608C398.346 243.592 398.518 243.551 398.663 243.555L398.773 243.899 398.836 244.092 398.853 244.142 398.916 244.445 399.067 245.175C399.489 247.112 399.942 249.033 400.433 250.939 401.408 254.753 402.543 258.509 403.793 262.221 406.288 269.644 409.289 276.879 412.838 283.827 421.15 300.176 431.263 315.727 444.174 328.696 456.361 340.959 470.258 351.423 485.423 359.38 487.811 360.68 490.412 361.574 492.914 362.606 493.567 362.867 494.28 362.89 494.814 362.318 495.378 362.427 495.966 362.315 496.556 361.846 497.889 360.83 496.984 359.732 496.321 358.534 490.298 347.505 484.191 335.253 479.336 324.247 476.957 318.719 474.76 313.538 473.124 308.921 471.341 304.353 470.155 300.349 469.269 297.345L468.197 293.676 467.286 289.971C466.69 287.501 466.006 285.05 465.449 282.578 464.532 277.599 463.265 272.675 462.705 267.665 462.372 265.168 461.93 262.678 461.673 260.179L461.123 252.669C461.048 251.418 460.9 250.166 460.883 248.915L460.914 245.791 460.986 245.082 461.509 245.16 461.772 245.205 461.913 245.23 461.947 245.236 462.241 245.248 462.838 245.273 472.395 245.712C519.824 248.11 567.314 246.32 614.784 246.42 637.624 246.64 660.449 245.723 683.283 245.16 703.317 244.664 723.355 244.02 743.392 242.902 763.429 241.729 783.466 240.288 803.479 237.102 803.502 237.099 803.524 237.094 803.547 237.091 806.249 237.077 808.936 236.982 811.569 236.749 816.179 236.323 820.635 235.423 824.468 233.941 828.308 232.476 831.411 230.415 833.476 228.633 837.958 224.89 841.062 219.84 842.973 214.836 844.936 209.794 846.028 204.683 846.78 199.633 847.538 194.574 847.887 189.558 848.103 184.572 848.344 179.571 848.339 174.611 848.52 169.801 849.585 136.254 847.944 102.705 848 69.1429ZM839.687 195.985C839.214 201.614 838.297 207.203 836.49 212.446 835.54 215.036 834.427 217.577 832.885 219.823 831.356 222.071 829.482 224.065 827.281 225.666 826.94 225.917 826.579 226.14 826.224 226.372 825.934 226.257 825.636 226.2 825.354 226.2 824.689 226.218 823.727 226.422 823.078 226.545 821.759 226.724 817.363 227.616 810.737 228.074 804.157 228.598 795.558 228.926 786.369 229.069 767.995 229.392 747.298 229.103 735.465 229.398 707.551 230.099 679.638 230.801 651.703 231.504 613.978 232.434 576.219 232.5 538.446 233.313 524.303 233.617 510.151 233.701 495.999 233.715L474.769 233.696 464.155 233.675 449.752 233.569 449.966 246.544C449.943 249.66 450.379 252.742 450.702 255.826 452.492 272.353 456.619 288.444 462.269 303.869 467.891 319.319 475.193 334.069 483.621 348.077 485.491 351.085 487.511 353.996 489.622 356.832 488.375 356.025 487.125 355.216 485.91 354.361 484.495 353.424 483.09 352.495 481.713 351.583 480.359 350.632 479.031 349.699 477.746 348.795 472.602 345.192 468.299 341.825 465.867 339.62 455.529 330.362 445.689 320.402 438.024 308.787 434.765 303.744 431.575 298.678 428.618 293.46 425.675 288.239 422.891 282.919 420.353 277.468 415.296 266.583 411.155 255.108 408.827 243.368L408.526 241.68C408.365 240.803 408.238 239.908 408.115 239.008 407.85 237.229 407.638 235.38 407.405 233.585L400.503 233.535 395.65 233.558 388.144 233.687C383.139 233.786 378.134 233.885 373.135 233.983 356.984 234.215 340.827 234.495 324.681 235.409 312.071 235.647 299.457 235.967 286.836 235.837 251.072 235.467 215.347 237.718 179.598 237.666 162.406 237.501 145.227 237.982 128.052 237.829 112.987 237.694 97.9311 237.395 82.9047 236.896 67.8909 236.346 52.8591 235.736 38.0517 234.156 35.6437 233.873 33.2303 233.582 30.8456 233.231 29.5806 232.82 28.3667 232.435 27.374 231.891 25.0553 230.953 23.4794 229.698 22.2226 228.86 19.8711 226.746 17.9074 224.375 16.4171 221.517 15.0345 218.574 13.8379 215.415 13.1351 211.899 11.5822 204.981 10.9744 197.396 10.7205 189.887 10.4171 176.699 10.1152 163.593 9.81259 150.438 9.55254 137.229 9.40347 123.985 9.85804 110.766 10.4465 98.0353 10.3835 85.3818 11.7054 72.8742 12.2509 67.3873 12.9877 61.9362 13.9808 56.5683 14.9694 51.2018 16.2008 45.9015 17.8938 40.8348 19.5746 35.7695 21.7463 30.9274 24.7506 26.8545 27.775 22.8151 31.7384 19.7604 36.6249 18.2418 37.3428 18.0117 38.0812 17.8176 38.8266 17.6341 42.0139 17.3122 48.0995 16.7876 56.1595 16.539 66.2794 16.1729 79.404 16.0472 93.3866 16.0605 121.355 16.0797 152.763 16.6232 170.737 16.4577 213.087 15.9925 255.442 15.5275 297.817 15.0622 355.005 14.3753 412.21 14.4797 469.423 13.7681 521.467 13.1254 573.569 13.7128 625.642 13.4176 665.928 13.1911 706.229 13.3516 746.528 13.4917 751.173 13.8961 756.966 14.3476 763.131 14.7817 769.693 15.2359 776.747 15.7087 783.056 16.0087 789.29 16.2198 794.871 16.6496 798.878 17.0307 808.262 17.8788 817.691 19.5208 824.985 23.5596 828.58 25.6027 831.485 28.2035 833.435 31.5694 835.409 34.9228 836.543 39.032 837.109 43.5164 837.898 49.5643 837.673 56.1905 837.838 62.9269L838.133 83.0201C838.344 96.4148 838.603 109.808 839.037 123.2 839.432 135.38 839.638 147.565 839.838 159.752L840.146 178.003C840.254 184.021 840.183 190.036 839.687 195.985Z" fill="#FFFFFF" transform="matrix(-1.00567 0 0 1 1803.52 168.019)"/></g></g></g></g></svg>