<svg width="65" height="65" xmlns="http://www.w3.org/2000/svg" xmlns:xlink="http://www.w3.org/1999/xlink" overflow="hidden"><defs><clipPath id="clip0"><rect x="1794" y="977" width="65" height="65"/></clipPath><clipPath id="clip1"><rect x="1794" y="978" width="64" height="64"/></clipPath><clipPath id="clip2"><rect x="1794" y="978" width="64" height="64"/></clipPath><clipPath id="clip3"><rect x="1794" y="978" width="64" height="64"/></clipPath></defs><g clip-path="url(#clip0)" transform="translate(-1794 -977)"><g clip-path="url(#clip1)"><g clip-path="url(#clip2)"><g clip-path="url(#clip3)"><path d="M1794 985.111C1794 981.184 1797.18 978 1801.11 978L1850.89 978C1854.82 978 1858 981.184 1858 985.111L1858 1034.89C1858 1038.82 1854.82 1042 1850.89 1042L1801.11 1042C1797.18 1042 1794 1038.82 1794 1034.89L1794 985.111Z" fill="#0078d0"/><path d="M1830.47 992.348C1830.47 994.828 1828.48 996.923 1826 996.923 1823.63 996.923 1821.54 994.773 1821.54 992.348 1821.54 990.089 1823.63 987.993 1826 987.993 1828.37 987.995 1830.47 990.034 1830.47 992.348ZM1822.03 1004.31C1822.03 1001.66 1823.69 999.899 1826 999.899 1828.31 999.899 1829.97 1001.66 1829.97 1004.31L1829.97 1025.48C1829.97 1028.12 1828.31 1029.88 1826 1029.88 1823.69 1029.88 1822.03 1028.12 1822.03 1025.48L1822.03 1004.31Z" fill="white"/></g></g></g></g></svg>