<svg width="436" height="132" xmlns="http://www.w3.org/2000/svg" xmlns:xlink="http://www.w3.org/1999/xlink" overflow="hidden"><defs><clipPath id="clip0"><rect x="388" y="891" width="436" height="132"/></clipPath><clipPath id="clip1"><rect x="389" y="892" width="434" height="130"/></clipPath><clipPath id="clip2"><rect x="389" y="892" width="434" height="130"/></clipPath><clipPath id="clip3"><rect x="389" y="892" width="434" height="130"/></clipPath></defs><g clip-path="url(#clip0)" transform="translate(-388 -891)"><g clip-path="url(#clip1)"><g clip-path="url(#clip2)"><g clip-path="url(#clip3)"><path d="M208.524 109.916C158.825 109.916 109.127 110.003 59.428 109.916 40.1446 109.916 23.4031 103.342 10.1676 89.0544-10.08 67.2291-9.02815 34.8855 12.5342 14.1996 23.929 3.33078 37.6027-2.45426 53.1171-3.94434 55.8343-4.2073 58.5515-4.2073 61.2687-4.2073 159.877-4.2073 258.573-4.2073 357.182-4.2073 373.748-4.2073 388.649 0.701216 401.446 11.4824 412.315 20.6859 419.152 32.1683 420.905 46.4556 422.921 62.4082 418.1 76.4325 407.582 88.3532 396.801 100.537 383.039 107.198 366.999 109.39 363.23 109.916 359.548 110.003 355.779 110.003 306.694 109.916 257.609 109.916 208.524 109.916ZM208.699 0C159.088 0 109.39 0 59.7786 0 57.1491 0 54.5195 0.087652 51.89 0.350608 38.2163 2.016 26.0326 7.27511 15.9527 16.8292 6.83685 25.5067 1.13948 36.025 0.175304 48.7345-1.13948 66.0896 5.60973 80.2016 18.7575 91.2457 30.6782 101.238 44.7025 105.621 60.1293 105.621 159.088 105.621 257.96 105.621 356.919 105.621 371.031 105.621 384.091 101.939 395.486 93.5247 407.582 84.5842 415.207 72.9264 416.785 57.7627 418.275 43.4754 413.893 30.9411 404.426 20.3353 392.067 6.5739 376.29 0.175304 357.971 0.087652 308.184-0.087652 258.398 0 208.699 0Z" fill="#439997" fill-rule="evenodd" transform="matrix(1 0 0 1.13825 399.58 896.789)"/><path d="M208.699 0C258.486 0 308.184-0.087652 357.971 0 376.29 0 392.067 6.48625 404.426 20.2476 413.98 30.8535 418.363 43.4754 416.785 57.675 415.207 72.7511 407.494 84.4965 395.486 93.437 384.091 101.852 371.031 105.533 356.919 105.533 257.96 105.533 159.088 105.533 60.1293 105.533 44.7025 105.533 30.6782 101.15 18.7575 91.1581 5.60973 80.2016-1.13948 66.0896 0.175304 48.7345 1.13948 36.1126 6.83685 25.5944 15.9527 16.9168 26.0326 7.27511 38.2163 2.016 51.9776 0.43826 54.6072 0.087652 57.2367 0.087652 59.8663 0.087652 109.39 0 159.088 0 208.699 0Z" fill="#FAFAEC" fill-rule="evenodd" transform="matrix(1 0 0 1.13825 399.58 896.789)"/></g></g></g></g></svg>