<svg width="341" height="444" xmlns="http://www.w3.org/2000/svg" xmlns:xlink="http://www.w3.org/1999/xlink" overflow="hidden"><defs><clipPath id="clip0"><rect x="620" y="421" width="341" height="444"/></clipPath><clipPath id="clip1"><rect x="621" y="421" width="339" height="443"/></clipPath><clipPath id="clip2"><rect x="621" y="421" width="339" height="443"/></clipPath><clipPath id="clip3"><rect x="621" y="421" width="339" height="443"/></clipPath></defs><g clip-path="url(#clip0)" transform="translate(-620 -421)"><g clip-path="url(#clip1)"><g clip-path="url(#clip2)"><g clip-path="url(#clip3)"><path d="M290.859 0 47.709 0C21.4003 0 0 21.4003 0 47.7057L0 360.329C0 367.494 5.80697 373.301 12.9719 373.301L325.596 373.301C332.761 373.301 338.568 367.494 338.568 360.329L338.568 47.7057C338.568 21.4003 317.167 0 290.859 0Z" fill="#0082FF" transform="matrix(1 0 0 1.00051 621.216 421)"/><path d="M290.859 0 169.287 0 169.287 373.301 325.596 373.301C332.761 373.301 338.568 367.494 338.568 360.329L338.568 47.7057C338.568 21.4003 317.167 0 290.859 0Z" fill="#3A4DE2" transform="matrix(1 0 0 1.00051 621.216 421)"/><path d="M221.388 69.4708 117.18 69.4708C90.8745 69.4708 69.4708 90.8745 69.4708 117.18L69.4708 186.651C69.4708 212.959 90.8745 234.36 117.18 234.36L221.388 234.36C247.693 234.36 269.097 212.959 269.097 186.651L269.097 117.18C269.097 90.8745 247.693 69.4708 221.388 69.4708Z" fill="#DEECF1" transform="matrix(1 0 0 1.00051 621.216 421)"/><path d="M256.125 263.992C248.96 263.992 243.153 269.803 243.153 276.964L243.153 304.753C243.153 311.918 248.96 317.725 256.125 317.725 263.286 317.725 269.097 311.918 269.097 304.753L269.097 276.964C269.097 269.799 263.286 263.992 256.125 263.992Z" fill="#76E2F8" transform="matrix(1 0 0 1.00051 621.216 421)"/><path d="M12.9719 360.329 12.9719 395.066C12.9719 414.173 28.6024 429.804 47.709 429.804L290.859 429.804C309.965 429.804 325.596 414.173 325.596 395.066L325.596 360.329Z" fill="#FFB64C" transform="matrix(1 0 0 1.00051 621.216 421)"/><path d="M169.287 360.329 169.287 429.804 290.859 429.804C309.965 429.804 325.596 414.173 325.596 395.066L325.596 360.329Z" fill="#FF5B5B" transform="matrix(1 0 0 1.00051 621.216 421)"/><path d="M325.596 347.357 12.9719 347.357C5.80697 347.357 0 353.168 0 360.329L0 395.066C0 421.375 21.4003 442.776 47.709 442.776L290.859 442.776C317.167 442.776 338.568 421.375 338.568 395.066L338.568 360.329C338.568 353.168 332.761 347.357 325.596 347.357ZM200.602 416.832 244.129 373.301 276.91 373.301 233.383 416.832ZM131.128 416.832 174.658 373.301 207.44 373.301 163.909 416.832ZM61.6572 416.832 105.184 373.301 137.965 373.301 94.4384 416.832ZM25.9439 373.301 68.4945 373.301 31.8488 409.95C28.1903 406.052 25.9439 400.819 25.9439 395.066ZM290.859 416.832 270.073 416.832 312.624 374.281 312.624 395.066C312.624 407.069 302.861 416.832 290.859 416.832Z" fill="#005183" transform="matrix(1 0 0 1.00051 621.216 421)"/><path d="M269.097 186.651 269.097 117.18C269.097 90.8745 247.693 69.4708 221.388 69.4708L169.287 69.4708 169.287 234.36 221.388 234.36C247.693 234.36 269.097 212.959 269.097 186.651Z" fill="#76E2F8" transform="matrix(1 0 0 1.00051 621.216 421)"/><path d="M325.596 347.357 169.287 347.357 169.287 378.676 174.658 373.301 207.44 373.301 169.287 411.457 169.287 442.776 290.859 442.776C317.167 442.776 338.568 421.375 338.568 395.066L338.568 360.329C338.568 353.168 332.761 347.357 325.596 347.357ZM200.602 416.832 244.129 373.301 276.91 373.301 233.383 416.832ZM312.624 395.066C312.624 407.069 302.861 416.832 290.859 416.832L270.073 416.832 312.624 374.281Z" fill="#00215A" transform="matrix(1 0 0 1.00051 621.216 421)"/></g></g></g></g></svg>