<svg width="316" height="316" xmlns="http://www.w3.org/2000/svg" xmlns:xlink="http://www.w3.org/1999/xlink" overflow="hidden"><defs><clipPath id="clip0"><rect x="-18" y="448" width="316" height="316"/></clipPath><clipPath id="clip1"><rect x="-17" y="448" width="315" height="315"/></clipPath><clipPath id="clip2"><rect x="-17" y="448" width="315" height="315"/></clipPath><clipPath id="clip3"><rect x="-17" y="448" width="315" height="315"/></clipPath></defs><g clip-path="url(#clip0)" transform="translate(18 -448)"><g clip-path="url(#clip1)"><g clip-path="url(#clip2)"><g clip-path="url(#clip3)"><path d="M140.5 448 150.661 448C151.423 448 152.185 448.051 152.897 448.102 157.478 448.656 161.748 450.71 165.04 453.944 168.838 457.767 170.974 462.934 170.984 468.323L155.742 498.806 155.742 732.516 125.258 732.516 125.258 498.806 110.016 468.323C110.026 462.934 112.162 457.767 115.96 453.944 119.252 450.71 123.522 448.656 128.103 448.102 128.815 448.051 129.577 448 130.339 448Z" fill="#CDD6E0"/><path d="M125.258 498.806 125.258 575.016 104.935 519.129 125.258 498.806Z" fill="#DBEAFF"/><path d="M155.742 498.806 155.742 575.016 176.065 519.129 155.742 498.806Z" fill="#DBEAFF"/><path d="M110.016 468.323 125.258 498.806 99.8548 508.968 95.8411 492.913C95.1332 490.088 94.7749 487.188 94.7742 484.276L94.7742 483.565C94.7579 464.79 109.364 449.249 128.103 448.102 123.522 448.656 119.252 450.71 115.96 453.944 112.162 457.767 110.026 462.934 110.016 468.323Z" fill="#DBEAFF"/><path d="M175.81 458.415C182.5 465.072 186.25 474.127 186.226 483.565L186.226 484.276C186.225 487.188 185.867 490.088 185.159 492.913L181.145 508.968 155.742 498.806 170.984 468.323C170.974 462.934 168.838 457.767 165.04 453.944 161.748 450.71 157.478 448.656 152.897 448.102 161.544 448.6 169.703 452.273 175.81 458.415Z" fill="#DBEAFF"/><path d="M99.8548 625.823 99.8548 646.145C99.8548 646.145 99.8548 651.226 84.6129 651.226L84.6129 610.581 99.8548 610.581Z" fill="#C2DCFF"/><path d="M196.387 610.581 196.387 651.226C181.145 651.226 181.145 646.145 181.145 646.145L181.145 610.581Z" fill="#C2DCFF"/><path d="M125.258 498.806 99.8548 508.968 95.8411 492.913C95.1332 490.088 94.7749 487.188 94.7742 484.276L94.7742 483.565C94.7499 474.127 98.5 465.072 105.19 458.415L104.935 458.161 81.8186 467.408C80.3189 468.03 78.9809 468.985 77.9065 470.202L-17 580.097-1.75806 605.5 66.221 537.521C70.4247 533.312 77.2445 533.308 81.4534 537.511 83.4786 539.534 84.6154 542.28 84.6129 545.142L84.6129 610.581 99.8548 610.581 99.8548 646.145C99.8548 646.145 99.8548 651.226 84.6129 651.226L84.6129 742.677C84.6129 742.677 94.7742 763 125.258 763L125.258 575.016 104.935 519.129Z" fill="#E6F3FF"/><path d="M155.742 498.806 181.145 508.968 185.159 492.913C185.867 490.088 186.225 487.188 186.226 484.276L186.226 483.565C186.25 474.127 182.5 465.072 175.81 458.415L176.065 458.161 199.181 467.408C200.681 468.03 202.019 468.985 203.094 470.202L298 580.097 282.758 605.5 214.779 537.521C210.575 533.312 203.756 533.308 199.547 537.511 197.521 539.534 196.385 542.28 196.387 545.142L196.387 610.581 181.145 610.581 181.145 646.145C181.145 646.145 181.145 651.226 196.387 651.226L196.387 742.677C196.387 742.677 186.226 763 155.742 763L155.742 575.016 176.065 519.129Z" fill="#E6F3FF"/><path d="M125.258 498.806 112.556 503.887 99.8548 508.968 95.8411 492.913C95.1332 490.088 94.7749 487.188 94.7742 484.276L94.7742 483.565C94.7499 474.127 98.5 465.072 105.19 458.415L104.935 458.161 97.8226 461.006C96.8487 461.787 95.916 462.618 95.0282 463.496 88.5758 469.948 84.6129 483.869 84.6129 493.726L84.6129 494.437C84.6136 497.349 84.9719 500.25 85.6798 503.074L89.6936 519.129 115.097 508.968Z" fill="#D2E6F7"/><path d="M94.7742 529.29 125.258 577.196 125.258 575.016 104.935 519.129 94.7742 529.29Z" fill="#D2E6F7"/><path d="M181.145 539.452 181.145 559.774C181.128 565.379 176.589 569.919 170.984 569.935L157.571 569.935 168.698 539.452Z" fill="#C2DCFF"/><path d="M179.758 539.452 186.226 529.29 176.065 519.129 168.698 539.452 179.758 539.452Z" fill="#D2E6F7"/><path d="M185.972 463.496C185.084 462.618 184.151 461.787 183.177 461.006L176.065 458.161 175.81 458.415C182.5 465.072 186.25 474.127 186.226 483.565L186.226 484.276C186.225 487.188 185.867 490.088 185.159 492.913L181.145 508.968 168.444 503.887 155.742 498.806 165.903 508.968 191.306 519.129 195.32 503.074C196.028 500.25 196.386 497.349 196.387 494.437L196.387 493.726C196.387 483.869 192.424 469.948 185.972 463.496Z" fill="#D2E6F7"/><path d="M181.145 539.452 181.145 559.774C181.128 565.379 176.589 569.919 170.984 569.935L157.571 569.935 168.698 539.452Z" fill="#C2DCFF"/><path d="M157.571 569.935 157.591 569.935 162.535 556.335 157.571 569.935Z" fill="#C2DCFF"/><path d="M168.698 539.452 162.535 556.335 157.591 569.935 159.131 569.935 179.453 539.452 168.698 539.452Z" fill="#9CC7FF"/><path d="M70.4481 524.21C66.5205 524.211 62.7694 525.841 60.0886 528.711L-5.60411 599.093-1.75806 605.5 66.221 537.521C70.4247 533.312 77.2445 533.308 81.4534 537.511 83.4786 539.534 84.6154 542.28 84.6129 545.142L84.6129 538.375C84.6129 530.551 78.2711 524.21 70.4481 524.21Z" fill="#D2E6F7"/><path d="M210.552 524.21C202.729 524.21 196.387 530.551 196.387 538.375L196.387 545.142C196.389 539.19 201.214 534.367 207.166 534.369 210.021 534.369 212.759 535.503 214.779 537.521L282.758 605.5 286.604 599.093 220.911 528.711C218.231 525.841 214.479 524.211 210.552 524.21Z" fill="#D2E6F7"/><path d="M165.04 453.944C161.748 450.71 157.478 448.656 152.897 448.102 152.185 448.051 151.423 448 150.661 448L130.339 448C129.577 448 128.815 448.051 128.103 448.102 123.522 448.656 119.252 450.71 115.96 453.944 112.162 457.767 110.026 462.934 110.016 468.323L111.865 472.021C114.477 464.492 120.116 453.081 130.339 453.081L150.661 453.081C160.884 453.081 166.523 464.492 169.135 472.021L170.984 468.323C170.974 462.934 168.838 457.767 165.04 453.944Z" fill="#98A0A8"/><path d="M125.258 732.516 155.742 732.516 155.742 498.806C155.742 498.806 145.581 661.387 125.258 691.871Z" fill="#BAC3CC"/></g></g></g></g></svg>