<svg width="238" height="54" xmlns="http://www.w3.org/2000/svg" xmlns:xlink="http://www.w3.org/1999/xlink" overflow="hidden"><defs><clipPath id="clip0"><rect x="107" y="411" width="238" height="54"/></clipPath><clipPath id="clip1"><path d="M344.171 416.934 109.129 411.358 108 458.954 343.042 464.53Z" fill-rule="evenodd" clip-rule="evenodd"/></clipPath><clipPath id="clip2"><path d="M344.171 416.934 109.129 411.358 108 458.954 343.042 464.53Z" fill-rule="evenodd" clip-rule="evenodd"/></clipPath><clipPath id="clip3"><path d="M344.171 416.934 109.129 411.358 108 458.954 343.042 464.53Z" fill-rule="evenodd" clip-rule="evenodd"/></clipPath></defs><g clip-path="url(#clip0)" transform="translate(-107 -411)"><g clip-path="url(#clip1)"><g clip-path="url(#clip2)"><g clip-path="url(#clip3)"><path d="M246.941 119.742C246.941 123.207 244.134 126.016 240.67 126.016L22.6751 126.016C19.2106 126.016 16.4019 123.207 16.4019 119.742L16.4019 112.624C16.4019 109.16 19.2106 106.353 22.6751 106.353L240.67 106.353C244.134 106.353 246.941 109.16 246.941 112.624L246.941 119.742" fill="#985F18" transform="matrix(-1.00583 -0.023863 -0.023718 0.999719 360.014 310.979)"/><path d="M34.7297 153.851C34.7075 153.851 34.6853 153.851 34.6631 153.851 19.1645 153.758 13.4941 143.894 13.2601 143.476L16.9141 141.441C17.0985 141.764 21.736 149.591 34.6888 149.669 34.7041 149.669 34.7178 149.669 34.7332 149.669 36.4611 149.669 37.7622 149.063 38.8311 147.767 43.6546 141.904 41.5101 124.797 40.2756 118.699L44.3735 117.868C44.8703 120.309 49.0126 141.97 42.0599 150.422 40.2158 152.666 37.6819 153.851 34.7297 153.851" fill="#985F18" transform="matrix(-1.00583 -0.023863 -0.023718 0.999719 360.014 310.979)"/><path d="M84.6559 153.851C84.6337 153.851 84.6115 153.851 84.5893 153.851 69.0907 153.758 63.4202 143.894 63.1863 143.476L66.8385 141.441C67.0246 141.764 71.6621 149.591 84.6132 149.669 84.6285 149.669 84.6439 149.669 84.6593 149.669 86.3872 149.669 87.6883 149.063 88.7555 147.767 93.5808 141.904 91.4362 124.797 90.2017 118.699L94.2996 117.868C94.7948 120.309 98.9388 141.97 91.986 150.422 90.1402 152.666 87.6064 153.851 84.6559 153.851" fill="#985F18" transform="matrix(-1.00583 -0.023863 -0.023718 0.999719 360.014 310.979)"/><path d="M134.836 153.851C134.814 153.851 134.792 153.851 134.77 153.851 119.271 153.758 113.601 143.894 113.367 143.476L117.021 141.441C117.205 141.764 121.843 149.591 134.795 149.669 134.809 149.669 134.824 149.669 134.84 149.669 136.566 149.669 137.869 149.063 138.936 147.767 143.761 141.904 141.617 124.797 140.382 118.699L144.48 117.868C144.977 120.309 149.119 141.97 142.167 150.422 140.321 152.666 137.787 153.851 134.836 153.851" fill="#985F18" transform="matrix(-1.00583 -0.023863 -0.023718 0.999719 360.014 310.979)"/><path d="M179.789 153.851C179.768 153.851 179.746 153.851 179.722 153.851 164.225 153.758 158.555 143.894 158.321 143.476L161.973 141.441C162.157 141.764 166.795 149.591 179.748 149.669 179.763 149.669 179.778 149.669 179.792 149.669 181.52 149.669 182.823 149.063 183.89 147.767 188.715 141.904 186.569 124.797 185.336 118.699L189.434 117.868C189.929 120.309 194.072 141.97 187.121 150.422 185.275 152.666 182.741 153.851 179.789 153.851" fill="#985F18" transform="matrix(-1.00583 -0.023863 -0.023718 0.999719 360.014 310.979)"/><path d="M220.561 153.851C220.539 153.851 220.517 153.851 220.495 153.851 204.996 153.758 199.325 143.894 199.092 143.476L202.744 141.441C202.93 141.764 207.567 149.591 220.52 149.669 220.536 149.669 220.549 149.669 220.565 149.669 222.293 149.669 223.594 149.063 224.661 147.767 229.488 141.904 227.341 124.797 226.107 118.699L230.205 117.868C230.702 120.309 234.844 141.97 227.891 150.422 226.047 152.666 223.513 153.851 220.561 153.851" fill="#985F18" transform="matrix(-1.00583 -0.023863 -0.023718 0.999719 360.014 310.979)"/></g></g></g></g></svg>