<svg width="270" height="66" xmlns="http://www.w3.org/2000/svg" xmlns:xlink="http://www.w3.org/1999/xlink" overflow="hidden"><defs><clipPath id="clip0"><rect x="1383" y="343" width="270" height="66"/></clipPath><clipPath id="clip1"><rect x="1384" y="344" width="268" height="65"/></clipPath><clipPath id="clip2"><rect x="1384" y="344" width="268" height="65"/></clipPath><clipPath id="clip3"><rect x="1384" y="344" width="268" height="65"/></clipPath></defs><g clip-path="url(#clip0)" transform="translate(-1383 -343)"><g clip-path="url(#clip1)"><g clip-path="url(#clip2)"><g clip-path="url(#clip3)"><path d="M50.4972 56.3477C75.4644 61.2983 104.756 62.8534 133.643 62.8525 163.005 62.8509 191.876 61.1282 216.085 55.821 224.151 54.0526 232.083 52.0664 237.532 47.3829 177.307 62.6697 84.5328 62.1591 25.3597 46.856 30.6151 52.064 41.1114 54.487 50.4972 56.3477ZM253.879 39.6488C257.508 37.7466 263.606 34.6323 263.549 29.4528 263.49 24.3069 256.553 20.7117 252.825 18.9061 247.841 16.4928 242.66 14.7268 237.532 13.2806 215.344 7.0257 190.089 4.35134 164.054 2.90985 151.488 2.21362 134.852 1.62656 122.393 2.20642 110.353 2.76689 98.6476 2.84225 87.0606 3.78865 75.8694 4.70236 64.7617 5.85184 54.0127 7.65598 38.9022 10.1921 22.6347 13.2754 10.7697 19.7849 7.27116 21.7046 2.02939 25.1167 1.98035 29.4528 1.9327 33.6792 6.70099 36.9595 10.2422 38.9454 21.4378 45.2233 36.2167 48.4199 50.3213 50.723 89.0024 57.0398 137.991 58.5993 180.577 55.1176 201.958 53.37 222.092 50.4557 239.641 44.9225 244.916 43.6907 249.252 42.0741 253.879 39.6488ZM122.569 0.272894C136.309-0.38122 151.346 0.257933 164.757 0.976322 178.277 1.70025 191.381 2.76329 204.133 4.49152 215.812 6.07486 227.966 8.17351 239.817 11.6987 244.802 13.1812 250.43 15.0648 255.286 17.6752 259.98 20.1991 267.57 25.0347 265.129 32.2657 263.759 36.3298 258.942 39.2748 254.935 41.4064 250.285 43.8802 245.455 45.6444 240.695 47.0314 239.537 47.3696 237.401 49.7517 236.124 50.5471 231.283 53.57 225.354 55.3819 218.723 56.8752 192.736 62.7279 162.966 64.2563 131.006 64.2586 99.4256 64.2605 69.4352 62.6464 43.6417 56.5245 37.4618 55.0569 30.9824 53.3207 26.4144 50.0196 24.9912 48.9918 24.0764 47.0012 22.3712 46.1526 20.728 45.3347 18.6415 45.0527 16.9219 44.395 12.071 42.5387 7.11075 40.0148 3.56258 36.66 1.61741 34.8218-0.328304 32.4743 0.0468213 28.5746 0.830594 20.4221 15.253 15.2014 22.0199 12.9296 31.2514 9.82971 42.6795 7.51857 52.6067 5.8981 74.6823 2.29314 96.7714 0.285084 122.217 0.272894 122.334 0.272894 122.453 0.278435 122.569 0.272894" fill-rule="evenodd" transform="matrix(1 0 0 1.00556 1384.38 344.385)"/><path d="M239.642 28.0468C238.757 28.3291 238.584 29.2833 238.06 29.9803 237.527 30.6901 236.915 31.2764 236.302 31.7379 230.668 35.9787 220.838 38.1104 212.044 39.8245 203.832 41.425 195.118 42.5312 186.731 43.3399 143.22 47.5356 90.8298 47.207 51.3763 39.6485 43.0319 38.05 34.6137 36.1425 29.0514 32.9689 26.9522 31.7709 25.2946 29.3127 23.4262 28.5743 24.7577 32.3125 28.7212 34.1494 32.2156 35.6056 43.4992 40.3074 57.6773 42.0489 71.5915 43.6915 109.571 48.1753 154.348 47.8935 192.179 43.6915 206.295 42.124 220.421 39.9968 231.379 35.4299 234.949 33.9424 239.233 32.3741 240.169 28.2227 240.13 28.0862 240.164 27.8759 239.994 27.8712 239.956 28.008 239.846 28.0754 239.642 28.0468ZM226.282 22.5973C221.687 20.81 215.801 19.7409 210.813 18.5543 209.288 18.1911 207.087 16.961 205.89 18.0268 212.202 19.9196 219.504 21.7581 226.282 22.5973ZM42.0594 20.3119C40.398 20.9352 38.1214 21.3184 37.4889 23.1248 39.0737 22.6294 40.4819 21.6644 42.2354 21.0153 47.729 18.9826 54.3504 18.2999 60.1654 16.7967 53.3569 16.956 47.0341 18.4471 42.0594 20.3119ZM239.642 44.9225C222.092 50.4557 201.959 53.3697 180.577 55.1176 137.992 58.5993 89.0027 57.0398 50.3216 50.723 36.217 48.4199 21.4378 45.2233 10.2422 38.9454 6.70099 36.9595 1.9327 33.6792 1.98035 29.4528 2.02939 25.1167 7.27116 21.7043 10.7697 19.7847 22.6347 13.2751 38.9022 10.1918 54.013 7.65571 64.7617 5.85156 75.8697 4.70236 87.0608 3.78837 98.6479 2.84225 110.354 2.76662 122.394 2.20614 134.853 1.62656 151.489 2.21335 164.055 2.90957 190.09 4.35134 215.345 7.02514 237.533 13.2804 242.661 14.7266 247.841 16.4928 252.825 18.9059 256.555 20.7117 263.491 24.3069 263.549 29.4528 263.608 34.6323 257.509 37.7466 253.881 39.6485 249.253 42.0738 244.916 43.6907 239.642 44.9225" fill="#DCEBF9" fill-rule="evenodd" transform="matrix(1 0 0 1.00556 1384.38 344.385)"/><path d="M60.1652 16.7967C54.3504 18.2999 47.729 18.9826 42.2351 21.0153 40.4819 21.6644 39.0737 22.6294 37.4889 23.1248 38.1212 21.3184 40.398 20.9352 42.0594 20.3119 47.0341 18.4471 53.3569 16.956 60.1652 16.7967" fill-rule="evenodd" transform="matrix(1 0 0 1.00556 1384.38 344.385)"/><path d="M239.994 27.8709C240.165 27.8759 240.13 28.0862 240.169 28.2227 239.232 32.3741 234.949 33.9424 231.38 35.4299 220.421 39.9968 206.294 42.124 192.18 43.6915 154.348 47.8935 109.571 48.1753 71.5915 43.6915 57.677 42.0489 43.499 40.3074 32.2153 35.6056 28.7209 34.1494 24.7577 32.3125 23.4262 28.5743 25.2946 29.3127 26.9522 31.7709 29.0511 32.9689 34.6137 36.1425 43.0319 38.05 51.3763 39.6485 90.8295 47.2067 143.22 47.5359 186.731 43.3399 195.118 42.5312 203.832 41.425 212.043 39.8245 220.838 38.1104 230.667 35.9787 236.302 31.7379 236.916 31.2764 237.526 30.6901 238.059 29.9803 238.584 29.2836 238.756 28.3291 239.642 28.0468 239.845 28.0754 239.954 28.0083 239.994 27.8709" fill-rule="evenodd" transform="matrix(1 0 0 1.00556 1384.38 344.385)"/><path d="M25.3597 46.856C84.533 62.1591 177.308 62.6697 237.532 47.3829 232.085 52.0664 224.152 54.0523 216.086 55.821 191.877 61.1282 163.005 62.8509 133.643 62.8525 104.757 62.8534 75.4647 61.2983 50.4972 56.3477 41.1114 54.487 30.6151 52.064 25.3597 46.856" fill="#B8CFE8" fill-rule="evenodd" transform="matrix(1 0 0 1.00556 1384.38 344.385)"/><path d="M205.891 18.0268C207.088 16.961 209.288 18.1911 210.814 18.5543 215.801 19.7409 221.687 20.81 226.283 22.597 219.504 21.7581 212.202 19.9196 205.891 18.0268" fill-rule="evenodd" transform="matrix(1 0 0 1.00556 1384.38 344.385)"/></g></g></g></g></svg>