<svg width="367" height="433" xmlns="http://www.w3.org/2000/svg" xmlns:xlink="http://www.w3.org/1999/xlink" overflow="hidden"><defs><clipPath id="clip0"><rect x="177" y="819" width="367" height="433"/></clipPath><clipPath id="clip1"><rect x="178" y="819" width="365" height="432"/></clipPath><clipPath id="clip2"><rect x="178" y="819" width="365" height="432"/></clipPath><clipPath id="clip3"><rect x="178" y="819" width="365" height="432"/></clipPath><linearGradient x1="1.63567" y1="0" x2="358" y2="0" gradientUnits="userSpaceOnUse" spreadMethod="pad" id="fill4"><stop offset="0" stop-color="#F2F2F2"/><stop offset="0.215" stop-color="#D8D8D8"/><stop offset="0.546" stop-color="#B6B6B6"/><stop offset="0.82" stop-color="#A2A1A1"/><stop offset="1" stop-color="#9A9999"/></linearGradient><linearGradient x1="108.692" y1="0" x2="215.356" y2="0" gradientUnits="userSpaceOnUse" spreadMethod="pad" id="fill5"><stop offset="0" stop-color="#FFFFFF"/><stop offset="0.164" stop-color="#F7F7F7"/><stop offset="0.412" stop-color="#E3E2E2"/><stop offset="0.714" stop-color="#C1C0C0"/><stop offset="1" stop-color="#9A9999"/></linearGradient><linearGradient x1="4.80686" y1="0" x2="353.505" y2="0" gradientUnits="userSpaceOnUse" spreadMethod="pad" id="fill6"><stop offset="0" stop-color="#FFFFFF"/><stop offset="1" stop-color="#8F8D8D"/></linearGradient><linearGradient x1="43.3545" y1="0" x2="316.14" y2="0" gradientUnits="userSpaceOnUse" spreadMethod="pad" id="fill7"><stop offset="0" stop-color="#9C9C9C"/><stop offset="1"/></linearGradient><linearGradient x1="7.92613" y1="0" x2="351.557" y2="0" gradientUnits="userSpaceOnUse" spreadMethod="pad" id="fill8"><stop offset="0" stop-color="#9C9C9C"/><stop offset="1"/></linearGradient><linearGradient x1="7.36236" y1="0" x2="351.316" y2="0" gradientUnits="userSpaceOnUse" spreadMethod="pad" id="fill9"><stop offset="0" stop-color="#4A4949"/><stop offset="0.014" stop-color="#4C4B4B"/><stop offset="0.297" stop-color="#6F6E6E"/><stop offset="0.564" stop-color="#888787"/><stop offset="0.806" stop-color="#979797"/><stop offset="1" stop-color="#9C9C9C"/></linearGradient><linearGradient x1="-69136.8" y1="66620.9" x2="-68913.3" y2="66853.4" gradientUnits="userSpaceOnUse" spreadMethod="pad" id="fill10"><stop offset="0" stop-color="#7C7C7C"/><stop offset="1" stop-color="#000042"/></linearGradient><linearGradient x1="-69138.5" y1="66619.2" x2="-68908.4" y2="66858.5" gradientUnits="userSpaceOnUse" spreadMethod="pad" id="fill11"><stop offset="0" stop-color="#A0A0A0"/><stop offset="1" stop-color="#000055"/></linearGradient><linearGradient x1="-370562" y1="-433.634" x2="-370562" y2="777.412" gradientUnits="userSpaceOnUse" spreadMethod="pad" id="fill12"><stop offset="0" stop-color="#FFFFFF"/><stop offset="1"/></linearGradient></defs><g clip-path="url(#clip0)" transform="translate(-177 -819)"><g clip-path="url(#clip1)"><g clip-path="url(#clip2)"><g clip-path="url(#clip3)"><path d="M179.76 5.27049C220.426 5.27049 262.326 8.79033 301.33 20.9076 317.891 26.0483 352.793 37.1976 351.643 59.9448 356.479 37.3237 321.615 24.9912 305.9 19.7653 265.683 6.39061 221.909 2.72611 179.76 2.72611 137.737 2.72611 94.0676 6.36093 53.9808 19.769 37.3978 25.3139 6.12356 37.2272 7.74068 58.5317 8.85338 38.1545 37.1048 27.9696 53.0016 22.5878 93.3444 8.92385 137.422 5.27049 179.76 5.27049" fill="#C6C6C6" transform="matrix(1.00009 0 0 1 179.855 820.249)"/><path d="M358 55.1899C356.031 20.4774 280.764 11.4571 257.264 8.04482 195.739-0.886451 130.056-0.144651 69.3805 14.224 52.0484 18.3299-1.72468 30.373 1.79886 57.2558L9.61743 116.908 35.6694 315.665C37.6908 331.106 40.1351 345.786 39.601 361.26 38.1211 404.622 92.1427 415.66 126.592 421.012 169.842 427.722 215.916 426.709 258.376 415.616 278.205 410.438 319.326 398.269 319.326 371.571 319.326 344.369 323.184 318.451 326.77 291.353 337.181 212.637 347.589 133.913 358 55.1899" fill="url(#fill4)" transform="matrix(1.00009 0 0 1 179.855 820.249)"/><path d="M158.493 193.317C159.865 223.03 202.778 231.397 211.647 259.166 215.344 270.738 218.438 289.38 209.755 299.706 203.424 307.231 192.564 307.973 183.744 310.573 153.946 319.345 162.072 361.924 174.149 382.561 178.996 390.832 200.512 415.708 212.937 412.467 200.286 415.768 180.402 410.345 168.277 407.289 145.549 401.566 121.288 389.052 115.75 364.201 109.657 336.81 116.129 301.378 132.801 278.609 143.731 263.684 161.323 255.253 171.912 240.388 205.49 193.254 94.2865 195.205 110.269 149.454 117.917 127.556 144.491 124.982 164.305 126.084 177.123 126.8 199.93 127.196 211.446 133.824 206.892 131.198 189.474 140.771 185.791 142.852 167.187 153.36 157.514 172.027 158.493 193.317" fill="url(#fill5)" transform="matrix(1.00009 0 0 1 179.855 820.249)"/><path d="M305.021 20.2808C315.818 74.4544 318.295 133.246 317.231 188.417 316.774 211.884 315.328 236.734 298.33 254.534 281.387 272.259 267.315 288.968 255.806 310.988 247.353 327.163 240.785 346.261 222.403 353.379 188.94 366.323 142.548 363.567 107.646 362.503 93.6151 362.073 79.7509 359.365 66.7397 354.028 62.1591 346.443 57.3931 338.35 55.2938 329.641 52.8384 319.438 58.057 311.129 60.0598 301.423 64.8185 278.349 55.902 253.989 50.8912 231.768 44.6267 203.995 39.104 175.988 35.8067 147.703 30.9479 106.044 31.8492 63.9951 44.3003 23.6708 33.2512 27.8101 2.72982 38.8518 4.91813 55.5274 5.65993 61.1799 6.39802 66.8325 7.13982 72.485L18.0851 155.878C26.1151 217.047 34.1376 278.208 42.1639 339.373 44.9271 360.455 38.4364 380.859 57.7862 396.147 99.0117 428.731 168.7 428.252 217.837 422.848 252.167 419.076 314.289 410.089 315.521 365.841 315.947 350.463 318.165 335.523 320.146 320.268 328.187 258.443 336.221 196.614 344.262 134.792 347.229 111.975 350.2 89.1643 353.163 66.3503 356.876 37.7465 329.53 28.0586 305.021 20.2808" fill="url(#fill6)" transform="matrix(1.00009 0 0 1 179.855 820.249)"/><path d="M179.052 386.07C137.559 386.07 75.8602 383.752 43.5956 352.87 41.8264 377.906 49.6561 390.394 73.0228 401.191 105.718 416.294 144.013 420.163 179.601 420.163 215.192 420.163 253.484 416.294 286.179 401.191 309.423 390.45 318.388 376.972 315.669 351.706 284.477 383.974 220.274 386.07 179.052 386.07" fill="url(#fill7)" transform="matrix(1.00009 0 0 1 179.855 820.249)"/><path d="M347.504 108.926 351.557 65.8718C348.835 87.2505 315.795 97.1535 299.045 102.164 260.654 113.659 219.677 117.108 179.764 117.108 139.733 117.108 98.6037 113.64 60.1118 102.046 43.4509 97.0274 10.2257 86.9797 7.92984 65.4935 8.97578 76.194 6.41286 106.675 16.0117 111.897 46.1807 128.309 81.3124 136.387 115.035 141.231 186.963 151.561 284.098 150.459 347.504 108.926" fill="url(#fill8)" transform="matrix(1.00009 0 0 1 179.855 820.249)"/><path d="M351.316 58.1571C351.316 80.0921 317.105 90.9001 300.937 95.9258 261.915 108.036 220.01 111.563 179.338 111.563 138.665 111.563 96.7604 108.036 57.7454 95.9258 41.5742 90.9039 7.36236 80.0884 7.36236 58.1571 7.36236 36.2258 41.5927 25.4289 57.7454 20.4069 96.7604 8.2859 138.668 4.74752 179.338 4.74752 220.01 4.74752 261.922 8.2859 300.937 20.4069 317.09 25.4252 351.316 36.2406 351.316 58.1571" fill="url(#fill9)" transform="matrix(1.00009 0 0 1 179.855 820.249)"/><path d="M81.6128 14.2537C62.1443 27.2018 66.3206 44.8826 66.3206 65.1226 66.3206 75.7563 71.8062 86.1118 74.3469 96.2597 76.6242 105.358 99.8018 105.554 108.733 106.819 140.256 111.263 172.268 112.446 204.058 111.007 221.464 110.22 277.771 111.622 285.133 95.0505 293.107 77.0915 306.534 58.9583 295.266 38.6589 292.214 33.1547 287.414 29.1527 283.241 24.5573 275.582 16.1008 276.869 13.9681 263.847 11.6759 204.399 1.19801 140.701 1.53923 81.6128 14.2537" fill="#7C7C7C" transform="matrix(1.00009 0 0 1 179.855 820.249)"/><path d="M243.804 107.609C231.082 108.065 204.755 112.813 213.598 94.2271 221.969 76.6242 196.406 62.8564 199.611 43.6957 201.87 30.1653 217.87 26.1596 228.652 21.7904 233.367 19.8802 239.713 17.4138 241.678 12.2137 244.126 5.70444 202.63 5.24823 195.809 5.02569 176.886 4.40258 157.948 4.87362 139.08 6.35352 133.754 6.77634 115.342 5.26678 116.693 12.2174 117.52 16.4457 120.683 19.2015 124.459 20.8891 132.897 24.6723 143.319 24.1122 150.997 29.6386 158.371 34.9462 155.307 44.6749 157.506 52.3377 160.396 62.4187 172.691 73.5309 171.678 84.2499 170.035 101.768 126.176 105.532 114.875 107.613 157.573 112.961 201.102 112.961 243.804 107.609" fill="#A0A0A0" transform="matrix(1.00009 0 0 1 179.855 820.249)"/><path d="M142.14 25.785C110.476 41.9785 91.3119 66.1315 83.7344 100.744 97.3575 102.954 112.831 108.173 126.447 105.354 131.477 104.312 138.268 105.584 136.999 99.4976 135.731 93.4445 135.063 87.2616 134.97 81.0787 134.7 62.6116 139.814 44.4004 149.484 28.6706 147.155 27.4058 144.703 26.4452 142.14 25.785" fill="url(#fill10)" transform="matrix(1.00009 0 0 1 179.855 820.249)"/><path d="M137.756 102.825C131.885 104.253 125.969 105.491 120.034 106.634L139.911 109.864C139.047 107.561 138.323 105.221 137.756 102.825M155.63 19.717C151.023 21.4899 146.531 23.5373 142.14 25.785 151.442 28.4035 149.502 27.7433 155.63 19.717" fill="url(#fill11)" transform="matrix(1.00009 0 0 1 179.855 820.249)"/><path d="M12.1358 146.539C21.3824 151.869 80.8265 183.67 185.647 185.313 252.234 186.355 309.46 169.713 347.949 148.901" stroke="#7F7F7F" stroke-width="3.709" fill="none" transform="matrix(1.00009 0 0 1 179.855 820.249)"/><path d="M10.8674 145.782 12.1396 146.539" stroke="#7F7F7F" stroke-width="3.709" fill="none" transform="matrix(1.00009 0 0 1 179.855 820.249)"/><path d="M16.1304 180.328C27.7767 186.87 86.8017 217.014 188.773 218.612 250.439 219.576 304.075 205.371 342.233 186.733" stroke="#7F7F7F" stroke-width="3.709" fill="none" transform="matrix(1.00009 0 0 1 179.855 820.249)"/><path d="M22.9365 218.735C44.4264 229.209 100.291 251.57 187.735 252.939 246.934 253.866 298.734 240.814 336.551 223.282" stroke="#7F7F7F" stroke-width="3.709" fill="none" transform="matrix(1.00009 0 0 1 179.855 820.249)"/><path d="M26.894 252.98C46.4997 262.864 103.233 286.895 193.97 288.312 247.03 289.146 294.15 278.739 330.576 263.947" stroke="#7F7F7F" stroke-width="3.709" fill="none" transform="matrix(1.00009 0 0 1 179.855 820.249)"/><path d="M31.7935 289.146C55.5571 300.162 110.068 320.305 192.931 321.604 244.657 322.412 290.734 312.55 326.77 298.356" stroke="#7F7F7F" stroke-width="3.709" fill="none" transform="matrix(1.00009 0 0 1 179.855 820.249)"/><path d="M36.4669 326.611C62.2889 337.905 115.101 355.752 192.935 356.973 242.279 357.748 286.476 348.805 321.719 335.661" stroke="#7F7F7F" stroke-width="3.709" fill="none" transform="matrix(1.00009 0 0 1 179.855 820.249)"/><path d="M182.535 355.93 182.535 185.309" stroke="#7F7F7F" stroke-width="3.709" fill="none" transform="matrix(1.00009 0 0 1 179.855 820.249)"/><path d="M138.839 184.267 138.839 352.815" stroke="#7F7F7F" stroke-width="3.709" fill="none" transform="matrix(1.00009 0 0 1 179.855 820.249)"/><path d="M98.2625 175.947 98.2625 345.527" stroke="#7F7F7F" stroke-width="3.709" fill="none" transform="matrix(1.00009 0 0 1 179.855 820.249)"/><path d="M67.055 170.744 71.2165 340.323" stroke="#7F7F7F" stroke-width="3.709" fill="none" transform="matrix(1.00009 0 0 1 179.855 820.249)"/><path d="M37.9208 159.305 49.3668 329.923" stroke="#7F7F7F" stroke-width="3.709" fill="none" transform="matrix(1.00009 0 0 1 179.855 820.249)"/><path d="M295.934 344.484 316.741 162.424" stroke="#7F7F7F" stroke-width="3.709" fill="none" transform="matrix(1.00009 0 0 1 179.855 820.249)"/><path d="M274.088 347.611 282.411 173.87" stroke="#7F7F7F" stroke-width="3.709" fill="none" transform="matrix(1.00009 0 0 1 179.855 820.249)"/><path d="M250.157 353.853 252.238 183.232" stroke="#7F7F7F" stroke-width="3.709" fill="none" transform="matrix(1.00009 0 0 1 179.855 820.249)"/><path d="M217.904 355.93 222.069 186.351" stroke="#7F7F7F" stroke-width="3.709" fill="none" transform="matrix(1.00009 0 0 1 179.855 820.249)"/><path d="M34.0041 27.8768C84.58 2.69644 149.309 0.808562 204.492 3.27876 233.315 4.56578 262.312 7.92613 290.281 15.1772 310.154 20.329 343.338 29.1416 353.494 49.1776 360.804 63.6019 350.026 94.7501 348.075 109.493 342.838 149.113 337.589 188.74 332.349 228.363 327.805 262.694 323.265 297.009 318.714 331.336 317.105 343.502 316.081 354.766 316.463 367.054 317.068 386.767 300.544 398.792 284.25 406.302 233.192 429.825 166.605 429.977 112.59 418.446 92.5618 414.173 70.178 407.708 54.6929 393.525 39.7123 379.802 45.1756 368.979 42.9242 351.68 35.8215 297.195 28.7262 242.71 21.6309 188.232L8.42314 86.8981C4.53611 57.037-0.092725 43.1468 34.0041 27.8768M179.76-6.58851e-15C128.272-6.58851e-15 66.4653 2.79659 20.5293 29.1268 1.43538 40.0757-1.78403 50.6167 0.752927 69.9814L25.0988 256.047 35.6138 336.365C37.561 351.216 32.8951 370.896 39.868 383.755 61.1206 422.959 133.587 426.846 171.397 427.629 214.477 428.516 284.343 426.323 314.89 389.501 325.416 376.805 319.827 363.441 321.782 348.72 323.595 335.056 325.409 321.385 327.223 307.717 333.995 256.681 340.764 205.649 347.541 154.613 351.925 121.603 356.301 88.5857 360.689 55.5645 363.2 36.6041 330.208 24.0232 317.372 19.3869 273.895 3.709 225.63-9.88276e-14 179.76-9.88276e-14" fill="url(#fill12)" transform="matrix(1.00009 0 0 1 179.855 820.249)"/></g></g></g></g></svg>