<svg width="698" height="434" xmlns="http://www.w3.org/2000/svg" xmlns:xlink="http://www.w3.org/1999/xlink" overflow="hidden"><defs><clipPath id="clip0"><rect x="1149" y="863" width="698" height="434"/></clipPath><clipPath id="clip1"><rect x="1149" y="864" width="697" height="432"/></clipPath><clipPath id="clip2"><rect x="1149" y="864" width="697" height="432"/></clipPath><clipPath id="clip3"><rect x="1149" y="864" width="697" height="432"/></clipPath></defs><g clip-path="url(#clip0)" transform="translate(-1149 -863)"><g clip-path="url(#clip1)"><g clip-path="url(#clip2)"><g clip-path="url(#clip3)"><path d="M708 552 60 552 36 432 732 432 708 552" fill="#AABECE" transform="matrix(1.00144 0 0 1 1112.95 696)"/><path d="M684 600 84 600 84 552 684 552 684 600" fill="#7D8D9C" transform="matrix(1.00144 0 0 1 1112.95 696)"/><path d="M732 432 36 432 132 168 636 168 732 432" fill="#CFDFE8" transform="matrix(1.00144 0 0 1 1112.95 696)"/><path d="M108 432 168 240 600 240 660 432 108 432" fill="#7D8D9C" transform="matrix(1.00144 0 0 1 1112.95 696)"/></g></g></g></g></svg>