<svg width="120" height="120" xmlns="http://www.w3.org/2000/svg" xmlns:xlink="http://www.w3.org/1999/xlink" overflow="hidden"><defs><clipPath id="clip0"><rect x="148" y="663" width="120" height="120"/></clipPath><clipPath id="clip1"><rect x="149" y="663" width="118" height="119"/></clipPath><clipPath id="clip2"><rect x="149" y="663" width="118" height="119"/></clipPath><clipPath id="clip3"><rect x="149" y="663" width="118" height="119"/></clipPath></defs><g clip-path="url(#clip0)" transform="translate(-148 -663)"><g clip-path="url(#clip1)"><g clip-path="url(#clip2)"><g clip-path="url(#clip3)"><path d="M117.87 24.7858C118.833 25.5311 119.803 26.2669 120.787 26.9814 120.013 26.9833 119.238 26.9804 118.463 26.9785 118.275 26.2456 118.077 25.5147 117.87 24.7858" fill="#95D7F0" transform="matrix(1 0 0 1.00636 146.207 660.314)"/><path d="M46.7909 78.1296C46.3892 78.3459 45.9875 78.5602 45.5869 78.7784 45.3802 78.2348 45.1765 77.6903 44.9776 77.1448 45.5849 77.4682 46.1893 77.7965 46.7909 78.1296" fill="#95D7F0" transform="matrix(1 0 0 1.00636 146.207 660.314)"/><path d="M13.329 66.9016C13.3531 66.7934 13.3772 66.6853 13.4014 66.5772 13.5858 66.7539 13.7721 66.9286 13.9565 67.1043 13.747 67.0377 13.5385 66.9692 13.329 66.9016" fill="#95D7F0" transform="matrix(1 0 0 1.00636 146.207 660.314)"/><path d="M58.9139 49.3466C58.6319 48.9884 58.35 48.6302 58.0662 48.2729 58.5653 47.9755 59.0664 47.6811 59.5695 47.3895 59.3561 48.0441 59.1369 48.6958 58.9139 49.3466" fill="#95D7F0" transform="matrix(1 0 0 1.00636 146.207 660.314)"/><path d="M8.29475 29.0562C8.77944 29.4212 9.26509 29.7833 9.75075 30.1453 9.83765 29.2889 9.9313 28.4335 10.0336 27.579 9.4582 28.0762 8.87599 28.5658 8.29475 29.0562" fill="#95D7F0" transform="matrix(1 0 0 1.00636 146.207 660.314)"/><path d="M4.88841 57.0939C5.43875 55.9208 5.98717 54.7477 6.53655 53.5736 5.29006 53.7213 4.04358 53.8758 2.79903 54.0371 3.49807 55.0537 4.1942 56.0733 4.88841 57.0939" fill="#95D7F0" transform="matrix(1 0 0 1.00636 146.207 660.314)"/><path d="M11.3593 38.8929C10.8804 39.4114 10.4005 39.9299 9.92068 40.4493 10.6178 41.5722 11.3149 42.6961 12.0149 43.8171 12.3876 42.6478 12.7583 41.4776 13.1223 40.3045 12.5324 39.8372 11.9444 39.366 11.3593 38.8929" fill="#95D7F0" transform="matrix(1 0 0 1.00636 146.207 660.314)"/><path d="M36.1789 58.0652C36.288 58.0459 36.3971 58.0256 36.5052 58.0063 36.4154 58.2448 36.3276 58.4833 36.2368 58.7227 36.2175 58.5035 36.1982 58.2844 36.1789 58.0652" fill="#95D7F0" transform="matrix(1 0 0 1.00636 146.207 660.314)"/><path d="M48.2662 19.3769C48.271 19.488 48.2758 19.5981 48.2797 19.7091 48.0566 19.5865 47.8317 19.4658 47.6077 19.3432 47.8278 19.3547 48.047 19.3663 48.2662 19.3769" fill="#95D7F0" transform="matrix(1 0 0 1.00636 146.207 660.314)"/><path d="M87.2711 9.77489C87.1852 9.70537 87.0983 9.63682 87.0123 9.5673 87.2518 9.47944 87.4903 9.38868 87.7287 9.29985 87.5762 9.4582 87.4236 9.61654 87.2711 9.77489" fill="#95D7F0" transform="matrix(1 0 0 1.00636 146.207 660.314)"/><path d="M67.3419 18.3622C67.7088 19.7294 68.0853 21.0946 68.4879 22.4512 68.7921 23.4756 69.1126 24.5 69.4496 25.5205 70.1312 23.3085 70.922 21.1294 71.7861 18.983 70.307 18.7532 68.8249 18.5495 67.3419 18.3622" fill="#95D7F0" transform="matrix(1 0 0 1.00636 146.207 660.314)"/><path d="M108.506 20.9025C108.814 20.607 109.127 20.3183 109.44 20.0287 108.991 20.0876 108.542 20.1503 108.095 20.2189L108.506 20.9025" fill="#95D7F0" transform="matrix(1 0 0 1.00636 146.207 660.314)"/><path d="M115.448 36.1248C115.359 36.0591 115.27 35.9935 115.18 35.9278 115.157 36.1827 115.132 36.4357 115.108 36.6896 115.222 36.5013 115.335 36.3131 115.448 36.1248" fill="#95D7F0" transform="matrix(1 0 0 1.00636 146.207 660.314)"/><path d="M30.8907 76.9652C30.7807 76.9797 30.6716 76.9941 30.5615 77.0077 30.6648 76.774 30.7652 76.5394 30.8676 76.3067 30.8753 76.5259 30.883 76.746 30.8907 76.9652" fill="#95D7F0" transform="matrix(1 0 0 1.00636 146.207 660.314)"/><path d="M12.8896 111.156C13.4487 112.615 13.8677 114.116 14.2288 115.633 12.1694 116.459 10.0896 117.226 7.94813 117.826 7.78882 117.871 7.62951 117.915 7.46923 117.957L6.81751 112.653C7.77916 112.285 8.73985 111.917 9.69958 111.547L12.8896 111.156" fill="#95D7F0" transform="matrix(1 0 0 1.00636 146.207 660.314)"/><path d="M68.3798 75.2263C68.3653 75.1162 68.3508 75.0061 68.3373 74.897 68.571 74.9994 68.8046 75.0998 69.0383 75.2021 68.8191 75.2108 68.599 75.2186 68.3798 75.2263" fill="#95D7F0" transform="matrix(1 0 0 1.00636 146.207 660.314)"/><path d="M107.01 75.6443C105.323 75.7052 103.639 75.8046 101.958 75.9369 103.195 77.2664 104.423 78.6056 105.642 79.9525L108.114 77.2075C108.084 77.165 108.053 77.1245 108.024 77.082 107.687 76.6021 107.349 76.1232 107.01 75.6443" fill="#95D7F0" transform="matrix(1 0 0 1.00636 146.207 660.314)"/><path d="M73.6013 88.2936C74.8159 88.3834 76.0286 88.4867 77.2384 88.6132 76.6639 88.0937 76.0856 87.5781 75.5092 87.0606 74.8777 87.4796 74.2424 87.89 73.6013 88.2936" fill="#95D7F0" transform="matrix(1 0 0 1.00636 146.207 660.314)"/><path d="M36.3816 88.1121C36.4347 87.4082 36.4869 86.7034 36.54 85.9985 37.8367 85.7417 39.1333 85.4858 40.431 85.2329 39.8295 86.3036 39.227 87.3725 38.6178 88.4384 37.8733 88.3254 37.128 88.2173 36.3816 88.1121" fill="#95D7F0" transform="matrix(1 0 0 1.00636 146.207 660.314)"/><path d="M25.6171 25.1382C24.3551 24.8447 23.0932 24.5511 21.8313 24.2586 22.2349 25.4471 22.6452 26.6338 23.0614 27.8185 23.911 26.9234 24.7636 26.0303 25.6171 25.1382" fill="#95D7F0" transform="matrix(1 0 0 1.00636 146.207 660.314)"/><path d="M62.5201 32.5968C62.7933 33.2485 63.0666 33.9002 63.3398 34.552 62.3009 35.3688 61.261 36.1866 60.2193 37.0005 60.2695 35.7733 60.3206 34.5471 60.3805 33.3209 61.095 33.0834 61.8085 32.842 62.5201 32.5968" fill="#95D7F0" transform="matrix(1 0 0 1.00636 146.207 660.314)"/><path d="M93.46 120.803 93.9409 120.896 94.3184 118.956C94.0316 119.571 93.7458 120.187 93.46 120.803" fill="#95D7F0" transform="matrix(1 0 0 1.00636 146.207 660.314)"/><path d="M63.1708 116.205C61.8915 115.079 60.589 113.98 59.2721 112.899 58.799 113.892 58.3355 114.891 57.8924 115.899 59.6515 116.005 61.4107 116.109 63.1708 116.205" fill="#95D7F0" transform="matrix(1 0 0 1.00636 146.207 660.314)"/><path d="M54.4097 60.2395C54.0602 61.5951 53.6943 62.9478 53.3361 64.3015 52.9827 65.6319 52.5164 66.9335 51.9477 68.1867 51.8588 68.3837 51.7633 68.5758 51.6686 68.7699L47.2852 62.019 55.2208 56.866C54.9765 57.9986 54.6965 59.1234 54.4097 60.2395" fill="#95D7F0" transform="matrix(1 0 0 1.00636 146.207 660.314)"/><path d="M88.8729 102.634C91.1283 99.8296 93.4021 97.0411 95.6807 94.2556 97.0624 94.8658 98.445 95.4751 99.8247 96.0891 100.685 96.4725 101.544 96.8577 102.404 97.2458 103.229 97.968 104.06 98.6854 104.897 99.396 105.596 99.9898 106.293 100.586 106.989 101.183 104.871 102.538 102.763 103.906 100.663 105.288 96.7534 104.314 92.8199 103.437 88.8729 102.634" fill="#95D7F0" transform="matrix(1 0 0 1.00636 146.207 660.314)"/><path d="M82.6801 49.896C82.8046 50.706 82.9253 51.518 83.045 52.3291 81.4867 54.011 79.9824 55.7422 78.4984 57.4897 76.9053 57.5148 75.3141 57.5853 73.7288 57.7195 72.5614 57.818 71.4067 57.9773 70.2587 58.1753L69.5423 47.9253 82.2282 47.039C82.3817 47.99 82.5333 48.943 82.6801 49.896" fill="#95D7F0" transform="matrix(1 0 0 1.00636 146.207 660.314)"/><path d="M107.862 116.855C108.673 116.98 109.484 117.1 110.295 117.22 111.977 115.661 113.708 114.158 115.455 112.674 115.481 111.081 115.551 109.49 115.685 107.903 115.784 106.737 115.944 105.581 116.142 104.433L105.891 103.717 105.005 116.403C105.957 116.556 106.909 116.708 107.862 116.855" fill="#95D7F0" transform="matrix(1 0 0 1.00636 146.207 660.314)"/><path d="M99.2464 18.1498C100.056 18.2753 100.868 18.395 101.679 18.5157 103.361 16.9564 105.092 15.4531 106.84 13.9681 106.865 12.375 106.935 10.7848 107.07 9.19847 107.168 8.03213 107.328 6.87641 107.526 5.72841L97.2758 5.012 96.3885 17.6979C97.3405 17.8514 98.2934 18.003 99.2464 18.1498" fill="#95D7F0" transform="matrix(1 0 0 1.00636 146.207 660.314)"/><path d="M62.5288 7.37461C59.2663 5.87324 56.0231 4.32841 52.7143 2.93227 52.5212 2.8502 52.3262 2.77103 52.1321 2.68993L54.9919 10.1399C56.81 9.63392 58.5962 9.03047 60.3544 8.30827 61.0844 8.00896 61.8085 7.69613 62.5288 7.37461" fill="#95D7F0" transform="matrix(1 0 0 1.00636 146.207 660.314)"/><path d="M30.8705 113.897C32.3747 114.768 33.879 115.641 35.3794 116.519 36.3227 115.229 37.2593 113.931 38.1871 112.627 39.1884 111.221 40.178 109.806 41.1609 108.387 40.8056 107.065 40.4561 105.741 40.1066 104.419 37.9332 105.687 35.7598 106.954 33.5807 108.213 32.6267 108.764 31.6709 109.31 30.7121 109.853 30.7353 110.403 30.7623 110.952 30.7826 111.502 30.8125 112.3 30.8425 113.098 30.8705 113.897" fill="#95D7F0" transform="matrix(1 0 0 1.00636 146.207 660.314)"/><path d="M4.91158 9.10289C4.24441 10.6207 3.56951 12.1346 2.88689 13.6456 3.16013 14.419 3.43434 15.1924 3.70565 15.9658 3.89296 16.4968 4.07158 17.0307 4.25503 17.5637 4.39503 17.4546 4.53406 17.3455 4.67406 17.2374 7.60923 14.9684 10.5666 12.7255 13.5558 10.5261 10.9383 9.43792 8.29475 8.41834 5.64151 7.42289 5.3982 7.98289 5.15682 8.54385 4.91158 9.10289" fill="#95D7F0" transform="matrix(1 0 0 1.00636 146.207 660.314)"/><path d="M18.0793 53.5108C20.3444 52.5994 22.6472 51.7681 24.9866 51.0613 25.5138 51.239 26.0409 51.4195 26.5652 51.6088L26.2775 53.9511C25.5196 54.3431 24.7674 54.7438 24.0269 55.1677 22.5854 55.9903 21.2134 56.9433 19.85 57.8962 19.5285 57.9445 19.207 57.9937 18.8855 58.043 18.5833 56.5387 18.3178 55.0267 18.0793 53.5108" fill="#95D7F0" transform="matrix(1 0 0 1.00636 146.207 660.314)"/><path d="M36.006 16.6832C35.362 15.9204 34.7335 15.1441 34.1059 14.3688 33.3528 13.441 32.6074 12.5121 31.8524 11.5939 32.563 11.033 33.2746 10.473 33.9842 9.91103 35.2713 8.89241 36.5544 7.86799 37.8367 6.84358L40.9939 11.5234C40.6531 11.8295 40.318 12.1404 39.9898 12.4552 38.5888 13.7982 37.2795 15.2243 36.006 16.6832" fill="#95D7F0" transform="matrix(1 0 0 1.00636 146.207 660.314)"/><path d="M94.552 35.4412C94.72 34.0634 95.0387 32.7281 95.3756 31.3841 95.7223 30.0025 96.0631 28.6179 96.4348 27.243 96.6607 26.4078 96.8973 25.5698 97.1512 24.7375L94.161 19.1134C93.5614 19.1732 92.9609 19.2263 92.3594 19.2707 90.9227 20.4554 89.4474 21.5918 87.9653 22.6974 87.3367 23.1666 86.7034 23.631 86.069 24.0935 86.1675 24.4942 86.2679 24.8939 86.3693 25.2936 87.4092 29.3961 88.5118 33.4947 89.6559 37.576 90.521 37.8579 91.3823 38.1466 92.2396 38.4507L94.3976 37.3037C94.4265 36.6819 94.4767 36.0601 94.552 35.4412" fill="#95D7F0" transform="matrix(1 0 0 1.00636 146.207 660.314)"/><path d="M120.174 52.862C119.264 53.2405 118.355 53.6209 117.443 53.9975 112.936 55.859 108.222 57.4646 103.548 59.1813 102.887 58.6879 102.222 58.2004 101.555 57.7176 101.349 56.7434 101.156 55.7673 100.972 54.7892 103.931 52.1543 106.932 49.5657 109.957 47.0052 113.326 49.0202 116.739 50.9609 120.174 52.862" fill="#95D7F0" transform="matrix(1 0 0 1.00636 146.207 660.314)"/><path d="M110.566 82.7699 109.937 94.7818C110.39 95.0705 110.844 95.3612 111.295 95.6556 113.831 97.3105 116.357 99.0079 118.773 100.835 118.779 100.839 118.784 100.842 118.788 100.846 119.277 94.9199 119.601 88.9849 120.28 83.073 117.786 80.5733 115.315 78.0523 112.843 75.5352 112.546 75.233 112.25 74.9318 111.954 74.6296 111.678 76.0788 111.426 77.5319 111.178 78.9783 110.962 80.2402 110.761 81.5041 110.566 82.7699" fill="#95D7F0" transform="matrix(1 0 0 1.00636 146.207 660.314)"/><path d="M5.86744 83.8628 5.23793 95.8758C5.69268 96.1645 6.14551 96.4551 6.59641 96.7496 9.13282 98.4035 11.6586 100.101 14.0753 101.928 14.0801 101.931 14.085 101.935 14.0898 101.939 14.5783 96.0129 14.9027 90.0778 15.5815 84.166 13.0885 81.6663 10.6159 79.1453 8.14413 76.6282 7.84675 76.327 7.55034 76.0248 7.25392 75.7225 6.97972 77.1718 6.72772 78.6249 6.47958 80.0722 6.2633 81.3341 6.06248 82.598 5.86744 83.8628" fill="#95D7F0" transform="matrix(1 0 0 1.00636 146.207 660.314)"/><path d="M81.0648 79.1134C81.4065 79.2805 81.7483 79.4475 82.0892 79.6145 83.2227 79.6213 84.3572 79.6281 85.4916 79.6416 86.4591 79.6532 87.4285 79.6696 88.3988 79.6937 89.0689 76.9961 89.7641 74.3042 90.4853 71.6201 89.5738 70.531 88.6441 69.4563 87.6988 68.3972L87.1475 68.3093C86.1627 70.0598 85.2242 71.8354 84.2799 73.6081 83.2825 75.4821 82.1712 77.2973 81.0648 79.1134" fill="#95D7F0" transform="matrix(1 0 0 1.00636 146.207 660.314)"/><path d="M54.0158 87.4034C54.5893 89.5024 55.1966 91.5898 55.7943 93.686 56.5146 96.2137 57.0475 98.7907 57.6597 101.345L57.7427 101.295C57.9551 100.334 58.1791 99.3758 58.4128 98.4218 59.1205 95.532 59.8977 92.6616 60.645 89.7843 59.6679 88.3467 58.6455 86.9418 57.5969 85.5554 56.4016 86.1665 55.2092 86.7864 54.0158 87.4034" fill="#95D7F0" transform="matrix(1 0 0 1.00636 146.207 660.314)"/><path d="M35.9008 44.5875C39.4742 44.1618 43.0446 43.7109 46.6151 43.2542 46.8304 41.7595 47.0457 40.264 47.2553 38.7684 47.3866 37.8357 47.515 36.903 47.6415 35.9684 47.4657 34.886 47.2987 33.8008 47.1394 32.7146 47.0062 31.808 46.87 30.9004 46.732 29.9938 44.462 31.0722 42.1834 32.1353 39.899 33.1838 38.6535 37.015 37.3124 40.8153 35.9008 44.5875" fill="#95D7F0" transform="matrix(1 0 0 1.00636 146.207 660.314)"/><path d="M70.3803 8.92427C70.4479 7.68358 70.5049 6.44289 70.5454 5.2022 73.8688 7.4113 77.1728 9.64937 80.4594 11.9125 79.7729 12.6077 79.0932 13.3106 78.4163 14.0154 76.3414 12.7178 74.2733 11.4095 72.21 10.0945 71.5998 9.70537 70.9906 9.31434 70.3803 8.92427" fill="#95D7F0" transform="matrix(1 0 0 1.00636 146.207 660.314)"/><path d="M71.7514 112.214C71.819 110.974 71.875 109.733 71.9165 108.491 75.2398 110.701 78.5438 112.939 81.8294 115.203 81.143 115.898 80.4642 116.601 79.7874 117.305 77.7115 116.008 75.6434 114.699 73.581 113.384 72.9708 112.995 72.3606 112.604 71.7514 112.214" fill="#95D7F0" transform="matrix(1 0 0 1.00636 146.207 660.314)"/></g></g></g></g></svg>