<svg width="240" height="160" xmlns="http://www.w3.org/2000/svg" xmlns:xlink="http://www.w3.org/1999/xlink" overflow="hidden"><defs><clipPath id="clip0"><rect x="798" y="350" width="240" height="160"/></clipPath><clipPath id="clip1"><path d="M1023.64 509.427 799.004 487.512 812.312 351.096 1036.95 373.011Z" fill-rule="evenodd" clip-rule="evenodd"/></clipPath><clipPath id="clip2"><path d="M1023.64 509.427 799.004 487.512 812.312 351.096 1036.95 373.011Z" fill-rule="evenodd" clip-rule="evenodd"/></clipPath><clipPath id="clip3"><path d="M1023.64 509.427 799.004 487.512 812.312 351.096 1036.95 373.011Z" fill-rule="evenodd" clip-rule="evenodd"/></clipPath></defs><g clip-path="url(#clip0)" transform="translate(-798 -350)"><g clip-path="url(#clip1)"><g clip-path="url(#clip2)"><g clip-path="url(#clip3)"><path d="M86.8708 176.868C88.8494 178.117 104.204 188.613 105.756 190.991 107.307 193.368 110.325 203.682 110.325 203.682 110.325 203.682 115.333 208.436 117.654 209.18 119.975 209.923 135.953 215.821 138.836 216.164 141.719 216.508 158.711 218.023 160.946 218.057 163.181 218.092 169.888 218.197 174.334 218.24 175.092 214.201 175.825 210.161 176.583 206.123 187.331 204.903 198.229 203.753 209.271 202.659 215.795 195.058 222.497 187.513 229.745 180.318 237.034 173.081 244.94 166.196 252.562 159.366 238.246 158.16 223.563 156.996 208.929 155.86 206.804 156.015 204.654 156.169 202.528 156.323 190.02 156.772 177.678 157.237 165.49 157.88 153.467 158.513 141.596 161.498 129.894 164.555 115.235 168.818 100.894 172.927 86.8708 176.868" fill="#B3B3B3" fill-rule="evenodd" transform="matrix(-0.996412 -0.097208 0.0970971 -0.995275 1053.65 593.905)"/><path d="M159.456 100.494C148.878 98.866 134.368 102.261 120.049 106.901 105.635 111.573 91.1437 117.516 80.3959 124.054 67.0038 132.201 52.7642 139.704 38.0564 147.081 41.7458 153.336 45.8996 159.843 55.8673 166.574 72.8961 169.127 89.3877 171.932 105.341 174.989 112.866 163.027 121.795 150.862 132.093 137.882 142.372 124.924 151.125 111.137 159.456 100.494" fill="#B3B3B3" fill-rule="evenodd" transform="matrix(-0.996412 -0.097208 0.0970971 -0.995275 1053.65 593.905)"/><path d="M110.691 149.395C105.341 147.629 100.063 145.917 94.8839 144.262 90.2915 143.225 85.7463 142.201 81.2758 141.232 85.8441 138.695 90.3645 136.115 94.811 133.492 103.631 129.467 112.279 125.33 120.757 121.109 120.757 121.109 129.283 111.411 130.407 108.641 131.53 105.871 99.8188 115.751 99.8188 115.751 99.8188 115.751 116.185 106.602 131.946 96.6363 147.463 86.8247 160.971 81.1751 165.148 83.9727 169.327 86.7702 187.148 97.8698 189.604 99.7634 192.059 101.657 199.523 107.295 204.605 110.955 207.487 113.283 210.395 115.583 213.326 117.869 223.344 118.612 233.214 119.412 242.888 120.295 248.337 129.607 253.882 138.863 259.526 148.034 256.644 150.082 253.662 152.157 250.585 154.261 243.988 156.14 237.147 158.118 228.449 160.166 228.449 160.166 213.793 157.296 198.79 154.261 183.499 151.168 167.884 147.86 166.883 147.404 165.881 146.948 150.214 148.566 134.854 153.28 119.822 157.892 105.292 162.354 105.292 162.354 106.66 158.063 108.102 153.743 110.691 149.395" fill="#CCCCCC" fill-rule="evenodd" transform="matrix(-0.996412 -0.097208 0.0970971 -0.995275 1053.65 593.905)"/><path d="M205.289 188.046C190.459 189.336 175.898 190.753 161.557 192.295 161.557 192.295 126.071 205.1 121.074 195.731 116.078 186.362 109.372 177.345 109.372 177.345 99.5501 179.729 89.8512 182.043 80.274 184.287 74.5082 181.763 68.5965 179.308 62.586 176.896 58.2373 171.974 53.7668 167.108 49.1736 162.269 46.6816 149.69 80.4818 166.743 82.0089 165.284 83.536 163.827 90.6581 149.998 90.6581 149.998 90.6581 149.998 129.246 131.795 136.906 124.671 144.566 117.546 167.933 106.285 167.933 106.285 173.87 115.85 180.124 125.232 186.746 134.431 198.448 132.819 209.809 131.36 220.827 130.07 226.715 137.293 232.799 144.417 239.102 151.415 247.727 147.46 255.812 143.73 263.435 140.252 263.459 144.949 263.338 149.69 263.069 154.5 261.8 157.277 260.431 160.082 256.962 162.901 245.846 165.103 234.972 167.43 224.418 169.87 217.797 175.802 211.421 181.861 205.289 188.046" fill="#E6E6E6" fill-rule="evenodd" transform="matrix(-0.996412 -0.097208 0.0970971 -0.995275 1053.65 593.905)"/><path d="M180.451 114.167C180.451 114.167 162.449 130.68 159.346 131.176 156.243 131.672 98.7635 135.521 98.7635 135.521L105.094 151.163C105.094 151.163 123.468 168.42 124.958 169.785 126.447 171.151 139.979 192.131 140.228 193.621 140.476 195.11 149.911 174.875 149.911 174.875 149.911 174.875 181.816 174.75 182.934 174.75 184.051 174.75 190.506 156.873 194.851 147.811 199.196 138.749 207.266 127.948 206.273 126.086 205.28 124.224 195.472 123.479 194.728 118.017 193.983 112.554 180.451 114.167 180.451 114.167" fill="#CCCCCC" fill-rule="evenodd" transform="matrix(-0.996412 -0.097208 0.0970971 -0.995275 1053.65 593.905)"/></g></g></g></g></svg>